fira-sans_eight.sfdir

StartChar: exclam
Encoding: 33 33 985
Width: 235
Flags: MW
HStem: -4.50999 23.65 660.43 20G
VStem: 113.64 7.78999
LayerCount: 2
Fore
SplineSet
121.43 192.28 m 1
 113.64 192.28 l 1
 113.64 680.431 l 1
 121.43 680.431 l 1
 121.43 192.28 l 1
117.64 19.1406 m 0
 124.859 19.1406 129.569 13.9902 129.569 7.20996 c 0
 129.569 0.639648 124.859 -4.51074 117.64 -4.51074 c 0
 110.64 -4.51074 105.71 0.639648 105.71 7.20996 c 0
 105.71 13.9902 110.64 19.1406 117.64 19.1406 c 0
EndSplineSet
EndChar
StartChar: quotedbl
Encoding: 34 34 2129
Width: 319
Flags: MW
HStem: 660 20G<88 96 96 96 223 232 232 232>
VStem: 88.5 7 223.5 8
LayerCount: 2
Back
Fore
SplineSet
89 445 m 1
 88 680 l 1
 96 680 l 1
 95 445 l 1
 89 445 l 1
224 445 m 1
 223 680 l 1
 232 680 l 1
 231 445 l 1
 224 445 l 1
EndSplineSet
EndChar
StartChar: numbersign
Encoding: 35 35 2124
Width: 482
Flags: MW
HStem: 0 21G<77 86 77 77 311 320 311 311> 210 7<15 105 15 106 115 339 349 430> 464 7<52 139 52 140 148 372 382 467>
VStem: 15 452<210 464 217 464>
LayerCount: 2
Back
Fore
SplineSet
467 464 m 1
 381 464 l 1
 349 217 l 1
 430 217 l 1
 430 210 l 1
 348 210 l 1
 320 0 l 1
 311 0 l 1
 339 210 l 1
 114 210 l 1
 86 0 l 1
 77 0 l 1
 105 210 l 1
 15 210 l 1
 15 217 l 1
 106 217 l 1
 139 464 l 1
 52 464 l 1
 52 471 l 1
 140 471 l 1
 165 662 l 1
 173 662 l 1
 148 471 l 1
 373 471 l 1
 398 662 l 1
 407 662 l 1
 382 471 l 1
 467 471 l 1
 467 464 l 1
340 217 m 1
 372 464 l 1
 147 464 l 1
 115 217 l 1
 340 217 l 1
EndSplineSet
Substitution2: "'onum' Oldstyle Figures lookup 25 subtable" numbersign.osf
Substitution2: "'tnum' Tabular Numbers lookup 24 subtable" numbersign.tf
AlternateSubs2: "'aalt' Access All Alternates lookup 1 subtable" numbersign.tf numbersign.osf
EndChar
StartChar: dollar
Encoding: 36 36 2200
Width: 527
GlyphClass: 2
Flags: MW
HStem: -9 7<209.5 252 259 259> 662 7<206 256>
VStem: 85 8<478 560 478 562.5> 252 7<-145 -9 -145 -9> 256 7<669 807 669 807> 442 8<122 225>
LayerCount: 2
Back
Fore
SplineSet
450 174 m 0xf4
 450 68 374 -7 259 -9 c 1
 259 -145 l 1
 252 -145 l 1
 252 -9 l 1xf4
 164 -9 110 21 62 67 c 1
 67 73 l 1
 114 28 166 -2 253 -2 c 0
 366 -2 442 70 442 174 c 0
 442 276 386 314 262 354 c 0
 129 397 85 433 85 520 c 0
 85 605 152 669 256 669 c 1
 256 807 l 1
 263 807 l 1
 263 669 l 1xec
 340 668 385 642 427 606 c 1
 422 600 l 1
 379 638 332 662 256 662 c 0
 156 662 93 600 93 520 c 0
 93 436 134 403 265 361 c 0
 391 321 450 281 450 174 c 0xf4
EndSplineSet
Substitution2: "'onum' Oldstyle Figures lookup 25 subtable" dollar.osf
Substitution2: "'tnum' Tabular Numbers lookup 24 subtable" dollar.tf
AlternateSubs2: "'aalt' Access All Alternates lookup 1 subtable" dollar.tf dollar.osf
EndChar

StartChar: percent
Encoding: 37 37 1111
Width: 750
Flags: MW
HStem: -9.22 7.14 289.99 7.14 364.5 7.14 663.71 7.14 668.07 20G
VStem: 67.85 8.22 314.07 8.21001 427.21 8.21001 673.42 8.22
LayerCount: 2
Fore
SplineSet
609.43 688.07 m 1xef80
 151.71 -10.9297 l 1
 144.78 -7.5 l 1
 602.5 691.5 l 1
 609.43 688.07 l 1xef80
195.07 670.851 m 0xf780
 273.351 670.851 322.281 614.57 322.281 519.57 c 0
 322.281 426.71 275.781 364.5 195.071 364.5 c 0
 116.001 364.5 67.8506 424.71 67.8506 516.57 c 0
 67.8506 612.57 114.351 670.851 195.07 670.851 c 0xf780
195.071 663.711 m 0
 118.281 663.711 76.0713 607.642 76.0713 516.571 c 0
 76.0713 430.071 119.071 371.642 195.071 371.642 c 0
 271.852 371.642 314.071 431.642 314.071 519.571 c 0
 314.071 609.211 270.281 663.711 195.071 663.711 c 0
554.421 297.132 m 0
 632.711 297.132 681.641 240.852 681.641 145.852 c 0
 681.641 52.9912 635.141 -9.21875 554.421 -9.21875 c 0
 475.351 -9.21875 427.211 50.9912 427.211 142.852 c 0
 427.211 238.852 473.711 297.132 554.421 297.132 c 0
554.421 289.992 m 0
 477.641 289.992 435.421 233.923 435.421 142.853 c 0
 435.421 56.3525 478.421 -2.07715 554.421 -2.07715 c 0
 631.211 -2.07715 673.421 57.9229 673.421 145.853 c 0
 673.421 235.492 629.641 289.992 554.421 289.992 c 0
EndSplineSet
Substitution2: "'onum' Oldstyle Figures lookup 22 subtable" percent.osf
Substitution2: "'tnum' Tabular Numbers lookup 21 subtable" percent.tf
AlternateSubs2: "'aalt' Access All Alternates lookup 1 subtable" percent.tf percent.osf
EndChar

StartChar: ampersand
Encoding: 38 38 1219
Width: 733
Flags: MW
HStem: -9.21001 7.58 -2.92999 21G 683.87 7.34
VStem: 114.5 8.22 158.5 8.22 437.72 8.21001
LayerCount: 2
Fore
SplineSet
304.71 691.21 m 0xbc
 388.42 691.21 445.929 631.439 445.929 549.369 c 0
 445.929 462.939 382.719 420.439 277.429 361.22 c 1
 528.999 123.08 l 1
 565.719 194.36 584.568 261.86 600.788 349.15 c 1
 608.568 347.221 l 1
 592.139 259.07 571.639 188.5 533.858 118.22 c 1
 657.639 1.5 l 1
 650.709 -2.92969 l 1x7c
 529.859 111.86 l 1
 480.64 35.0703 409.569 -9.20996 306.999 -9.20996 c 0
 194.069 -9.20996 114.499 61.79 114.499 160.14 c 0
 114.499 253.14 166.569 309.71 264.64 362.28 c 1
 187 435.351 158.5 472.78 158.5 547.5 c 0
 157.71 630.14 221.36 691.21 304.71 691.21 c 0xbc
304.719 683.87 m 0
 224.358 683.87 166.718 626.3 166.718 547.729 c 0
 167.498 477.51 188.858 444.01 271.568 366.08 c 1
 376.568 424.8 437.719 466.87 437.719 549.37 c 0
 437.719 628.72 383.499 683.87 304.719 683.87 c 0
270.508 357.65 m 1
 173.288 304.721 122.718 250.15 122.718 160.15 c 0
 122.718 67.6504 197.647 -1.62988 307.008 -1.62988 c 0
 406.788 -1.62988 474.218 40.1504 524.578 116.721 c 1
 270.508 357.65 l 1
EndSplineSet
EndChar

StartChar: quotesingle
Encoding: 39 39 992
Width: 184
Flags: MW
HStem: 660.43 20G
VStem: 88.28 7.57001
LayerCount: 2
Fore
SplineSet
87.8496 680.43 m 1
 96.2793 680.43 l 1
 95.4297 444.5 l 1
 88.71 444.5 l 1
 87.8496 680.43 l 1
EndSplineSet
EndChar
StartChar: parenleft
Encoding: 40 40 2154
Width: 328
Flags: MW
HStem: -126 952<245 245>
VStem: 77 8<237.5 463 237.5 463.5>
LayerCount: 2
Back
Fore
SplineSet
245 826 m 1
 251 823 l 1
 162 692 85 576 85 350 c 0
 85 125 162 8 251 -123 c 1
 245 -126 l 1
 154 6 77 123 77 350 c 0
 77 577 154 694 245 826 c 1
EndSplineSet
Substitution2: "'case' Case-Sensitive Forms lookup 28 subtable" parenleft.case
Substitution2: "'dnom' Denominators lookup 16 subtable" parenleft.dnom
Substitution2: "'numr' Numerators lookup 15 subtable" parenleft.numr
Substitution2: "'sups' Superscript lookup 14 subtable" uni207D
Substitution2: "'subs' Subscript lookup 13 subtable" uni208D
AlternateSubs2: "'aalt' Access All Alternates lookup 1 subtable" uni208D uni207D parenleft.numr parenleft.dnom parenleft.case
EndChar
StartChar: parenright
Encoding: 41 41 2155
Width: 328
Flags: MW
HStem: -126 952<83 83>
VStem: 243 8<237.5 463>
LayerCount: 2
Back
Fore
SplineSet
83 826 m 1
 174 694 251 577 251 350 c 0
 251 123 174 6 83 -126 c 1
 77 -123 l 1
 166 8 243 125 243 350 c 0
 243 576 166 692 77 823 c 1
 83 826 l 1
EndSplineSet
Substitution2: "'case' Case-Sensitive Forms lookup 28 subtable" parenright.case
Substitution2: "'dnom' Denominators lookup 16 subtable" parenright.dnom
Substitution2: "'numr' Numerators lookup 15 subtable" parenright.numr
Substitution2: "'sups' Superscript lookup 14 subtable" uni207E
Substitution2: "'subs' Subscript lookup 13 subtable" uni208E
AlternateSubs2: "'aalt' Access All Alternates lookup 1 subtable" uni208E uni207E parenright.numr parenright.dnom parenright.case
EndChar

StartChar: asterisk
Encoding: 42 42 978
Width: 429
Flags: MW
HStem: 542.27 20G 542.52 20G 548.28 20G 548.64 20G 708.5 20G<210.64 218.64 218.64 218.64>
VStem: 210.85 7.57001
LayerCount: 2
Fore
SplineSet
220.41 562.52 m 1x4c
 313.929 433.851 l 1
 306.999 429.211 l 1
 214.739 558.531 l 1
 121.279 429.211 l 1
 114.35 433.851 l 1
 208.989 562.271 l 1
 56.7793 610.78 l 1
 59.4893 618.141 l 1x8c
 211.06 568.28 l 1x2c
 210.64 728.5 l 1
 218.64 728.5 l 1
 218.21 568.64 l 1
 369.57 618.14 l 1
 372.28 610.779 l 1x1c
 220.41 562.52 l 1x4c
EndSplineSet
EndChar
StartChar: plus
Encoding: 43 43 2296
Width: 480
GlyphClass: 2
Flags: MW
HStem: 327 8<83 236 83 236 244 397>
VStem: 236 8<171 327 171 327 335 490>
LayerCount: 2
Back
Fore
SplineSet
244 490 m 1
 244 335 l 1
 397 335 l 1
 397 327 l 1
 244 327 l 1
 244 171 l 1
 236 171 l 1
 236 327 l 1
 83 327 l 1
 83 335 l 1
 236 335 l 1
 236 490 l 1
 244 490 l 1
EndSplineSet
Substitution2: "'onum' Oldstyle Figures lookup 25 subtable" plus.osf
Substitution2: "'tnum' Tabular Numbers lookup 24 subtable" plus.tf
Substitution2: "'dnom' Denominators lookup 16 subtable" plus.dnom
Substitution2: "'numr' Numerators lookup 15 subtable" plus.numr
Substitution2: "'sups' Superscript lookup 14 subtable" uni207A
Substitution2: "'subs' Subscript lookup 13 subtable" uni208A
AlternateSubs2: "'aalt' Access All Alternates lookup 1 subtable" uni208A uni207A plus.numr plus.dnom plus.tf plus.osf
EndChar
StartChar: comma
Encoding: 44 44 2119
Width: 133
Flags: MW
HStem: -5 23<63 63>
VStem: 55 23<4 9.5>
LayerCount: 2
Back
Fore
SplineSet
66 18 m 0
 74 18 78 13 78 6 c 0
 78 1 76 -4 74 -9 c 2
 36 -115 l 1
 29 -115 l 1
 63 -5 l 1
 57 -3 55 2 55 6 c 0
 55 13 59 18 66 18 c 0
EndSplineSet
EndChar
StartChar: hyphen
Encoding: 45 45 2166
Width: 400
Flags: MW
HStem: 308 8<83 317 83 317>
VStem: 83 234<308 316 308 316>
LayerCount: 2
Back
Fore
SplineSet
83 308 m 1
 83 316 l 1
 317 316 l 1
 317 308 l 1
 83 308 l 1
EndSplineSet
Substitution2: "'case' Case-Sensitive Forms lookup 28 subtable" hyphen.case
Substitution2: "'aalt' Access All Alternates lookup 0 subtable" hyphen.case
EndChar
StartChar: period
Encoding: 46 46 2126
Width: 133
Flags: MW
HStem: -5 23<62.5 70>
VStem: 55 23<3 9.5>
LayerCount: 2
Back
Fore
SplineSet
66 18 m 0
 74 18 78 13 78 6 c 0
 78 0 74 -5 66 -5 c 0
 59 -5 55 0 55 6 c 0
 55 13 59 18 66 18 c 0
EndSplineSet
EndChar

StartChar: slash
Encoding: 47 47 994
Width: 520
Flags: MW
HStem: -92.86 887.93
VStem: 140.21 239.36
LayerCount: 2
Fore
SplineSet
379.57 792.78 m 1
 147.57 -92.8604 l 1
 140.21 -90.5801 l 1
 372.21 795.07 l 1
 379.57 792.78 l 1
EndSplineSet
Substitution2: "'frac' Diagonal Fractions lookup 15 subtable" fraction
Substitution2: "'aalt' Access All Alternates lookup 0 subtable" fraction
EndChar

StartChar: zero
Encoding: 48 48 877
Width: 538
Flags: MW
HStem: -9.22 7.57001 663.28 7.57001
VStem: 78.93 8.2 450.35 8.21001
LayerCount: 2
Fore
SplineSet
268.85 670.85 m 0
 396.42 670.85 458.56 556.851 458.56 330.78 c 0
 458.56 105.351 396.21 -9.21973 268.85 -9.21973 c 0
 141.279 -9.21973 78.9297 105.78 78.9297 331.21 c 0
 78.9297 556.85 141.279 670.85 268.85 670.85 c 0
268.85 663.28 m 0
 146.56 663.28 87.1299 551.85 87.1299 331.21 c 0
 87.1299 110.78 146.35 -1.64941 268.85 -1.64941 c 0
 391.35 -1.64941 450.35 110.351 450.35 330.78 c 0
 450.35 551.42 391.56 663.28 268.85 663.28 c 0
EndSplineSet
Substitution2: "'zero' Slashed Zero lookup 28 subtable" zero.zero
Substitution2: "'onum' Oldstyle Figures lookup 22 subtable" zero.osf
Substitution2: "'tnum' Tabular Numbers lookup 21 subtable" zero.tf
Substitution2: "'frac' Diagonal Fractions lookup 16 subtable" zero.numr
Substitution2: "'dnom' Denominators lookup 14 subtable" zero.dnom
Substitution2: "'numr' Numerators lookup 13 subtable" zero.numr
Substitution2: "'sups' Superscript lookup 12 subtable" zerosuperior
Substitution2: "'subs' Subscript lookup 11 subtable" zeroinferior
AlternateSubs2: "'aalt' Access All Alternates lookup 1 subtable" zeroinferior zerosuperior zero.numr zero.dnom zero.tf zero.osf zero.zero
EndChar

StartChar: one
Encoding: 49 49 878
Width: 387
Flags: MW
HStem: 0 21G<249.5 249.5> 651.14 9.28999
VStem: 241.5 8
LayerCount: 2
Fore
SplineSet
249.5 0 m 1
 241.501 -0.0107422 l 1
 241.501 651.14 l 1
 61.8506 536.069 l 1
 57.8506 542.779 l 1
 242.78 660.43 l 1
 249.5 660.43 l 1
 249.5 0 l 1
EndSplineSet
Substitution2: "'onum' Oldstyle Figures lookup 22 subtable" one.osf
Substitution2: "'tnum' Tabular Numbers lookup 21 subtable" one.tf
Substitution2: "'frac' Diagonal Fractions lookup 16 subtable" one.numr
Substitution2: "'dnom' Denominators lookup 14 subtable" one.dnom
Substitution2: "'numr' Numerators lookup 13 subtable" one.numr
Substitution2: "'sups' Superscript lookup 12 subtable" onesuperior
Substitution2: "'subs' Subscript lookup 11 subtable" oneinferior
AlternateSubs2: "'aalt' Access All Alternates lookup 1 subtable" oneinferior onesuperior one.numr one.dnom one.tf one.osf
EndChar
StartChar: two
Encoding: 50 50 2013
Width: 463
Flags: MW
HStem: 0 8<60 395 49 49> 663 8<183.5 269.5>
VStem: 49 11<0 8 8 8> 379 8<441.5 550.5>
LayerCount: 2
Back
Fore
SplineSet
220 671 m 0
 325 671 387 597 387 507 c 0
 387 373 315 298 60 8 c 1
 397 8 l 1
 395 0 l 1
 49 0 l 1
 49 8 l 1
 310 302 379 377 379 506 c 0
 379 595 319 663 220 663 c 0
 147 663 100 632 56 578 c 1
 49 582 l 1
 97 639 145 671 220 671 c 0
EndSplineSet
Substitution2: "'onum' Oldstyle Figures lookup 25 subtable" two.osf
Substitution2: "'tnum' Tabular Numbers lookup 24 subtable" two.tf
Substitution2: "'frac' Diagonal Fractions lookup 18 subtable" two.numr
Substitution2: "'dnom' Denominators lookup 16 subtable" two.dnom
Substitution2: "'numr' Numerators lookup 15 subtable" two.numr
Substitution2: "'sups' Superscript lookup 14 subtable" uni00B2
Substitution2: "'subs' Subscript lookup 13 subtable" uni2082
AlternateSubs2: "'aalt' Access All Alternates lookup 1 subtable" uni2082 uni00B2 two.numr two.dnom two.tf two.osf
EndChar

StartChar: three
Encoding: 51 51 880
Width: 471
Flags: MW
HStem: -9.22 7.57001 349 7.35001 663.28 7.57001
VStem: 369.79 8.21001 388.36 8.21001
LayerCount: 2
Fore
SplineSet
216.21 670.85 m 0
 317.49 670.85 378 605.221 378 512.57 c 0xf8
 378 408.931 309.36 359.641 235.931 353.001 c 1
 325.431 348.851 396.57 292.78 396.57 179.07 c 0
 396.57 68.21 322.5 -9.21973 210.93 -9.21973 c 0
 133.149 -9.21973 82.6494 15.6406 32.8594 72.2109 c 1
 38.9297 76.6406 l 1
 88.7197 20.2803 136.93 -1.64941 210.72 -1.64941 c 0
 318.93 -1.64941 388.359 73.4209 388.359 178.851 c 0xe8
 388.359 291.57 317.649 349 211.999 349 c 2
 176.929 349 l 1
 177.789 356.35 l 1
 213.719 356.35 l 2
 291.999 356.35 369.789 404.85 369.789 512.35 c 0
 369.789 601.85 311.429 663.279 215.999 663.279 c 0
 158.569 663.279 105.499 643.709 57.0693 594.359 c 1
 51.6396 599.43 l 1
 99.6396 649 154 670.85 216.21 670.85 c 0
EndSplineSet
Substitution2: "'onum' Oldstyle Figures lookup 22 subtable" three.osf
Substitution2: "'tnum' Tabular Numbers lookup 21 subtable" three.tf
Substitution2: "'frac' Diagonal Fractions lookup 16 subtable" three.numr
Substitution2: "'dnom' Denominators lookup 14 subtable" three.dnom
Substitution2: "'numr' Numerators lookup 13 subtable" three.numr
Substitution2: "'sups' Superscript lookup 12 subtable" threesuperior
Substitution2: "'subs' Subscript lookup 11 subtable" threeinferior
AlternateSubs2: "'aalt' Access All Alternates lookup 1 subtable" threeinferior threesuperior three.numr three.dnom three.tf three.osf
EndChar
StartChar: four
Encoding: 52 52 2015
Width: 496
Flags: MW
HStem: 0 21G<354 362 354 354> 193 8<62 354 54 54 362 456>
VStem: 54 8<193 201 201 201> 354 8<0 193 0 193>
LayerCount: 2
Back
Fore
SplineSet
456 201 m 1
 456 193 l 1
 362 193 l 1
 362 0 l 1
 354 0 l 1
 354 193 l 1
 54 193 l 1
 54 201 l 1
 262 671 l 1
 269 668 l 1
 62 201 l 1
 354 201 l 1
 355 418 l 1
 362 418 l 1
 362 201 l 1
 456 201 l 1
EndSplineSet
Substitution2: "'onum' Oldstyle Figures lookup 25 subtable" four.osf
Substitution2: "'tnum' Tabular Numbers lookup 24 subtable" four.tf
Substitution2: "'frac' Diagonal Fractions lookup 18 subtable" four.numr
Substitution2: "'dnom' Denominators lookup 16 subtable" four.dnom
Substitution2: "'numr' Numerators lookup 15 subtable" four.numr
Substitution2: "'sups' Superscript lookup 14 subtable" uni2074
Substitution2: "'subs' Subscript lookup 13 subtable" uni2084
AlternateSubs2: "'aalt' Access All Alternates lookup 1 subtable" uni2084 uni2074 four.numr four.dnom four.tf four.osf
EndChar

StartChar: five
Encoding: 53 53 882
Width: 471
Flags: MW
HStem: -9.2 7.57001 358.07 8.02 403.15 7.58 652.87 7.56
VStem: 89.93 8 395.86 8.42999
LayerCount: 2
Fore
SplineSet
382 652.86 m 1
 97.9297 652.868 l 1
 97.9297 366.088 l 1
 131.43 392.158 170.79 410.729 227.93 410.729 c 0
 338.79 410.729 404.29 336.078 404.29 213.229 c 0
 404.29 84.0088 336.93 -9.20117 212.93 -9.20117 c 0
 144.359 -9.20117 87.5791 18.0088 47.8594 63.6592 c 1
 54.1494 68.5088 l 1
 92.2197 24.5088 146.859 -1.63086 213.149 -1.63086 c 0
 331.649 -1.63086 395.859 88.1494 395.859 213.22 c 0
 395.859 332.58 332.859 403.15 227.72 403.15 c 0
 171.79 403.15 136.86 387.221 97.4307 358.07 c 1
 89.9307 358.07 l 1
 89.9307 660.431 l 1
 383.28 660.431 l 1
 382 652.86 l 1
EndSplineSet
Substitution2: "'onum' Oldstyle Figures lookup 22 subtable" five.osf
Substitution2: "'tnum' Tabular Numbers lookup 21 subtable" five.tf
Substitution2: "'frac' Diagonal Fractions lookup 16 subtable" five.numr
Substitution2: "'dnom' Denominators lookup 14 subtable" five.dnom
Substitution2: "'numr' Numerators lookup 13 subtable" five.numr
Substitution2: "'sups' Superscript lookup 12 subtable" fivesuperior
Substitution2: "'subs' Subscript lookup 11 subtable" fiveinferior
AlternateSubs2: "'aalt' Access All Alternates lookup 1 subtable" fiveinferior fivesuperior five.numr five.dnom five.tf five.osf
EndChar

StartChar: six
Encoding: 54 54 883
Width: 507
Flags: MW
HStem: -9.22 7.57001 416.5 7.57001 663.28 7.57001
VStem: 78.92 8.23 435.21 8.21001
LayerCount: 2
Fore
SplineSet
276.57 424.07 m 0
 375.29 424.07 443.422 357.499 443.422 221.999 c 0
 443.422 76.5693 380.212 -9.2207 271.062 -9.2207 c 0
 132.491 -9.2207 78.9209 124.64 78.9209 287.42 c 0
 78.9209 511.35 155.921 670.85 300.851 670.85 c 0
 344.141 670.85 375.57 656.64 402.851 635.21 c 1
 398.421 628.71 l 1
 371.571 650.71 341.211 663.28 300.641 663.28 c 0
 161.19 663.28 88.29 503.16 87.1504 295.391 c 1
 127.931 363.721 188.271 424.07 276.57 424.07 c 0
271.062 -1.65039 m 0
 377.912 -1.65039 435.211 84.5693 435.211 221.789 c 0
 435.211 352.639 371.281 416.499 276.352 416.499 c 0
 190.012 416.499 129.662 356.459 87.1523 283.579 c 1
 88.1426 125.189 139.503 -1.65039 271.062 -1.65039 c 0
EndSplineSet
Substitution2: "'onum' Oldstyle Figures lookup 22 subtable" six.osf
Substitution2: "'tnum' Tabular Numbers lookup 21 subtable" six.tf
Substitution2: "'frac' Diagonal Fractions lookup 16 subtable" six.numr
Substitution2: "'dnom' Denominators lookup 14 subtable" six.dnom
Substitution2: "'numr' Numerators lookup 13 subtable" six.numr
Substitution2: "'sups' Superscript lookup 12 subtable" sixsuperior
Substitution2: "'subs' Subscript lookup 11 subtable" sixinferior
AlternateSubs2: "'aalt' Access All Alternates lookup 1 subtable" sixinferior sixsuperior six.numr six.dnom six.tf six.osf
EndChar

StartChar: seven
Encoding: 55 55 884
Width: 434
Flags: MW
HStem: -2.28999 21G 652.86 7.57001
VStem: 377.64 8.64
LayerCount: 2
Fore
SplineSet
386.28 653.5 m 1
 104.851 -5.2207 l 1
 97.0703 -2.29102 l 1
 377.641 652.859 l 1
 42.8506 652.859 l 1
 42.8506 660.43 l 1
 386.28 660.43 l 1
 386.28 653.5 l 1
EndSplineSet
Substitution2: "'onum' Oldstyle Figures lookup 22 subtable" seven.osf
Substitution2: "'tnum' Tabular Numbers lookup 21 subtable" seven.tf
Substitution2: "'frac' Diagonal Fractions lookup 16 subtable" seven.numr
Substitution2: "'dnom' Denominators lookup 14 subtable" seven.dnom
Substitution2: "'numr' Numerators lookup 13 subtable" seven.numr
Substitution2: "'sups' Superscript lookup 12 subtable" sevensuperior
Substitution2: "'subs' Subscript lookup 11 subtable" seveninferior
AlternateSubs2: "'aalt' Access All Alternates lookup 1 subtable" seveninferior sevensuperior seven.numr seven.dnom seven.tf seven.osf
EndChar
StartChar: eight
Encoding: 56 56 2019
Width: 524
Flags: MW
HStem: -9 8<205.5 319.5 205.5 322.5> 663 8<220 305>
VStem: 68 8<117 214.5 117 216> 98 8<479.5 559.5 477 562> 420 8<474.5 561.5> 448 8<115 209 113 213>
LayerCount: 2
Back
Fore
SplineSet
300 341 m 1
 412 296 456 253 456 165 c 0
 456 61 381 -9 264 -9 c 0
 142 -9 68 61 68 169 c 0xe4
 68 263 123 322 224 364 c 1
 131 401 98 445 98 514 c 0
 98 610 174 671 262 671 c 0
 351 671 428 616 428 513 c 0xfc
 428 436 392 389 300 341 c 1
106 513 m 0xfc
 106 441 145 402 240 365 c 2
 293 344 l 1
 382 391 420 435 420 512 c 0
 420 611 348 663 262 663 c 0
 178 663 106 606 106 513 c 0xfc
264 -1 m 0xe4
 375 -1 448 65 448 165 c 0
 448 261 393 298 273 345 c 2
 233 361 l 1
 127 317 76 260 76 169 c 0
 76 65 147 -1 264 -1 c 0xe4
EndSplineSet
Substitution2: "'onum' Oldstyle Figures lookup 25 subtable" eight.osf
Substitution2: "'tnum' Tabular Numbers lookup 24 subtable" eight.tf
Substitution2: "'frac' Diagonal Fractions lookup 18 subtable" eight.numr
Substitution2: "'dnom' Denominators lookup 16 subtable" eight.dnom
Substitution2: "'numr' Numerators lookup 15 subtable" eight.numr
Substitution2: "'sups' Superscript lookup 14 subtable" uni2078
Substitution2: "'subs' Subscript lookup 13 subtable" uni2088
AlternateSubs2: "'aalt' Access All Alternates lookup 1 subtable" uni2088 uni2078 eight.numr eight.dnom eight.tf eight.osf
EndChar

StartChar: nine
Encoding: 57 57 886
Width: 502
Flags: MW
HStem: -5.36 21G 259.28 7.57001 663.28 7.57001
VStem: 63.92 8.42999 419.76 8.09
LayerCount: 2
Fore
SplineSet
245.71 670.85 m 0
 377.14 670.85 427.85 566.28 427.85 394.28 c 0
 427.85 150.351 317.13 47.9902 125.2 -12.29 c 1
 122.49 -5.36035 l 1
 308.66 54.0693 414.3 149.989 419.76 380.14 c 1
 375.56 303.25 315.319 259.28 233.85 259.28 c 0
 136.56 259.28 63.9199 335.71 63.9199 459.56 c 0
 63.9199 590.21 140.56 670.85 245.71 670.85 c 0
234.49 266.851 m 0
 315.57 266.851 374.761 312.65 419.841 391.79 c 1
 419.44 562.82 371.671 663.28 245.921 663.28 c 0
 145.561 663.28 72.3506 586.851 72.3506 459.351 c 0
 72.3506 339.7 140.561 266.851 234.49 266.851 c 0
EndSplineSet
Substitution2: "'onum' Oldstyle Figures lookup 22 subtable" nine.osf
Substitution2: "'tnum' Tabular Numbers lookup 21 subtable" nine.tf
Substitution2: "'frac' Diagonal Fractions lookup 16 subtable" nine.numr
Substitution2: "'dnom' Denominators lookup 14 subtable" nine.dnom
Substitution2: "'numr' Numerators lookup 13 subtable" nine.numr
Substitution2: "'sups' Superscript lookup 12 subtable" ninesuperior
Substitution2: "'subs' Subscript lookup 11 subtable" nineinferior
AlternateSubs2: "'aalt' Access All Alternates lookup 1 subtable" nineinferior ninesuperior nine.numr nine.dnom nine.tf nine.osf
EndChar
StartChar: colon
Encoding: 58 58 2118
Width: 133
Flags: MW
HStem: -5 23<62.5 70> 419 24<62.5 70>
VStem: 55 23<3 9.5 428 434.5>
LayerCount: 2
Back
Fore
SplineSet
66 443 m 0
 74 443 78 438 78 431 c 0
 78 425 74 419 66 419 c 0
 59 419 55 425 55 431 c 0
 55 438 59 443 66 443 c 0
66 18 m 0
 74 18 78 13 78 6 c 0
 78 0 74 -5 66 -5 c 0
 59 -5 55 0 55 6 c 0
 55 13 59 18 66 18 c 0
EndSplineSet
EndChar

StartChar: semicolon
Encoding: 59 59 993
Width: 133
Flags: MW
HStem: -4.64999 21G 419.42 23.65
VStem: 54.5 23.85
LayerCount: 2
Fore
SplineSet
66.4297 443.07 m 0
 73.6396 443.07 78.3594 437.92 78.3594 431.14 c 0
 78.3594 424.569 73.6396 419.419 66.4297 419.419 c 0
 59.4297 419.419 54.5 424.569 54.5 431.14 c 0
 54.5 437.92 59.4297 443.07 66.4297 443.07 c 0
66.4297 18.3506 m 0
 73.6396 18.3506 78.3496 13.2119 78.3496 6.42188 c 0
 78.3496 0.492188 76.0596 -4.28809 74.21 -9.43848 c 2
 35.8496 -115.438 l 1
 28.5693 -115.438 l 1
 63.0693 -4.64844 l 1
 57.3496 -3.00879 54.5 1.49121 54.5 6.4209 c 0
 54.5 13.2109 59.4297 18.3506 66.4297 18.3506 c 0
EndSplineSet
EndChar
StartChar: less
Encoding: 60 60 2259
Width: 496
GlyphClass: 2
Flags: MW
HStem: 170 322<405 405>
VStem: 87 9<333 333 333 336 333 336>
LayerCount: 2
Back
Fore
SplineSet
405 492 m 1
 409 485 l 1
 96 333 l 1
 409 177 l 1
 405 170 l 1
 87 330 l 1
 87 336 l 1
 405 492 l 1
EndSplineSet
Substitution2: "'onum' Oldstyle Figures lookup 25 subtable" less.osf
Substitution2: "'tnum' Tabular Numbers lookup 24 subtable" less.tf
AlternateSubs2: "'aalt' Access All Alternates lookup 1 subtable" less.tf less.osf
EndChar
StartChar: equal
Encoding: 61 61 2251
Width: 480
GlyphClass: 2
Flags: MW
HStem: 251 8<83 397 83 397> 403 8<83 397 83 397>
VStem: 83 314<251 259 251 259 403 411 251 411>
LayerCount: 2
Back
Fore
SplineSet
83 403 m 1
 83 411 l 1
 397 411 l 1
 397 403 l 1
 83 403 l 1
83 251 m 1
 83 259 l 1
 397 259 l 1
 397 251 l 1
 83 251 l 1
EndSplineSet
Substitution2: "'onum' Oldstyle Figures lookup 25 subtable" equal.osf
Substitution2: "'tnum' Tabular Numbers lookup 24 subtable" equal.tf
Substitution2: "'dnom' Denominators lookup 16 subtable" equal.dnom
Substitution2: "'numr' Numerators lookup 15 subtable" equal.numr
Substitution2: "'sups' Superscript lookup 14 subtable" uni207C
AlternateSubs2: "'aalt' Access All Alternates lookup 1 subtable" uni207C equal.numr equal.dnom equal.tf equal.osf
EndChar

StartChar: greater
Encoding: 62 62 1096
Width: 496
Flags: MW
HStem: 170.07 321.86
VStem: 399.93 8.85001
LayerCount: 2
Fore
SplineSet
408.78 336.14 m 1
 408.78 329.85 l 1
 90.1406 170.069 l 1
 86.7803 177.209 l 1
 399.931 332.999 l 1
 86.7803 484.779 l 1
 90.1406 491.93 l 1
 408.78 336.14 l 1
EndSplineSet
Substitution2: "'onum' Oldstyle Figures lookup 22 subtable" greater.osf
Substitution2: "'tnum' Tabular Numbers lookup 21 subtable" greater.tf
AlternateSubs2: "'aalt' Access All Alternates lookup 1 subtable" greater.tf greater.osf
EndChar

StartChar: question
Encoding: 63 63 989
Width: 446
Flags: MW
HStem: -4.5 23.65 682.85 7.58
VStem: 187.56 7.78999 371.71 8.42
LayerCount: 2
Fore
SplineSet
234.14 690.43 m 0
 319.569 690.43 380.13 633.93 380.13 555.58 c 0
 380.13 410.93 195.35 430.72 195.35 271 c 2
 195.35 192.29 l 1
 187.56 192.29 l 1
 187.56 271.64 l 2
 187.56 435.71 371.71 413.71 371.71 555.57 c 0
 371.71 631 314.85 682.85 234.14 682.85 c 0
 165.92 682.85 116.85 656.5 72 603.71 c 1
 65.71 608.93 l 1
 112.21 663.21 164.43 690.43 234.14 690.43 c 0
191.99 19.1494 m 0
 199.2 19.1494 203.92 13.999 203.92 7.21875 c 0
 203.92 0.648438 199.2 -4.50195 191.99 -4.50195 c 0
 184.99 -4.50195 180.061 0.648438 180.061 7.21875 c 0
 180.061 13.999 184.99 19.1494 191.99 19.1494 c 0
EndSplineSet
EndChar

StartChar: at
Encoding: 64 64 1218
Width: 1020
Flags: MW
HStem: -193.5 7.57001 14.22 7.13 16.22 7.57001 467.3 7.56 683.64 7.57001
VStem: 105.64 8.22 331.65 8.22 638.65 8 906.15 8.21001
LayerCount: 2
Fore
SplineSet
527.57 691.21 m 0xbf80
 786.65 691.21 914.359 508.08 914.359 309.01 c 0
 914.359 79.2197 831.43 14.2197 755 14.2197 c 0xdf80
 690.67 14.2197 646.17 65.29 640.36 154.14 c 1
 611 64.7793 560.19 16.2197 488.58 16.2197 c 0xbf80
 401.58 16.2197 331.65 88 331.65 231.22 c 0
 331.65 402 423.44 474.86 524.79 474.86 c 0
 575.01 474.86 617.51 458.07 646.649 442.431 c 1
 646.649 176.36 l 2
 646.989 75.21 689.409 21.3496 755.009 21.3496 c 0xdf80
 829.079 21.3496 906.149 84.4199 906.149 308.57 c 0
 906.149 505.71 780.859 683.64 527.579 683.64 c 0
 278.789 683.64 113.859 478.43 113.859 244 c 0
 113.859 -30.7197 290.43 -185.93 525.79 -185.93 c 0
 589.22 -185.93 656 -173.93 706.29 -154.5 c 1
 708 -161.86 l 1
 657.72 -180.86 591.569 -193.5 525.569 -193.5 c 0
 287.43 -193.5 105.64 -35 105.64 244 c 0
 105.64 482.07 274.5 691.21 527.57 691.21 c 0xbf80
639.76 168.5 m 2
 639.75 169 639.739 169.5 639.739 170 c 2
 638.649 172.01 l 1
 638.649 437.58 l 1
 611.72 452.01 572.87 467.3 525.01 467.3 c 0
 424.939 467.3 339.869 395.149 339.869 231.22 c 0
 339.869 92.0801 403.939 23.79 489.01 23.79 c 0
 562.16 23.79 613.01 78.8604 638.87 169.86 c 1
 639.76 168.5 l 2
EndSplineSet
EndChar
StartChar: A
Encoding: 65 65 2
Width: 556
GlyphClass: 2
Flags: MW
HStem: 0 21G<33 41 33 33 515 524 515 515> 210 8<118 438 118 441 115 438> 660 20G<273 282 282 282>
VStem: 33 491<0 0>
AnchorPoint: "Anchor-14" 0 0 basechar 0
AnchorPoint: "Anchor-13" 0 0 basechar 0
AnchorPoint: "Anchor-12" 278 680 basechar 0
AnchorPoint: "Anchor-11" 534 0 basechar 0
AnchorPoint: "Anchor-10" 278 0 basechar 0
LayerCount: 2
Back
Fore
SplineSet
515 0 m 1
 441 210 l 1
 115 210 l 1
 41 0 l 1
 33 0 l 1
 273 680 l 1
 282 680 l 1
 524 0 l 1
 515 0 l 1
118 218 m 1
 438 218 l 1
 277 674 l 1
 118 218 l 1
EndSplineSet
Substitution2: "Single Substitution lookup 41 subtable" ordfeminine
Substitution2: "'c2sc' Capitals to Small Capitals lookup 26 subtable" a.sc
AlternateSubs2: "'aalt' Access All Alternates lookup 1 subtable" ordfeminine a.sc
Position2: "'cpsp' Capital Spacing lookup 0 subtable" dx=5 dy=0 dh=10 dv=0
EndChar

StartChar: C
Encoding: 67 67 14
Width: 532
GlyphClass: 2
Flags: MW
HStem: -9.21001 8 682.64 7.78999
VStem: 82.86 8.42
AnchorPoint: "Anchor-11" 341 0 basechar 0
AnchorPoint: "Anchor-10" 0 0 basechar 0
AnchorPoint: "Anchor-9" 343 680 basechar 0
AnchorPoint: "Anchor-8" 0 0 basechar 0
LayerCount: 2
Fore
SplineSet
342.64 690.43 m 0
 416.85 690.43 460.281 665.069 497.211 632.999 c 1
 492.781 626.719 l 1
 455.211 658.789 413.711 682.639 343.071 682.639 c 0
 197.711 682.639 91.2812 573.499 91.2812 339.429 c 0
 91.2812 117.358 194.711 -1.21191 341.431 -1.21191 c 0
 421.141 -1.21191 467.211 29.0684 501.141 57.5684 c 1
 506.001 51.0684 l 1
 471.431 21.7188 422.36 -9.21094 341.21 -9.21094 c 0
 188.43 -9.21094 82.8594 113.569 82.8594 339.43 c 0
 82.8594 577 192.069 690.43 342.64 690.43 c 0
EndSplineSet
Substitution2: "'c2sc' Capitals to Small Capitals lookup 23 subtable" c.sc
Substitution2: "'aalt' Access All Alternates lookup 0 subtable" c.sc
Position2: "'cpsp' Capital Spacing lookup 0 subtable" dx=5 dy=0 dh=10 dv=0
EndChar
StartChar: D
Encoding: 68 68 52
Width: 615
GlyphClass: 2
Flags: MW
HStem: 0 8<136 243> 673 7<136 237 136 136>
VStem: 128 8<8 673 8 680 8 680> 524 8<211 485>
AnchorPoint: "Anchor-14" 311 340 basechar 0
AnchorPoint: "Anchor-13" 0 0 basechar 0
AnchorPoint: "Anchor-12" 291 680 basechar 0
AnchorPoint: "Anchor-11" 0 0 basechar 0
AnchorPoint: "Anchor-10" 308 0 basechar 0
LayerCount: 2
Back
Fore
SplineSet
237 680 m 2
 382 680 532 626 532 348 c 0
 532 67 381 0 243 0 c 2
 128 0 l 1
 128 680 l 1
 237 680 l 2
237 673 m 2
 136 673 l 1
 136 8 l 1
 244 8 l 2
 380 8 524 74 524 348 c 0
 524 622 377 673 237 673 c 2
EndSplineSet
Substitution2: "'c2sc' Capitals to Small Capitals lookup 26 subtable" d.sc
Substitution2: "'aalt' Access All Alternates lookup 0 subtable" d.sc
Position2: "'cpsp' Capital Spacing lookup 0 subtable" dx=5 dy=0 dh=10 dv=0
EndChar

StartChar: E
Encoding: 69 69 24
Width: 495
GlyphClass: 2
Flags: MW
HStem: 0 7.78 356.78 7.57001 672.64 7.78999
VStem: 127.85 8.21001
AnchorPoint: "Anchor-11" 284 0 basechar 0
AnchorPoint: "Anchor-10" 82 680 basechar 0
AnchorPoint: "Anchor-9" 285 680 basechar 0
AnchorPoint: "Anchor-8" 428 0 basechar 0
LayerCount: 2
Fore
SplineSet
436.71 672.64 m 1
 136.061 672.641 l 1
 136.061 364.351 l 1
 394.351 364.351 l 1
 394.351 356.78 l 1
 136.061 356.78 l 1
 136.061 7.78027 l 1
 446.711 7.78027 l 1
 446.711 0 l 1
 127.851 -0 l 1
 127.851 680.43 l 1
 437.57 680.43 l 1
 436.71 672.64 l 1
EndSplineSet
Substitution2: "'c2sc' Capitals to Small Capitals lookup 23 subtable" e.sc
Substitution2: "'aalt' Access All Alternates lookup 0 subtable" e.sc
Position2: "'cpsp' Capital Spacing lookup 0 subtable" dx=5 dy=0 dh=10 dv=0
EndChar
StartChar: F
Encoding: 70 70 95
Width: 470
GlyphClass: 2
Flags: MW
HStem: 0 21G<128 136 128 128> 342 8<136 392 136 392> 673 7<136 432 136 136>
VStem: 128 8<0 342 350 673>
AnchorPoint: "Anchor-14" 0 0 basechar 0
AnchorPoint: "Anchor-13" 0 0 basechar 0
AnchorPoint: "Anchor-12" 290 680 basechar 0
AnchorPoint: "Anchor-11" 0 0 basechar 0
AnchorPoint: "Anchor-10" 0 0 basechar 0
LayerCount: 2
Back
Fore
SplineSet
433 680 m 1
 432 673 l 1
 136 673 l 1
 136 350 l 1
 392 350 l 1
 392 342 l 1
 136 342 l 1
 136 0 l 1
 128 0 l 1
 128 680 l 1
 433 680 l 1
EndSplineSet
Substitution2: "'c2sc' Capitals to Small Capitals lookup 26 subtable" f.sc
Substitution2: "'aalt' Access All Alternates lookup 0 subtable" f.sc
Position2: "'cpsp' Capital Spacing lookup 0 subtable" dx=5 dy=0 dh=10 dv=0
EndChar
StartChar: G
Encoding: 71 71 98
Width: 601
GlyphClass: 2
Flags: MW
HStem: -9 8<273.5 387.5> 338 8<366 515 366 366> 683 7<282.5 375>
VStem: 83 8<231.5 462 231.5 463.5> 515 8<44 338 338 338>
AnchorPoint: "Anchor-14" 0 0 basechar 0
AnchorPoint: "Anchor-13" 0 0 basechar 0
AnchorPoint: "Anchor-12" 340 680 basechar 0
AnchorPoint: "Anchor-11" 0 0 basechar 0
AnchorPoint: "Anchor-10" 338 0 basechar 0
LayerCount: 2
Back
Fore
SplineSet
344 690 m 0
 409 690 456 671 505 634 c 1
 500 628 l 1
 453 664 406 683 344 683 c 0
 221 683 91 579 91 345 c 0
 91 118 194 -1 353 -1 c 0
 423 -1 475 20 515 44 c 1
 515 338 l 1
 366 338 l 1
 365 346 l 1
 523 346 l 1
 523 40 l 1
 479 14 422 -9 353 -9 c 0
 190 -9 83 113 83 345 c 0
 83 582 217 690 344 690 c 0
EndSplineSet
Substitution2: "'c2sc' Capitals to Small Capitals lookup 26 subtable" g.sc
Substitution2: "'aalt' Access All Alternates lookup 0 subtable" g.sc
Position2: "'cpsp' Capital Spacing lookup 0 subtable" dx=5 dy=0 dh=10 dv=0
EndChar

StartChar: H
Encoding: 72 72 40
Width: 656
GlyphClass: 2
Flags: MW
HStem: 0 21G<127.859 136.069 127.859 127.859 519.64 519.64 519.64 527.859> 356.78 7.78999 660.43 20G
VStem: 127.86 8.21001 519.64 8.22
AnchorPoint: "Anchor-11" 0 0 basechar 0
AnchorPoint: "Anchor-10" 82 680 basechar 0
AnchorPoint: "Anchor-9" 327 680 basechar 0
AnchorPoint: "Anchor-8" 0 0 basechar 0
LayerCount: 2
Fore
SplineSet
519.64 356.78 m 1
 136.069 356.78 l 1
 136.069 0 l 1
 127.859 -0 l 1
 127.859 680.43 l 1
 136.069 680.43 l 1
 136.069 364.569 l 1
 519.64 364.569 l 1
 519.64 680.43 l 1
 527.859 680.43 l 1
 527.859 0 l 1
 519.64 0 l 1
 519.64 356.78 l 1
EndSplineSet
Substitution2: "'c2sc' Capitals to Small Capitals lookup 23 subtable" h.sc
Substitution2: "'aalt' Access All Alternates lookup 0 subtable" h.sc
Position2: "'cpsp' Capital Spacing lookup 0 subtable" dx=5 dy=0 dh=10 dv=0
EndChar

StartChar: I
Encoding: 73 73 43
Width: 264
GlyphClass: 2
Flags: MW
HStem: 0 21G<127.851 136.07 127.851 127.851> 660.43 20G
VStem: 127.85 8.22
AnchorPoint: "Anchor-11" 0 0 basechar 0
AnchorPoint: "Anchor-10" 82 680 basechar 0
AnchorPoint: "Anchor-9" 132 680 basechar 0
AnchorPoint: "Anchor-8" 146 0 basechar 0
LayerCount: 2
Fore
SplineSet
136.07 0 m 1
 127.851 -0 l 1
 127.851 680.43 l 1
 136.07 680.43 l 1
 136.07 0 l 1
EndSplineSet
Substitution2: "'c2sc' Capitals to Small Capitals lookup 23 subtable" i.sc
Substitution2: "'aalt' Access All Alternates lookup 0 subtable" i.sc
Position2: "'cpsp' Capital Spacing lookup 0 subtable" dx=5 dy=0 dh=10 dv=0
EndChar
StartChar: J
Encoding: 74 74 137
Width: 275
GlyphClass: 2
Flags: MW
HStem: 660 20G<145 153 153 153>
VStem: 145 8<86 680>
AnchorPoint: "Anchor-14" 0 0 basechar 0
AnchorPoint: "Anchor-13" 0 0 basechar 0
AnchorPoint: "Anchor-12" 149 680 basechar 0
AnchorPoint: "Anchor-11" 0 0 basechar 0
AnchorPoint: "Anchor-10" 0 0 basechar 0
LayerCount: 2
Back
Fore
SplineSet
153 680 m 1
 153 86 l 2
 153 -9 133 -51 31 -94 c 1
 28 -87 l 1
 125 -46 145 -5 145 86 c 2
 145 680 l 1
 153 680 l 1
EndSplineSet
Substitution2: "'c2sc' Capitals to Small Capitals lookup 26 subtable" j.sc
Substitution2: "'aalt' Access All Alternates lookup 0 subtable" j.sc
Position2: "'cpsp' Capital Spacing lookup 0 subtable" dx=5 dy=0 dh=10 dv=0
EndChar
StartChar: K
Encoding: 75 75 140
Width: 506
GlyphClass: 2
Flags: MW
HStem: 0 21G<484 494 484 484> 660 20G<128 136 136 136 468 478 478 478>
VStem: 128 8<1 680 1 680>
AnchorPoint: "Anchor-14" 0 0 basechar 0
AnchorPoint: "Anchor-13" 0 0 basechar 0
AnchorPoint: "Anchor-12" 285 680 basechar 0
AnchorPoint: "Anchor-11" 0 0 basechar 0
AnchorPoint: "Anchor-10" 287 0 basechar 0
LayerCount: 2
Back
Fore
SplineSet
136 680 m 1
 136 1 l 1
 128 1 l 1
 128 680 l 1
 136 680 l 1
478 680 m 1
 150 366 l 1
 494 0 l 1
 484 0 l 1
 139 366 l 1
 468 680 l 1
 478 680 l 1
EndSplineSet
Substitution2: "'c2sc' Capitals to Small Capitals lookup 26 subtable" k.sc
Substitution2: "'aalt' Access All Alternates lookup 0 subtable" k.sc
Position2: "'cpsp' Capital Spacing lookup 0 subtable" dx=5 dy=0 dh=10 dv=0
EndChar

StartChar: L
Encoding: 76 76 58
Width: 447
GlyphClass: 2
Flags: MW
HStem: 0 8<136.07 423.001> 660.43 20G
VStem: 127.85 8.22
AnchorPoint: "Anchor-11" 276 0 basechar 0
AnchorPoint: "Anchor-10" 0 0 basechar 0
AnchorPoint: "Anchor-9" 132 680 basechar 0
AnchorPoint: "Anchor-8" 0 0 basechar 0
LayerCount: 2
Fore
SplineSet
136.07 8 m 1
 424.281 8 l 1
 423.001 0 l 1
 127.851 -0 l 1
 127.851 680.43 l 1
 136.07 680.43 l 1
 136.07 8 l 1
EndSplineSet
Substitution2: "'c2sc' Capitals to Small Capitals lookup 23 subtable" l.sc
Substitution2: "'aalt' Access All Alternates lookup 0 subtable" l.sc
Position2: "'cpsp' Capital Spacing lookup 0 subtable" dx=5 dy=0 dh=10 dv=0
EndChar

StartChar: O
Encoding: 79 79 71
Width: 688
GlyphClass: 2
Flags: MW
HStem: -9.22 7.78999 682.64 7.78999
VStem: 82.86 8.42 596.35 8.42999
AnchorPoint: "Anchor-11" 0 0 basechar 0
AnchorPoint: "Anchor-10" 102 680 basechar 0
AnchorPoint: "Anchor-9" 339 680 basechar 0
AnchorPoint: "Anchor-8" 0 0 basechar 0
LayerCount: 2
Fore
SplineSet
343.43 690.43 m 0
 504.43 690.43 604.779 564.709 604.779 339.999 c 0
 604.779 119.569 510.209 -9.2207 343.429 -9.2207 c 0
 184.209 -9.2207 82.8594 117.93 82.8594 338.21 c 0
 82.8594 558.71 187.569 690.43 343.43 690.43 c 0
343.43 682.639 m 0
 192.22 682.639 91.2793 554.779 91.2793 338.209 c 0
 91.2793 122.709 189.279 -1.43066 343.419 -1.43066 c 0
 505.569 -1.43066 596.35 123.499 596.35 339.999 c 0
 596.35 559.929 499.779 682.639 343.43 682.639 c 0
EndSplineSet
Substitution2: "Single Substitution lookup 30 subtable" ordmasculine
Substitution2: "'c2sc' Capitals to Small Capitals lookup 23 subtable" o.sc
AlternateSubs2: "'aalt' Access All Alternates lookup 1 subtable" ordmasculine o.sc
Position2: "'cpsp' Capital Spacing lookup 0 subtable" dx=5 dy=0 dh=10 dv=0
EndChar

StartChar: Q
Encoding: 81 81 85
Width: 674
GlyphClass: 2
Flags: MW
HStem: -8.74001 7.3 682.63 7.78999
VStem: 82.86 8.42 596.35 8.42999
LayerCount: 2
Fore
SplineSet
385 -3.15039 m 1
 484.5 -4.36035 558.569 -18.0117 620.069 -69.0117 c 1
 613.999 -75.3613 l 1
 551.439 -24.2314 482.479 -7.6416 348.59 -8.74121 c 0
 346.84 -8.78125 345.18 -8.79102 343.43 -8.79102 c 0
 184.21 -8.79102 82.8604 117.919 82.8604 338.209 c 0
 82.8604 558.709 187.57 690.419 343.431 690.419 c 0
 504.431 690.419 604.78 564.709 604.78 339.989 c 0
 604.78 133.64 522.78 12.8496 385 -3.15039 c 1
91.2793 338.209 m 0
 91.2793 122.709 189.278 -1.44043 343.418 -1.44043 c 0
 505.568 -1.44043 596.349 123.489 596.349 339.989 c 0
 596.349 559.919 499.778 682.629 343.429 682.629 c 0
 192.209 682.629 91.2793 554.779 91.2793 338.209 c 0
EndSplineSet
Substitution2: "'c2sc' Capitals to Small Capitals lookup 23 subtable" q.sc
Substitution2: "'aalt' Access All Alternates lookup 0 subtable" q.sc
Position2: "'cpsp' Capital Spacing lookup 0 subtable" dx=5 dy=0 dh=10 dv=0
EndChar
StartChar: R
Encoding: 82 82 225
Width: 564
GlyphClass: 2
Flags: MW
HStem: 0 21G<128 136 128 128 502 513 502 502> 331 8<136 300 300 312 136 300> 673 7<136 268 136 136>
VStem: 128 8<0 331 339 673> 478 8<445.5 556.5>
AnchorPoint: "Anchor-14" 0 0 basechar 0
AnchorPoint: "Anchor-13" 0 0 basechar 0
AnchorPoint: "Anchor-12" 283 680 basechar 0
AnchorPoint: "Anchor-11" 0 0 basechar 0
AnchorPoint: "Anchor-10" 302 0 basechar 0
LayerCount: 2
Back
Fore
SplineSet
502 0 m 1
 312 331 l 1
 136 331 l 1
 136 0 l 1
 128 0 l 1
 128 680 l 1
 269 680 l 2
 428 680 486 613 486 505 c 0
 486 386 405 339 321 332 c 1
 513 0 l 1
 502 0 l 1
136 339 m 1
 300 339 l 2
 394 339 478 386 478 505 c 0
 478 608 424 673 268 673 c 2
 136 673 l 1
 136 339 l 1
EndSplineSet
Substitution2: "'c2sc' Capitals to Small Capitals lookup 26 subtable" r.sc
Substitution2: "'aalt' Access All Alternates lookup 0 subtable" r.sc
Position2: "'cpsp' Capital Spacing lookup 0 subtable" dx=5 dy=0 dh=10 dv=0
EndChar

StartChar: S
Encoding: 83 83 90
Width: 539
GlyphClass: 2
Flags: MW
HStem: -9.22 7.78999 682.64 7.78
VStem: 85.64 8.22 453.71 8.22
AnchorPoint: "Anchor-11" 261 0 basechar 0
AnchorPoint: "Anchor-10" 0 0 basechar 0
AnchorPoint: "Anchor-9" 272 680 basechar 0
AnchorPoint: "Anchor-8" 0 0 basechar 0
LayerCount: 2
Fore
SplineSet
264.21 690.43 m 0
 347.42 690.43 395.649 663.208 439.359 624.708 c 1
 434.289 618.418 l 1
 390.579 658.138 342.429 682.638 264.219 682.638 c 0
 161.148 682.638 93.8584 619.208 93.8584 536.918 c 0
 93.8584 449.638 136.719 414.848 271.068 372.348 c 0
 401.358 331.348 461.929 289.498 461.929 179.068 c 0
 461.929 67.998 380.209 -9.22168 259.359 -9.22168 c 0
 167.999 -9.22168 112.069 22.208 61.7891 69.8584 c 1
 66.8594 75.9287 l 1
 115.859 29.3584 168.859 -1.43164 259.14 -1.43164 c 0
 375.21 -1.43164 453.71 71.7881 453.71 178.858 c 0
 453.71 285.068 395.71 324.429 268.14 364.999 c 0
 130.71 408.779 85.6396 445.93 85.6396 536.93 c 0
 85.6396 623.779 156.5 690.43 264.21 690.43 c 0
EndSplineSet
Substitution2: "'c2sc' Capitals to Small Capitals lookup 23 subtable" s.sc
Substitution2: "'aalt' Access All Alternates lookup 0 subtable" s.sc
Position2: "'cpsp' Capital Spacing lookup 0 subtable" dx=5 dy=0 dh=10 dv=0
EndChar
StartChar: T
Encoding: 84 84 247
Width: 473
GlyphClass: 2
Flags: MW
HStem: 0 21G<232 241 232 232> 672 8<19 232 19 455 241 454 241 241>
VStem: 232 9<0 672 0 672>
AnchorPoint: "Anchor-14" 237 342 basechar 0
AnchorPoint: "Anchor-13" 0 0 basechar 0
AnchorPoint: "Anchor-12" 237 680 basechar 0
AnchorPoint: "Anchor-11" 0 0 basechar 0
AnchorPoint: "Anchor-10" 237 0 basechar 0
LayerCount: 2
Back
Fore
SplineSet
455 680 m 1
 454 672 l 1
 241 672 l 1
 241 0 l 1
 232 0 l 1
 232 672 l 1
 19 672 l 1
 19 680 l 1
 455 680 l 1
EndSplineSet
Substitution2: "'c2sc' Capitals to Small Capitals lookup 26 subtable" t.sc
Substitution2: "'aalt' Access All Alternates lookup 0 subtable" t.sc
Position2: "'cpsp' Capital Spacing lookup 0 subtable" dx=5 dy=0 dh=10 dv=0
EndChar
StartChar: V
Encoding: 86 86 291
Width: 526
GlyphClass: 2
Flags: MW
HStem: 0 8<264 264 264 269 259 264> 660 20G<33 42 42 42 485 493 493 493>
VStem: 33 460<680 680>
LayerCount: 2
Back
Fore
SplineSet
493 680 m 1
 269 0 l 1
 259 0 l 1
 33 680 l 1
 42 680 l 1
 264 8 l 1
 485 680 l 1
 493 680 l 1
EndSplineSet
Substitution2: "'c2sc' Capitals to Small Capitals lookup 26 subtable" v.sc
Substitution2: "'aalt' Access All Alternates lookup 0 subtable" v.sc
Position2: "'cpsp' Capital Spacing lookup 0 subtable" dx=5 dy=0 dh=10 dv=0
EndChar

StartChar: X
Encoding: 88 88 118
Width: 472
GlyphClass: 2
Flags: MW
HStem: 0 21G<453.64 453.64> 660.43 20G
VStem: 18.94 434.7
LayerCount: 2
Fore
SplineSet
453.64 0 m 1
 444.579 -0.000976562 l 1
 235.149 364.929 l 1
 27.7891 -0.000976562 l 1
 18.9395 -0.000976562 l 1
 229.72 369.779 l 1
 48.0098 680.43 l 1
 57.0801 680.43 l 1
 235.15 374.64 l 1
 413.58 680.43 l 1
 422.43 680.43 l 1
 240.569 370 l 1
 453.64 0 l 1
EndSplineSet
Substitution2: "'c2sc' Capitals to Small Capitals lookup 23 subtable" x.sc
Substitution2: "'aalt' Access All Alternates lookup 0 subtable" x.sc
Position2: "'cpsp' Capital Spacing lookup 0 subtable" dx=5 dy=0 dh=10 dv=0
EndChar
StartChar: Y
Encoding: 89 89 302
Width: 484
GlyphClass: 2
Flags: MW
HStem: 0 21G<238 247 238 238> 660 20G<24 33 33 33 451 460 460 460>
VStem: 238 9<0 271 0 271>
AnchorPoint: "Anchor-14" 0 0 basechar 0
AnchorPoint: "Anchor-13" 0 0 basechar 0
AnchorPoint: "Anchor-12" 242 680 basechar 0
AnchorPoint: "Anchor-11" 0 0 basechar 0
AnchorPoint: "Anchor-10" 243 0 basechar 0
LayerCount: 2
Back
Fore
SplineSet
460 680 m 1
 247 271 l 1
 247 0 l 1
 238 0 l 1
 238 271 l 1
 24 680 l 1
 33 680 l 1
 243 278 l 1
 451 680 l 1
 460 680 l 1
EndSplineSet
Substitution2: "'c2sc' Capitals to Small Capitals lookup 26 subtable" y.sc
Substitution2: "'aalt' Access All Alternates lookup 0 subtable" y.sc
Position2: "'cpsp' Capital Spacing lookup 0 subtable" dx=5 dy=0 dh=10 dv=0
EndChar

StartChar: Z
Encoding: 90 90 124
Width: 506
GlyphClass: 2
Flags: MW
HStem: 0 8 672.64 7.78
VStem: 43.93 10.28 445.43 10.07
AnchorPoint: "Anchor-11" 0 0 basechar 0
AnchorPoint: "Anchor-10" 0 0 basechar 0
AnchorPoint: "Anchor-9" 254 680 basechar 0
AnchorPoint: "Anchor-8" 0 0 basechar 0
LayerCount: 2
Fore
SplineSet
455.5 673.07 m 1
 54.21 7.99902 l 1
 439.57 7.99902 l 1
 438.71 -0.000976562 l 1
 43.9297 -0.000976562 l 1
 43.9297 7.56934 l 1
 445.43 672.64 l 1
 81.1396 672.64 l 1
 81.1396 680.42 l 1
 455.5 680.42 l 1
 455.5 673.07 l 1
EndSplineSet
Substitution2: "'c2sc' Capitals to Small Capitals lookup 23 subtable" z.sc
Substitution2: "'aalt' Access All Alternates lookup 0 subtable" z.sc
Position2: "'cpsp' Capital Spacing lookup 0 subtable" dx=5 dy=0 dh=10 dv=0
EndChar

StartChar: bracketleft
Encoding: 91 91 1005
Width: 311
Flags: MW
HStem: -101.93 893.86
VStem: 107.85 7.36
LayerCount: 2
Fore
SplineSet
222.78 785.43 m 1
 115.21 785.43 l 1
 115.21 -95.4307 l 1
 222.78 -95.4307 l 1
 222.78 -101.931 l 1
 107.851 -101.931 l 1
 107.851 791.93 l 1
 222.78 791.93 l 1
 222.78 785.43 l 1
EndSplineSet
Substitution2: "'case' Case-Sensitive Forms lookup 25 subtable" bracketleft.case
Substitution2: "'aalt' Access All Alternates lookup 0 subtable" bracketleft.case
EndChar
StartChar: backslash
Encoding: 92 92 2113
Width: 520
Flags: MW
HStem: -93 888<148 372>
VStem: 140 240
LayerCount: 2
Back
Fore
SplineSet
148 795 m 1
 380 -91 l 1
 372 -93 l 1
 140 793 l 1
 148 795 l 1
EndSplineSet
EndChar
StartChar: bracketright
Encoding: 93 93 2143
Width: 311
Flags: MW
HStem: -102 7<88 195 88 203 88 195> 785 7<88 195 88 203>
VStem: 195 8<-95 785 785 785>
LayerCount: 2
Back
Fore
SplineSet
203 792 m 1
 203 -102 l 1
 88 -102 l 1
 88 -95 l 1
 195 -95 l 1
 195 785 l 1
 88 785 l 1
 88 792 l 1
 203 792 l 1
EndSplineSet
Substitution2: "'case' Case-Sensitive Forms lookup 28 subtable" bracketright.case
Substitution2: "'aalt' Access All Alternates lookup 0 subtable" bracketright.case
EndChar

StartChar: asciicircum
Encoding: 94 94 1228
Width: 527
Flags: MW
HStem: 809.21 9.72
VStem: 85.71 347.64
LayerCount: 2
Fore
SplineSet
433.35 527 m 1
 423.639 527 l 1
 259.639 809.21 l 1
 95.6387 527 l 1
 85.709 527 l 1
 256.499 818.93 l 1
 262.569 818.93 l 1
 433.35 527 l 1
EndSplineSet
EndChar

StartChar: underscore
Encoding: 95 95 995
Width: 520
Flags: MW
HStem: -90.86 7.57001
VStem: 49.78 420.65
LayerCount: 2
Fore
SplineSet
49.7803 -83.29 m 1
 470.431 -83.29 l 1
 470.431 -90.8604 l 1
 49.7803 -90.8604 l 1
 49.7803 -83.29 l 1
EndSplineSet
EndChar
StartChar: grave
Encoding: 96 96 2531
Width: 233
Flags: MW
HStem: 660 91
VStem: 30 173<666 742>
LayerCount: 2
Back
Fore
SplineSet
34 751 m 1
 203 666 l 1
 200 660 l 1
 30 742 l 1
 34 751 l 1
EndSplineSet
Substitution2: "Single Substitution lookup 41 subtable" grave.case
Substitution2: "'case' Case-Sensitive Forms lookup 28 subtable" grave.case
Substitution2: "'smcp' Lowercase to Small Capitals lookup 27 subtable" grave.sc
Substitution2: "'c2sc' Capitals to Small Capitals lookup 26 subtable" grave.sc
AlternateSubs2: "'aalt' Access All Alternates lookup 1 subtable" grave.sc grave.case
EndChar

StartChar: b
Encoding: 98 98 146
Width: 568
GlyphClass: 2
Flags: MW
HStem: -9.22 7.57001 0 21G<122.851 130.001 122.851 122.851> 520.07 7.57001 711.71 20G
VStem: 122.85 8 476.58 8.2
LayerCount: 2
Fore
SplineSet
306.64 527.64 m 0
 421.93 527.64 484.781 432.07 484.781 264 c 0
 484.781 94.7803 421.711 -9.21973 302.211 -9.21973 c 0xbc
 224.121 -9.21973 168.611 34.1006 130.791 92.7305 c 1
 130.001 0 l 1
 122.851 -0 l 1x7c
 122.851 730.85 l 1
 130.851 731.71 l 1
 130.851 425.8 l 1
 172.45 484.109 225.63 527.64 306.64 527.64 c 0
302.002 -1.64941 m 0
 416.432 -1.64941 476.581 98.7188 476.581 263.999 c 0
 476.581 427.499 417.861 520.069 306.651 520.069 c 0
 226.512 520.069 176.312 478.56 130.861 415.8 c 1
 130.861 103.2 l 1
 171.552 40.4805 225.592 -1.64941 302.002 -1.64941 c 0
EndSplineSet
Substitution2: "'smcp' Lowercase to Small Capitals lookup 24 subtable" b.sc
Substitution2: "'aalt' Access All Alternates lookup 0 subtable" b.sc
EndChar

StartChar: c
Encoding: 99 99 147
Width: 468
GlyphClass: 2
Flags: MW
HStem: -9.22 7.58 520.07 7.57001
VStem: 77.85 8.42999
AnchorPoint: "Anchor-11" 285 -1 basechar 0
AnchorPoint: "Anchor-10" 0 0 basechar 0
AnchorPoint: "Anchor-9" 272 518 basechar 0
AnchorPoint: "Anchor-8" 0 0 basechar 0
LayerCount: 2
Fore
SplineSet
282.43 527.64 m 0
 336.069 527.64 376.068 511.07 412.358 477.641 c 1
 407.139 472.36 l 1
 372.789 504.29 333.639 520.07 282.639 520.07 c 0
 162.709 520.07 86.2793 422.931 86.2793 256.211 c 0
 86.2793 90.1406 168.779 -1.63965 280.85 -1.63965 c 0
 338.35 -1.63965 378.35 18.71 411.569 49.5 c 1
 416.779 44 l 1
 382.93 12.5703 341.43 -9.21973 281.279 -9.21973 c 0
 163.279 -9.21973 77.8496 86.21 77.8496 256.21 c 0
 77.8496 426 156 527.64 282.43 527.64 c 0
EndSplineSet
Substitution2: "'smcp' Lowercase to Small Capitals lookup 24 subtable" c.sc
Substitution2: "'aalt' Access All Alternates lookup 0 subtable" c.sc
EndChar

StartChar: d
Encoding: 100 100 153
Width: 573
GlyphClass: 2
Flags: MW
HStem: -9.22 7.57001 0 21G 520.07 7.57001 711.71 20G
VStem: 82.85 8.22 441.78 8
LayerCount: 2
Fore
SplineSet
449.78 730.85 m 1
 449.778 -0.000976562 l 1
 442.639 -0.000976562 l 1x7c
 441.809 97.1494 l 1
 408.599 38.4297 361.238 -9.2207 271.929 -9.2207 c 0
 157.499 -9.2207 82.8486 87.6396 82.8486 257.21 c 0
 82.8486 417.42 154.919 527.64 280.569 527.64 c 0
 364.97 527.64 416.54 477.439 441.78 430.85 c 1
 441.78 731.71 l 1
 449.78 730.85 l 1
272.139 -1.64062 m 0xbc
 359.879 -1.64062 406.568 44.8408 441.778 110.021 c 1
 441.778 419.87 l 1
 414.318 470.23 363.148 520.07 280.778 520.07 c 0
 162.278 520.07 90.8486 414.36 91.0684 257.21 c 0
 91.2783 92.6396 162.139 -1.64062 272.139 -1.64062 c 0xbc
EndSplineSet
Substitution2: "'smcp' Lowercase to Small Capitals lookup 24 subtable" d.sc
Substitution2: "'aalt' Access All Alternates lookup 0 subtable" d.sc
EndChar

StartChar: e
Encoding: 101 101 157
Width: 528
GlyphClass: 2
Flags: MW
HStem: -9.21001 7.57001 250.29 7.14 520.07 7.57001
VStem: 77.86 8.23 447.36 8
AnchorPoint: "Anchor-11" 278 0 basechar 0
AnchorPoint: "Anchor-10" 0 0 basechar 0
AnchorPoint: "Anchor-9" 276 518 basechar 0
AnchorPoint: "Anchor-8" 366 4 basechar 0
LayerCount: 2
Fore
SplineSet
455.36 286.93 m 0
 455.36 272.72 455.142 263.219 454.142 250.289 c 1
 86.0918 250.289 l 1
 87.752 85.8789 164.052 -1.64062 277.282 -1.64062 c 0
 341.433 -1.64062 383.362 19.1494 428.362 56.7197 c 1
 432.792 50.4297 l 1
 387.572 13 344.292 -9.20996 277.292 -9.20996 c 0
 156.142 -9.20996 77.8613 85.6396 77.8613 253.64 c 0
 77.8613 426 154.711 527.64 274.931 527.64 c 0
 399.431 527.64 455.36 425.5 455.36 286.93 c 0
446.571 257.429 m 1
 447.361 268.929 447.362 276.069 447.362 289.289 c 0
 447.362 420.719 395.002 520.068 275.362 520.068 c 0
 162.772 520.068 87.2021 426.259 86.0918 257.429 c 1
 446.571 257.429 l 1
EndSplineSet
Substitution2: "'smcp' Lowercase to Small Capitals lookup 24 subtable" e.sc
Substitution2: "'aalt' Access All Alternates lookup 0 subtable" e.sc
EndChar

StartChar: f
Encoding: 102 102 167
Width: 301
GlyphClass: 2
Flags: MW
HStem: 0 21G<125.068 133.068 125.068 125.068> 510.28 7.36 726.5 7.57001
VStem: 125.07 8
LayerCount: 2
Fore
SplineSet
240.35 726.5 m 0
 177.779 726.5 133.059 690.851 133.059 616.921 c 2
 133.059 517.641 l 1
 282.988 517.641 l 1
 281.918 510.28 l 1
 133.068 510.28 l 1
 133.068 0 l 1
 125.068 0 l 1
 125.068 510.28 l 1
 33.918 510.28 l 1
 33.918 517.641 l 1
 125.068 517.641 l 1
 125.068 617.78 l 2
 125.068 694.21 173.139 734.07 239.919 734.07 c 0
 283.279 734.07 321.35 720.71 352.42 701.93 c 1
 349.06 695.21 l 1
 318.21 713.57 282.85 726.5 240.35 726.5 c 0
EndSplineSet
Substitution2: "'smcp' Lowercase to Small Capitals lookup 24 subtable" f.sc
Substitution2: "'aalt' Access All Alternates lookup 0 subtable" f.sc
EndChar

StartChar: g
Encoding: 103 103 168
Width: 487
GlyphClass: 2
Flags: MW
HStem: -193.5 7.57001 50.78 7.57001 192.93 7.34 520.28 7.36
VStem: 51.79 8 72.21 8.23 103 8.22 411.65 8.21001 445.72 8.21001
AnchorPoint: "Anchor-11" 193 0 basechar 0
AnchorPoint: "Anchor-10" 0 0 basechar 0
AnchorPoint: "Anchor-9" 246 518 basechar 0
AnchorPoint: "Anchor-8" 0 0 basechar 0
LayerCount: 2
Fore
SplineSet
464.57 537.28 m 1
 431.641 527.71 383.37 521.14 285.94 520.949 c 1
 374.33 506.27 419.86 443.289 419.86 355.999 c 0xf5
 419.86 252.639 351.86 192.929 247.721 192.929 c 0
 217.091 192.929 189.961 200.059 166.111 210.919 c 1
 134.251 191.589 111.221 163.729 111.221 128.419 c 0
 111.221 85.3486 144.86 58.3486 217.221 58.3486 c 2
 307.15 58.3486 l 2
 400.86 58.3486 453.931 11.499 453.931 -58.3613 c 0
 453.931 -145.571 388.721 -193.501 251.791 -193.501 c 0
 112.641 -193.501 51.791 -158.221 51.791 -59.3604 c 1
 59.791 -59.3604 l 1
 60.2207 -153.58 117.221 -185.93 251.791 -185.93 c 0
 383.721 -185.93 445.721 -141.149 445.721 -58.7891 c 0
 445.721 8.49121 394.001 50.7812 306.721 50.7812 c 2
 216.791 50.7812 l 2
 141.291 50.7812 103.001 80.9209 103.001 127.351 c 0xff80
 103.001 166.461 128.341 193.721 159.301 213.98 c 1
 107.461 240.87 72.2109 286.34 72.2109 357.42 c 0
 72.2109 460.21 142.001 527.64 241.641 527.64 c 0
 395.931 527.42 423.36 534.85 462.431 545.92 c 1
 464.57 537.28 l 1
241.87 520.28 m 0
 142.58 520.28 80.4414 452.42 80.4414 357.42 c 0
 80.4414 252.99 164.871 200.271 247.721 200.271 c 0
 346.65 200.271 411.65 255.99 411.65 355.99 c 0
 411.65 472.63 332.44 520.28 241.87 520.28 c 0
EndSplineSet
Substitution2: "'smcp' Lowercase to Small Capitals lookup 24 subtable" g.sc
Substitution2: "'aalt' Access All Alternates lookup 0 subtable" g.sc
EndChar

StartChar: h
Encoding: 104 104 173
Width: 580
GlyphClass: 2
Flags: MW
HStem: 0 21G 520.28 7.36 711.92 20G
VStem: 122.86 8 454.57 8
AnchorPoint: "Anchor-11" 224 0 basechar 0
AnchorPoint: "Anchor-10" 0 0 basechar 0
AnchorPoint: "Anchor-9" 287 729 basechar 0
AnchorPoint: "Anchor-8" 0 0 basechar 0
LayerCount: 2
Fore
SplineSet
327.28 527.64 m 0
 421.061 527.64 462.57 466.068 462.57 368.429 c 2
 462.57 -0.000976562 l 1
 454.57 -0.000976562 l 1
 454.57 367.569 l 2
 454.57 462.499 416 520.279 327.07 520.279 c 0
 241.141 520.279 179.07 468.709 130.86 386.139 c 1
 130.86 -0.000976562 l 1
 122.86 -0.000976562 l 1
 122.86 730.849 l 1
 130.86 731.919 l 1
 130.86 397.699 l 1
 178.53 477.979 241.351 527.64 327.28 527.64 c 0
EndSplineSet
Substitution2: "'smcp' Lowercase to Small Capitals lookup 24 subtable" h.sc
Substitution2: "'aalt' Access All Alternates lookup 0 subtable" h.sc
EndChar

StartChar: i
Encoding: 105 105 176
Width: 254
GlyphClass: 2
Flags: MW
HStem: 0 21G<122.85 130.85 122.85 122.85> 497.64 20G 691.2 20.15
VStem: 122.85 8
AnchorPoint: "Anchor-11" 0 0 basechar 0
AnchorPoint: "Anchor-10" 0 0 basechar 0
AnchorPoint: "Anchor-9" 127 518 basechar 0
AnchorPoint: "Anchor-8" 141 0 basechar 0
LayerCount: 2
Fore
SplineSet
126.85 711.35 m 0
 133.64 711.35 137.14 706.42 137.14 701.28 c 0
 137.14 696.13 133.64 691.2 126.85 691.2 c 0
 120.279 691.2 116.569 696.13 116.569 701.28 c 0
 116.569 706.42 120.279 711.35 126.85 711.35 c 0
130.85 -0 m 1
 122.85 -0 l 1
 122.85 517.64 l 1
 130.85 517.64 l 1
 130.85 -0 l 1
EndSplineSet
Substitution2: "'smcp' Lowercase to Small Capitals lookup 24 subtable" i.sc
Substitution2: "'locl' Localized Forms in Latin lookup 10 subtable" i.loclTRK
Substitution2: "'locl' Localized Forms in Latin lookup 8 subtable" i.loclTRK
Substitution2: "'locl' Localized Forms in Latin lookup 6 subtable" i.loclTRK
Substitution2: "'locl' Localized Forms in Latin lookup 3 subtable" i.loclTRK
Substitution2: "'locl' Localized Forms in Latin lookup 2 subtable" i.loclTRK
AlternateSubs2: "'aalt' Access All Alternates lookup 1 subtable" i.loclTRK i.sc
EndChar

StartChar: j
Encoding: 106 106 188
Width: 254
GlyphClass: 2
Flags: MW
HStem: -192.07 21G 497.64 20G 691.2 20.15
VStem: 123.07 8
AnchorPoint: "Anchor-11" 0 0 basechar 0
AnchorPoint: "Anchor-10" 0 0 basechar 0
AnchorPoint: "Anchor-9" 127 518 basechar 0
AnchorPoint: "Anchor-8" 0 0 basechar 0
LayerCount: 2
Fore
SplineSet
126.85 711.35 m 0
 133.64 711.35 137.14 706.42 137.14 701.28 c 0
 137.14 696.13 133.64 691.2 126.85 691.2 c 0
 120.279 691.2 116.569 696.13 116.569 701.28 c 0
 116.569 706.42 120.279 711.35 126.85 711.35 c 0
131.069 2.5 m 2
 131.069 -119.28 100.14 -154.431 28.7793 -192.07 c 1
 26.0693 -185.79 l 1
 94.2793 -149.79 123.069 -115.07 123.069 2.70996 c 2
 123.069 517.64 l 1
 131.069 517.64 l 1
 131.069 2.5 l 2
EndSplineSet
Substitution2: "'smcp' Lowercase to Small Capitals lookup 24 subtable" j.sc
Substitution2: "'aalt' Access All Alternates lookup 0 subtable" j.sc
EndChar
StartChar: k
Encoding: 107 107 506
Width: 453
GlyphClass: 2
Flags: MW
HStem: 0 21G<123 131 123 123 419 419 419 430> 498 20G<393 403 403 403> 712 20G<131 131>
VStem: 123 8<0 731 731 731>
AnchorPoint: "Anchor-14" 0 0 basechar 0
AnchorPoint: "Anchor-13" 0 0 basechar 0
AnchorPoint: "Anchor-12" 260 729 basechar 0
AnchorPoint: "Anchor-11" 0 0 basechar 0
AnchorPoint: "Anchor-10" 269 0 basechar 0
LayerCount: 2
Back
Fore
SplineSet
131 732 m 1
 131 0 l 1
 123 0 l 1
 123 731 l 1
 131 732 l 1
403 518 m 1
 147 283 l 1
 430 0 l 1
 419 0 l 1
 137 283 l 1
 393 518 l 1
 403 518 l 1
EndSplineSet
Substitution2: "'smcp' Lowercase to Small Capitals lookup 27 subtable" k.sc
Substitution2: "'aalt' Access All Alternates lookup 0 subtable" k.sc
EndChar
StartChar: l
Encoding: 108 108 512
Width: 275
GlyphClass: 2
Flags: MW
HStem: -9 7<162.5 188.5 162.5 189> 712 20G<126 126>
VStem: 118 8<66 67 67 731 731 731>
AnchorPoint: "Anchor-14" 257 375 basechar 0
AnchorPoint: "Anchor-13" 179 729 basechar 0
AnchorPoint: "Anchor-12" 122 731 basechar 0
AnchorPoint: "Anchor-11" 0 0 basechar 0
AnchorPoint: "Anchor-10" 175 0 basechar 0
LayerCount: 2
Back
Fore
SplineSet
181 -9 m 0
 140 -9 118 18 118 66 c 2
 118 731 l 1
 126 732 l 1
 126 67 l 2
 126 24 144 -2 181 -2 c 0
 196 -2 210 1 222 6 c 1
 224 -1 l 1
 211 -6 197 -9 181 -9 c 0
EndSplineSet
Substitution2: "'smcp' Lowercase to Small Capitals lookup 27 subtable" l.sc
Substitution2: "'sups' Superscript lookup 14 subtable" uni02E1
AlternateSubs2: "'aalt' Access All Alternates lookup 1 subtable" uni02E1 l.sc
EndChar
StartChar: m
Encoding: 109 109 530
Width: 846
GlyphClass: 2
Flags: MW
HStem: 0 21G<123 131 123 123 421 429 421 421 720 728 720 720> 498 20G<123 130 130 130> 520 8<265.5 341.5 265.5 343 564.5 642>
VStem: 123 7.5 421 8<0 375 375 386 0 419> 720 8<0 368 0 415.5>
AnchorPoint: "Anchor-14" 0 0 basechar 0
AnchorPoint: "Anchor-13" 0 0 basechar 0
AnchorPoint: "Anchor-12" 423 518 basechar 0
AnchorPoint: "Anchor-11" 0 0 basechar 0
AnchorPoint: "Anchor-10" 423 0 basechar 0
LayerCount: 2
Back
Fore
SplineSet
602 528 m 0
 687 528 728 466 728 368 c 2
 728 0 l 1
 720 0 l 1
 720 368 l 2
 720 463 682 520 602 520 c 0
 527 520 472 469 429 386 c 1
 429 0 l 1
 421 0 l 1
 421 375 l 2
 421 463 383 520 303 520 c 0xbc
 228 520 173 469 131 386 c 1
 131 0 l 1
 123 0 l 1
 123 518 l 1
 130 518 l 1xdc
 131 398 l 1
 173 478 228 528 303 528 c 0
 380 528 423 477 429 397 c 1
 471 478 527 528 602 528 c 0
EndSplineSet
Substitution2: "'smcp' Lowercase to Small Capitals lookup 27 subtable" m.sc
Substitution2: "'aalt' Access All Alternates lookup 0 subtable" m.sc
EndChar

StartChar: n
Encoding: 110 110 201
Width: 580
GlyphClass: 2
Flags: MW
HStem: -0.00999451 21G 0 21G<122.85 130.85 122.85 122.85> 497.64 20G 520.28 7.36
VStem: 122.85 8 454.57 8
AnchorPoint: "Anchor-11" 287 0 basechar 0
AnchorPoint: "Anchor-10" 113 518 basechar 0
AnchorPoint: "Anchor-9" 295 518 basechar 0
AnchorPoint: "Anchor-8" 0 0 basechar 0
LayerCount: 2
Fore
SplineSet
327.28 527.64 m 0x5c
 422.07 527.64 462.569 468.07 462.569 368.42 c 2
 462.569 -0.00976562 l 1
 454.569 -0.00976562 l 1
 454.569 367.561 l 2
 454.569 464.49 416.779 520.28 327.069 520.28 c 0x9c
 241.14 520.28 179.069 468.71 130.85 386.14 c 1
 130.85 0 l 1
 122.85 -0 l 1
 122.85 517.64 l 1
 130 517.64 l 1x6c
 130.8 397.819 l 1
 178.28 477.949 241.32 527.64 327.28 527.64 c 0x5c
EndSplineSet
Substitution2: "'smcp' Lowercase to Small Capitals lookup 24 subtable" n.sc
Substitution2: "'aalt' Access All Alternates lookup 0 subtable" n.sc
EndChar
StartChar: p
Encoding: 112 112 596
Width: 568
GlyphClass: 2
Flags: MW
HStem: -191 21G<131 131> -9 7<264 359 264 362> 498 20G<123 130 130 130> 520 8<267 362.5>
VStem: 123 7.5 477 8<181.5 346>
AnchorPoint: "Anchor-14" 0 0 basechar 0
AnchorPoint: "Anchor-13" 0 0 basechar 0
AnchorPoint: "Anchor-12" 284 518 basechar 0
AnchorPoint: "Anchor-11" 0 0 basechar 0
AnchorPoint: "Anchor-10" 284 -189 basechar 0
LayerCount: 2
Back
Fore
SplineSet
307 528 m 0
 422 528 485 432 485 264 c 0
 485 95 422 -9 302 -9 c 0
 224 -9 169 34 131 93 c 1
 131 -191 l 1
 123 -192 l 1
 123 518 l 1
 130 518 l 1xec
 131 425 l 1
 172 484 225 528 307 528 c 0
302 -2 m 0
 416 -2 477 99 477 264 c 0
 477 428 418 520 307 520 c 0
 227 520 176 479 131 416 c 1
 131 103 l 1
 172 40 226 -2 302 -2 c 0
EndSplineSet
Substitution2: "'smcp' Lowercase to Small Capitals lookup 27 subtable" p.sc
Substitution2: "'aalt' Access All Alternates lookup 0 subtable" p.sc
EndChar
StartChar: q
Encoding: 113 113 603
Width: 568
GlyphClass: 2
Flags: MW
HStem: -191 21G<437 437> -9 7<212 311 212 311.5> 498 20G<438 445 445 445> 520 8<216.5 317>
VStem: 78 8<175 335.5 175 337> 437 8<-191 97 97 97 110 420 420 420 431 431>
AnchorPoint: "Anchor-14" 0 0 basechar 0
AnchorPoint: "Anchor-13" 0 0 basechar 0
AnchorPoint: "Anchor-12" 284 518 basechar 0
AnchorPoint: "Anchor-11" 0 0 basechar 0
AnchorPoint: "Anchor-10" 284 -189 basechar 0
LayerCount: 2
Back
Fore
SplineSet
438 518 m 1
 445 518 l 1xec
 445 -192 l 1
 437 -191 l 1
 437 97 l 1
 405 39 357 -9 266 -9 c 0
 153 -9 78 88 78 257 c 0
 78 417 150 528 276 528 c 0
 360 528 411 477 437 431 c 1xdc
 438 518 l 1
267 -2 m 0
 355 -2 402 45 437 110 c 1
 437 420 l 1
 409 470 358 520 276 520 c 0xdc
 157 520 86 414 86 257 c 0
 86 93 157 -2 267 -2 c 0
EndSplineSet
Substitution2: "'smcp' Lowercase to Small Capitals lookup 27 subtable" q.sc
Substitution2: "'aalt' Access All Alternates lookup 0 subtable" q.sc
EndChar

StartChar: r
Encoding: 114 114 223
Width: 361
GlyphClass: 2
Flags: MW
HStem: 0 21G 497.64 20G 520.29 7.35001
VStem: 122.86 8
AnchorPoint: "Anchor-11" 127 0 basechar 0
AnchorPoint: "Anchor-10" 0 0 basechar 0
AnchorPoint: "Anchor-9" 230 518 basechar 0
AnchorPoint: "Anchor-8" 0 0 basechar 0
LayerCount: 2
Fore
SplineSet
291.28 527.64 m 0
 312.141 527.64 326.001 525.431 338.571 522.431 c 1
 337.281 515.07 l 1
 324.281 518.29 310.642 520.29 291.281 520.29 c 0xb0
 210.741 520.29 164.472 474.69 130.861 360.601 c 1
 130.861 0.000976562 l 1
 122.861 0.000976562 l 1
 122.861 517.641 l 1
 130.001 517.641 l 1xd0
 130.211 379.521 l 1
 162.161 484.83 210.431 527.64 291.28 527.64 c 0
EndSplineSet
Substitution2: "'smcp' Lowercase to Small Capitals lookup 24 subtable" r.sc
Substitution2: "'aalt' Access All Alternates lookup 0 subtable" r.sc
EndChar

StartChar: s
Encoding: 115 115 227
Width: 458
GlyphClass: 2
Flags: MW
HStem: -9.21001 7.57001 520.07 7.57001
VStem: 75.28 8.22 381.79 8.21001
AnchorPoint: "Anchor-11" 229 0 basechar 0
AnchorPoint: "Anchor-10" 0 0 basechar 0
AnchorPoint: "Anchor-9" 234 518 basechar 0
AnchorPoint: "Anchor-8" 0 0 basechar 0
LayerCount: 2
Fore
SplineSet
225.5 527.64 m 0
 289.64 527.64 333.499 509.641 375.429 474.57 c 1
 370.778 468.5 l 1
 328.929 503.29 287.999 520.07 225.709 520.07 c 0
 147.139 520.07 83.499 473.221 83.499 403.721 c 0
 83.499 339.221 124.639 308.721 232.499 278.57 c 0
 347.349 246.57 389.999 216.5 389.999 131.07 c 0
 389.999 45.0703 320.569 -9.20996 227.209 -9.20996 c 0
 147.569 -9.20996 99.709 19 57.8594 56.79 c 1
 62.499 62.6396 l 1
 104.789 24.8594 149.929 -1.64062 227.219 -1.64062 c 0
 315.289 -1.64062 381.789 48.7891 381.789 131.069 c 0
 381.789 213.289 341.139 240.069 228.709 271.859 c 0
 118.709 302.43 75.2793 335.069 75.2793 403.93 c 0
 75.2793 477 142.35 527.64 225.5 527.64 c 0
EndSplineSet
Substitution2: "'smcp' Lowercase to Small Capitals lookup 24 subtable" s.sc
Substitution2: "'aalt' Access All Alternates lookup 0 subtable" s.sc
EndChar

StartChar: t
Encoding: 116 116 234
Width: 323
GlyphClass: 2
Flags: MW
HStem: -9.22 7.58 510.28 7.36
VStem: 115.5 8
AnchorPoint: "Anchor-11" 224 0 basechar 0
AnchorPoint: "Anchor-10" 0 0 basechar 0
AnchorPoint: "Anchor-9" 0 0 basechar 0
AnchorPoint: "Anchor-8" 0 0 basechar 0
LayerCount: 2
Fore
SplineSet
317.43 19.21 m 1
 291.58 3.57031 263.071 -9.21777 221.281 -9.21777 c 0
 155.001 -9.21777 115.501 34.3525 115.501 114.072 c 2
 115.501 510.282 l 1
 28.9209 510.282 l 1
 28.9209 517.643 l 1
 115.501 517.643 l 1
 115.501 650.782 l 1
 123.501 651.422 l 1
 123.501 517.642 l 1
 268.851 517.642 l 1
 267.78 510.281 l 1
 123.5 510.281 l 1
 123.5 114.501 l 2
 123.5 40.4307 158.78 -1.63965 221.71 -1.63965 c 0
 262 -1.63965 290 10.71 313.64 25.71 c 1
 317.43 19.21 l 1
EndSplineSet
Substitution2: "'smcp' Lowercase to Small Capitals lookup 24 subtable" t.sc
Substitution2: "'aalt' Access All Alternates lookup 0 subtable" t.sc
EndChar
StartChar: v
Encoding: 118 118 690
Width: 439
GlyphClass: 2
Flags: MW
HStem: 0 7<225 225 225 230 220 225> 498 20G<28 37 37 37 402 411 411 411>
VStem: 28 383<518 518>
AnchorPoint: "Anchor-14" 0 0 basechar 0
AnchorPoint: "Anchor-13" 0 0 basechar 0
AnchorPoint: "Anchor-12" 220 518 basechar 0
AnchorPoint: "Anchor-11" 0 0 basechar 0
AnchorPoint: "Anchor-10" 225 0 basechar 0
LayerCount: 2
Back
Fore
SplineSet
411 518 m 1
 230 0 l 1
 220 0 l 1
 28 518 l 1
 37 518 l 1
 225 7 l 1
 402 518 l 1
 411 518 l 1
EndSplineSet
Substitution2: "'smcp' Lowercase to Small Capitals lookup 27 subtable" v.sc
Substitution2: "'aalt' Access All Alternates lookup 0 subtable" v.sc
EndChar
StartChar: w
Encoding: 119 119 694
Width: 674
GlyphClass: 2
Flags: MW
HStem: 0 8<183 183 183 188 178 183> 510 8<338 338>
VStem: 38 599<518 518>
AnchorPoint: "Anchor-14" 0 0 basechar 0
AnchorPoint: "Anchor-13" 0 0 basechar 0
AnchorPoint: "Anchor-12" 337 518 basechar 0
AnchorPoint: "Anchor-11" 0 0 basechar 0
AnchorPoint: "Anchor-10" 338 0 basechar 0
LayerCount: 2
Back
Fore
SplineSet
637 518 m 1
 497 0 l 1
 487 0 l 1
 338 510 l 1
 188 0 l 1
 178 0 l 1
 38 518 l 1
 47 518 l 1
 183 8 l 1
 333 518 l 1
 342 518 l 1
 492 8 l 1
 628 518 l 1
 637 518 l 1
EndSplineSet
Substitution2: "'smcp' Lowercase to Small Capitals lookup 27 subtable" w.sc
Substitution2: "'aalt' Access All Alternates lookup 0 subtable" w.sc
EndChar
StartChar: x
Encoding: 120 120 702
Width: 427
GlyphClass: 2
Flags: MW
HStem: 0 21G<23 32 23 23 395 404 395 395> 498 20G<49 59 59 59 368 377 377 377>
VStem: 23 381<0 0>
AnchorPoint: "Anchor-14" 0 0 basechar 0
AnchorPoint: "Anchor-13" 0 0 basechar 0
AnchorPoint: "Anchor-12" 214 518 basechar 0
AnchorPoint: "Anchor-11" 0 0 basechar 0
AnchorPoint: "Anchor-10" 213 0 basechar 0
LayerCount: 2
Back
Fore
SplineSet
216 278 m 1
 404 0 l 1
 395 0 l 1
 212 273 l 1
 32 0 l 1
 23 0 l 1
 207 278 l 1
 49 518 l 1
 59 518 l 1
 212 283 l 1
 368 518 l 1
 377 518 l 1
 216 278 l 1
EndSplineSet
Substitution2: "'smcp' Lowercase to Small Capitals lookup 27 subtable" x.sc
Substitution2: "'sups' Superscript lookup 14 subtable" uni02E3
AlternateSubs2: "'aalt' Access All Alternates lookup 1 subtable" uni02E3 x.sc
EndChar

StartChar: y
Encoding: 121 121 257
Width: 437
GlyphClass: 2
Flags: MW
HStem: -190.72 21G -0.00999451 21G 497.64 20G
VStem: 27.85 381.29
AnchorPoint: "Anchor-11" 0 0 basechar 0
AnchorPoint: "Anchor-10" 0 0 basechar 0
AnchorPoint: "Anchor-9" 217 518 basechar 0
AnchorPoint: "Anchor-8" 0 0 basechar 0
LayerCount: 2
Fore
SplineSet
230.07 -0.429688 m 2
 190.851 -113.08 166.07 -160.289 60.3506 -190.719 c 1
 59.501 -184.009 l 1
 161.931 -153.789 183.931 -109.439 222.501 -0.00976562 c 1
 218.351 -0.00976562 l 1
 27.8506 517.641 l 1
 36.501 517.641 l 1
 224.431 4.9209 l 1
 400.28 517.641 l 1
 409.141 517.641 l 1
 230.07 -0.429688 l 2
EndSplineSet
Substitution2: "'smcp' Lowercase to Small Capitals lookup 24 subtable" y.sc
Substitution2: "'aalt' Access All Alternates lookup 0 subtable" y.sc
EndChar

StartChar: z
Encoding: 122 122 262
Width: 410
GlyphClass: 2
Flags: MW
HStem: 0 7.57001 510.07 7.57001
VStem: 33.93 10.5 360.78 10.29
AnchorPoint: "Anchor-11" 0 0 basechar 0
AnchorPoint: "Anchor-10" 0 0 basechar 0
AnchorPoint: "Anchor-9" 215 518 basechar 0
AnchorPoint: "Anchor-8" 0 0 basechar 0
LayerCount: 2
Fore
SplineSet
371.07 510.71 m 1
 44.4307 7.57031 l 1
 361.141 7.57031 l 1
 360.501 0 l 1
 33.9307 -0 l 1
 33.9307 6.92969 l 1
 360.78 510.069 l 1
 63.6406 510.069 l 1
 63.6406 517.64 l 1
 371.07 517.64 l 1
 371.07 510.71 l 1
EndSplineSet
Substitution2: "'smcp' Lowercase to Small Capitals lookup 24 subtable" z.sc
Substitution2: "'aalt' Access All Alternates lookup 0 subtable" z.sc
EndChar
StartChar: braceleft
Encoding: 123 123 2140
Width: 327
Flags: MW
HStem: 345 8<72 94.5>
VStem: 72 8 149 7<-16 -15 -15 267 429 431 431 713>
LayerCount: 2
Back
Fore
SplineSet
235 811 m 1
 235 805 l 1
 184 805 156 777 156 713 c 2
 156 431 l 2
 156 378 129 351 80 349 c 1
 129 347 156 320 156 267 c 2
 156 -15 l 2
 156 -79 184 -107 235 -107 c 1
 235 -113 l 1
 182 -113 149 -86 149 -16 c 2
 149 270 l 2
 149 322 117 345 72 345 c 1
 72 353 l 1
 117 353 149 376 149 429 c 2
 149 714 l 2
 149 784 182 811 235 811 c 1
EndSplineSet
Substitution2: "'case' Case-Sensitive Forms lookup 28 subtable" braceleft.case
Substitution2: "'aalt' Access All Alternates lookup 0 subtable" braceleft.case
EndChar

StartChar: bar
Encoding: 124 124 1216
Width: 418
Flags: MW
HStem: -97.43 897.85
VStem: 204.93 8
LayerCount: 2
Fore
SplineSet
212.93 -97.4297 m 1
 204.93 -97.4297 l 1
 204.93 800.42 l 1
 212.93 800.42 l 1
 212.93 -97.4297 l 1
EndSplineSet
EndChar
StartChar: braceright
Encoding: 125 125 2141
Width: 327
Flags: MW
HStem: 345 8<232 255>
VStem: 170 8<-15 267 267 270 431 713 713 714> 246 9
LayerCount: 2
Back
Fore
SplineSet
92 811 m 1
 144 811 178 784 178 714 c 2
 178 429 l 2
 178 376 209 353 255 353 c 1
 255 345 l 1
 209 345 178 322 178 270 c 2
 178 -16 l 2
 178 -86 144 -113 92 -113 c 1
 92 -107 l 1
 143 -107 170 -79 170 -15 c 2
 170 267 l 2
 170 320 198 347 246 349 c 1
 198 351 170 378 170 431 c 2
 170 713 l 2
 170 777 143 805 92 805 c 1
 92 811 l 1
EndSplineSet
Substitution2: "'case' Case-Sensitive Forms lookup 28 subtable" braceright.case
Substitution2: "'aalt' Access All Alternates lookup 0 subtable" braceright.case
EndChar

StartChar: asciitilde
Encoding: 126 126 1087
Width: 455
Flags: MW
HStem: 289.14 59.86
VStem: 82.28 290.28
LayerCount: 2
Fore
SplineSet
156.35 349 m 0
 206.489 349 253.482 294 300.702 294 c 0
 335.052 294 356.702 315.5 369.842 338.14 c 1
 372.562 335.569 l 1
 356.991 309.789 335.991 289.139 300.701 289.139 c 0
 252.201 289.139 204.131 344.139 156.351 344.139 c 0
 122.351 344.139 100.49 322.639 84.9902 299.999 c 1
 82.2803 302.569 l 1
 100.21 328.35 121.42 349 156.35 349 c 0
EndSplineSet
Substitution2: "'onum' Oldstyle Figures lookup 22 subtable" asciitilde.osf
Substitution2: "'tnum' Tabular Numbers lookup 21 subtable" asciitilde.tf
AlternateSubs2: "'aalt' Access All Alternates lookup 1 subtable" asciitilde.tf asciitilde.osf
EndChar
StartChar: exclamdown
Encoding: 161 161 2123
Width: 235
Flags: MW
HStem: -189 21G<114 122 114 114> 419 24<114 121.5>
VStem: 114 8<-189 253 -189 253>
LayerCount: 2
Back
Fore
SplineSet
118 443 m 0
 125 443 130 438 130 431 c 0
 130 425 125 419 118 419 c 0
 110 419 106 425 106 431 c 0
 106 438 110 443 118 443 c 0
122 253 m 1
 122 -189 l 1
 114 -189 l 1
 114 253 l 1
 122 253 l 1
EndSplineSet
Substitution2: "'case' Case-Sensitive Forms lookup 28 subtable" exclamdown.case
Substitution2: "'aalt' Access All Alternates lookup 0 subtable" exclamdown.case
EndChar
StartChar: cent
Encoding: 162 162 2198
Width: 468
GlyphClass: 2
Flags: MW
HStem: -9 7<274 274 281 309.5 225 311> 520 8<279 279 279 286 279 308.5>
VStem: 78 8<173 339.5 173 340> 274 7<-145 -9 -145 -9> 279 7<528 673 528 673>
LayerCount: 2
Back
Fore
SplineSet
417 44 m 1xf0
 383 13 341 -9 281 -9 c 1
 281 -145 l 1
 274 -145 l 1
 274 -9 l 1xf0
 160 -5 78 90 78 256 c 0
 78 424 154 526 279 528 c 1
 279 673 l 1
 286 673 l 1
 286 528 l 1xe8
 338 527 377 510 412 478 c 1
 407 472 l 1
 373 504 334 520 283 520 c 0
 163 520 86 423 86 256 c 0
 86 90 169 -2 281 -2 c 0
 338 -2 378 19 411 49 c 1
 417 44 l 1xf0
EndSplineSet
Substitution2: "'onum' Oldstyle Figures lookup 25 subtable" cent.osf
Substitution2: "'tnum' Tabular Numbers lookup 24 subtable" cent.tf
AlternateSubs2: "'aalt' Access All Alternates lookup 1 subtable" cent.tf cent.osf
EndChar

StartChar: sterling
Encoding: 163 163 1065
Width: 495
Flags: MW
HStem: 0 7.78 350.78 7.57001 663.28 7.57001
VStem: 67.86 13.14 147.93 8
LayerCount: 2
Fore
SplineSet
155.93 123.57 m 2
 155.93 57.3604 132.929 29.4199 80.999 7.76953 c 1
 426.209 7.76953 l 1
 425.359 -0.0107422 l 1
 67.8594 -0.0107422 l 1
 67.8594 7.55957 l 1
 123.709 30.4893 147.929 57.4189 147.929 123.129 c 2
 147.929 350.779 l 1
 89.999 350.779 l 1
 89.999 358.35 l 1
 147.929 358.35 l 1
 147.929 505.779 l 2
 147.929 597.989 195.999 670.85 296.499 670.85 c 0
 355.789 670.85 397.429 648.63 431.929 608.13 c 1
 425.858 603.28 l 1
 393.429 641.49 354.499 663.28 296.499 663.28 c 0
 201.859 663.28 155.93 594.42 155.93 505.57 c 2
 155.93 358.351 l 1
 367.859 358.351 l 1
 367.859 350.78 l 1
 155.93 350.78 l 1
 155.93 123.57 l 2
EndSplineSet
Substitution2: "'onum' Oldstyle Figures lookup 22 subtable" sterling.osf
Substitution2: "'tnum' Tabular Numbers lookup 21 subtable" sterling.tf
AlternateSubs2: "'aalt' Access All Alternates lookup 1 subtable" sterling.tf sterling.osf
EndChar
StartChar: yen
Encoding: 165 165 2238
Width: 474
GlyphClass: 2
Flags: MW
HStem: 0 21G<234 242 234 234> 179 8<105 234 105 234 242 374> 315 8<105 230 105 234 105 230 245 374>
VStem: 234 8<0 179 0 179 187 315>
LayerCount: 2
Back
Fore
SplineSet
450 660 m 1
 245 323 l 1
 374 323 l 1
 374 315 l 1
 242 315 l 1
 242 187 l 1
 374 187 l 1
 374 179 l 1
 242 179 l 1
 242 0 l 1
 234 0 l 1
 234 179 l 1
 105 179 l 1
 105 187 l 1
 234 187 l 1
 234 315 l 1
 105 315 l 1
 105 323 l 1
 230 323 l 1
 24 660 l 1
 34 660 l 1
 238 324 l 1
 440 660 l 1
 450 660 l 1
EndSplineSet
Substitution2: "'onum' Oldstyle Figures lookup 25 subtable" yen.osf
Substitution2: "'tnum' Tabular Numbers lookup 24 subtable" yen.tf
AlternateSubs2: "'aalt' Access All Alternates lookup 1 subtable" yen.tf yen.osf
EndChar
StartChar: brokenbar
Encoding: 166 166 2371
Width: 418
GlyphClass: 2
Flags: MW
HStem: -97 897<205 213 205 213>
VStem: 205 8<-97 262 -97 262 443 800>
LayerCount: 2
Back
Fore
SplineSet
213 800 m 1
 213 443 l 1
 205 443 l 1
 205 800 l 1
 213 800 l 1
213 262 m 1
 213 -97 l 1
 205 -97 l 1
 205 262 l 1
 213 262 l 1
EndSplineSet
EndChar

StartChar: section
Encoding: 167 167 1223
Width: 531
Flags: MW
HStem: -60.5 7.57001 663.07 7.57001
VStem: 106.78 8.2 132.21 8.21001 392.99 8.22 416.2 8.22
LayerCount: 2
Fore
SplineSet
340.9 157.04 m 1
 384.28 133.34 399.609 106.052 401.209 61.4316 c 1
 401.209 -12.8584 341.279 -60.498 259.919 -60.498 c 0
 198.419 -60.498 153.989 -46.6484 111.14 -18.6484 c 1
 116.14 -11.9287 l 1
 156.35 -39.9287 200.569 -52.9287 259.919 -52.9287 c 0
 337.779 -52.9287 392.989 -8.3584 392.989 60.9912 c 1
 390.64 121.852 363.569 148.201 256.999 182.852 c 1
 151.349 218.491 106.778 246.491 106.778 321.211 c 0xfc
 106.778 373.741 135.809 413.941 197.519 453.781 c 1
 147.629 480.121 132.209 507.591 132.209 550.501 c 0
 132.209 624.351 198.999 670.641 271.779 670.641 c 0
 329.35 670.641 368.569 656.351 412.14 629.57 c 1
 407.92 623.07 l 1
 364.92 650.07 326.35 663.07 271.569 663.07 c 0
 201.35 663.07 140.42 618.07 140.42 550.71 c 0
 140.42 492.57 168.92 465.851 281.71 427.07 c 0
 385.99 390.851 424.42 358.001 424.42 284.211 c 0
 424.42 227.471 392.07 187.271 340.9 157.04 c 1
114.989 321.432 m 0xf4
 114.989 252.781 151.979 225.854 258.699 189.783 c 0
 289.749 179.883 314.529 170.493 334.14 160.583 c 1
 384.449 189.513 416.199 227.793 416.199 284.003 c 0
 416.199 353.713 382.699 383.933 279.979 420.143 c 0
 249.069 430.643 224.159 440.452 204.249 450.332 c 1
 142.979 410.762 114.989 373.271 114.989 321.432 c 0xf4
EndSplineSet
Substitution2: "'onum' Oldstyle Figures lookup 22 subtable" section.osf
Substitution2: "'tnum' Tabular Numbers lookup 21 subtable" section.tf
AlternateSubs2: "'aalt' Access All Alternates lookup 1 subtable" section.tf section.osf
EndChar
StartChar: dieresis
Encoding: 168 168 2529
Width: 235
Flags: MW
HStem: 677 20<37 43.5 191 197.5>
VStem: 30 174<684.5 690>
LayerCount: 2
Back
Fore
SplineSet
40 697 m 0
 47 697 50 693 50 687 c 0
 50 682 47 677 40 677 c 0
 34 677 30 682 30 687 c 0
 30 693 34 697 40 697 c 0
194 697 m 0
 201 697 204 693 204 687 c 0
 204 682 201 677 194 677 c 0
 188 677 184 682 184 687 c 0
 184 693 188 697 194 697 c 0
EndSplineSet
Substitution2: "Single Substitution lookup 41 subtable" dieresis.case
Substitution2: "'case' Case-Sensitive Forms lookup 28 subtable" dieresis.case
Substitution2: "'smcp' Lowercase to Small Capitals lookup 27 subtable" dieresis.sc
Substitution2: "'c2sc' Capitals to Small Capitals lookup 26 subtable" dieresis.sc
AlternateSubs2: "'aalt' Access All Alternates lookup 1 subtable" dieresis.sc dieresis.case
EndChar
StartChar: copyright
Encoding: 169 169 2375
Width: 810
GlyphClass: 2
Flags: MW
HStem: 156 7<329 481 329 483> 269 8<371.5 426 371.5 426.5> 596 7<380 423> 707 7<329 481>
VStem: 135 8<354 514.5 354 516> 276 8<386 494 386 496> 667 8<355.5 516>
LayerCount: 2
Back
Fore
SplineSet
405 714 m 0
 561 714 675 600 675 435 c 0
 675 273 561 156 405 156 c 0
 249 156 135 270 135 435 c 0
 135 597 249 714 405 714 c 0
405 707 m 0
 253 707 143 594 143 435 c 0
 143 273 253 163 405 163 c 0
 557 163 667 276 667 435 c 0
 667 597 557 707 405 707 c 0
406 603 m 0
 441 603 465 592 483 576 c 1
 479 570 l 1
 461 585 440 596 406 596 c 0
 354 596 284 551 284 437 c 0
 284 335 337 277 406 277 c 0
 446 277 471 290 490 306 c 1
 494 300 l 1
 475 284 447 269 406 269 c 0
 332 269 276 333 276 437 c 0
 276 555 350 603 406 603 c 0
EndSplineSet
EndChar

StartChar: ordfeminine
Encoding: 170 170 415
Width: 500
GlyphClass: 2
Flags: MW
HStem: 0 7.78 277.57 7.57001 506.5 7.57001 672.85 7.58
VStem: 96.29 8.44 353.87 7.99001
LayerCount: 2
Fore
SplineSet
353.86 514.07 m 1
 353.87 563.14 l 2
 353.87 631.85 326.72 672.85 244.79 672.85 c 0
 208.79 672.85 171.79 664.64 128.86 648.279 c 1
 126.15 655.43 l 1
 169.5 672 206.5 680.43 244.79 680.43 c 0
 330.5 680.43 361.86 637.5 361.86 563.78 c 2
 361.86 367.78 l 2
 361.86 313.851 370.71 293.421 402.93 283.641 c 1
 400.64 277.57 l 1
 366.43 288.11 355.01 308.21 354.71 358.54 c 1
 326.09 306.23 283.85 277.57 218 277.57 c 0
 139.57 277.57 96.29 325.71 96.29 393.57 c 0
 96.29 470.851 158.57 514.07 256.57 514.07 c 2
 353.86 514.07 l 1
218.01 285.14 m 0
 285.21 285.14 325.39 316.139 353.87 369.709 c 1
 353.87 506.499 l 1
 257.87 506.499 l 2
 163.23 506.499 104.73 466.279 104.73 393.569 c 0
 104.73 329.279 146.08 285.14 218.01 285.14 c 0
411.08 7.77832 m 1
 411.08 -0.00195312 l 1
 96.6504 -0.00195312 l 1
 96.6504 7.77832 l 1
 411.08 7.77832 l 1
EndSplineSet
EndChar

StartChar: guillemotleft
Encoding: 171 171 1034
Width: 523
Flags: MW
HStem: 80.22 416.57
VStem: 138.57 9.07001 232.72 9.07001
LayerCount: 2
Fore
SplineSet
289.78 493.21 m 1
 147.641 288.001 l 1
 290.57 83.791 l 1
 284.721 80.2207 l 1
 138.57 285.07 l 1
 138.57 290.931 l 1
 283.931 496.78 l 1
 289.78 493.21 l 1
383.931 493.221 m 1
 241.791 288.011 l 1
 384.721 83.791 l 1
 378.86 80.2207 l 1
 232.721 285.081 l 1
 232.721 290.931 l 1
 378.07 496.791 l 1
 383.931 493.221 l 1
EndSplineSet
Substitution2: "'case' Case-Sensitive Forms lookup 25 subtable" guillemotleft.case
Substitution2: "'aalt' Access All Alternates lookup 0 subtable" guillemotleft.case
EndChar
StartChar: logicalnot
Encoding: 172 172 2261
Width: 490
GlyphClass: 2
Flags: MW
HStem: 317 8<83 399 83 407>
VStem: 399 8<210 317 317 317>
LayerCount: 2
Back
Fore
SplineSet
407 325 m 1
 407 210 l 1
 399 210 l 1
 399 317 l 1
 83 317 l 1
 83 325 l 1
 407 325 l 1
EndSplineSet
Substitution2: "'onum' Oldstyle Figures lookup 25 subtable" logicalnot.osf
Substitution2: "'tnum' Tabular Numbers lookup 24 subtable" logicalnot.tf
AlternateSubs2: "'aalt' Access All Alternates lookup 1 subtable" logicalnot.tf logicalnot.osf
EndChar

StartChar: softhyphen
Encoding: 173 173 1026
Width: 400
Flags: MW
HStem: 308.43 7.57001
VStem: 82.85 234.07
LayerCount: 2
Fore
SplineSet
82.8496 316 m 1
 316.92 316 l 1
 316.92 308.43 l 1
 82.8496 308.43 l 1
 82.8496 316 l 1
EndSplineSet
Substitution2: "'case' Case-Sensitive Forms lookup 25 subtable" softhyphen.case
Substitution2: "'aalt' Access All Alternates lookup 0 subtable" softhyphen.case
EndChar
StartChar: uni00AD
Encoding: 173 173 2168
Width: 400
Flags: MW
HStem: 308 8<83 317 83 317>
VStem: 83 234<308 316 308 316>
LayerCount: 2
Back
Fore
SplineSet
83 308 m 1
 83 316 l 1
 317 316 l 1
 317 308 l 1
 83 308 l 1
EndSplineSet
Substitution2: "'case' Case-Sensitive Forms lookup 28 subtable" uni00AD.case
Substitution2: "'aalt' Access All Alternates lookup 0 subtable" uni00AD.case
EndChar

StartChar: macron
Encoding: 175 175 1259
Width: 255
Flags: MW
HStem: 687.71 7.78999
VStem: 30 195.14
LayerCount: 2
Fore
SplineSet
30 687.71 m 1
 30 695.5 l 1
 225.14 695.5 l 1
 225.14 687.71 l 1
 30 687.71 l 1
EndSplineSet
Substitution2: "'case' Case-Sensitive Forms lookup 25 subtable" macron.case
Substitution2: "'smcp' Lowercase to Small Capitals lookup 24 subtable" macron.sc
Substitution2: "'c2sc' Capitals to Small Capitals lookup 23 subtable" macron.sc
AlternateSubs2: "'aalt' Access All Alternates lookup 1 subtable" macron.sc macron.case
EndChar

StartChar: degree
Encoding: 176 176 1225
Width: 521
Flags: MW
HStem: 418 7.56 682.85 7.57001
VStem: 91.78 8.22 340.57 8.21001
LayerCount: 2
Fore
SplineSet
219.78 418 m 0
 147.21 418 91.7803 472.56 91.7803 554.71 c 0
 91.7803 632.85 146.431 690.42 219.78 690.42 c 0
 299.351 690.42 348.78 633.07 348.78 553.71 c 0
 348.78 473.43 299.351 418 219.78 418 c 0
219.78 425.56 m 0
 295.63 425.56 340.57 477.71 340.57 553.71 c 0
 340.57 628.78 295.641 682.851 219.791 682.851 c 0
 150.141 682.851 100.001 628.78 100.001 554.71 c 0
 100.001 477.71 150.931 425.56 219.78 425.56 c 0
EndSplineSet
Substitution2: "'onum' Oldstyle Figures lookup 22 subtable" degree.osf
Substitution2: "'tnum' Tabular Numbers lookup 21 subtable" degree.tf
AlternateSubs2: "'aalt' Access All Alternates lookup 1 subtable" degree.tf degree.osf
EndChar
StartChar: plusminus
Encoding: 177 177 2298
Width: 481
GlyphClass: 2
Flags: MW
HStem: 0 8<84 398 84 398> 327 8<84 237 84 237 245 398>
VStem: 237 8<171 327 171 327 335 490>
LayerCount: 2
Back
Fore
SplineSet
245 490 m 1
 245 335 l 1
 398 335 l 1
 398 327 l 1
 245 327 l 1
 245 171 l 1
 237 171 l 1
 237 327 l 1
 84 327 l 1
 84 335 l 1
 237 335 l 1
 237 490 l 1
 245 490 l 1
84 0 m 1
 84 8 l 1
 398 8 l 1
 398 0 l 1
 84 0 l 1
EndSplineSet
Substitution2: "'onum' Oldstyle Figures lookup 25 subtable" plusminus.osf
Substitution2: "'tnum' Tabular Numbers lookup 24 subtable" plusminus.tf
AlternateSubs2: "'aalt' Access All Alternates lookup 1 subtable" plusminus.tf plusminus.osf
EndChar

StartChar: twosuperior
Encoding: 178 178 970
Width: 400
Flags: MW
HStem: 319.07 7.57001 660.42 20G 727.71 7.36
VStem: 86.71 10.29 294.36 8.21001
LayerCount: 2
Fore
SplineSet
198.78 735.07 m 0
 266.641 735.07 302.57 690.071 302.57 633.001 c 0
 302.57 547.781 260.71 503.142 97 326.642 c 1
 314.78 326.642 l 1
 313.5 319.071 l 1
 86.71 319.071 l 1
 86.71 326.421 l 1
 255.43 507.351 294.359 551.141 294.359 632.57 c 0
 294.359 686.92 261.359 727.71 198.569 727.71 c 0
 151.43 727.71 121 708.71 92.5 676.21 c 1
 86 680.42 l 1
 117.28 715.92 150.57 735.07 198.78 735.07 c 0
EndSplineSet
EndChar
StartChar: uni00B2
Encoding: 178 178 2104
Width: 400
Flags: MW
HStem: 319 8<97 314> 660 20G<86 86> 728 7<175 230>
VStem: 87 10<319 327 326 327> 294 9<592 660>
LayerCount: 2
Back
Fore
SplineSet
199 735 m 0
 267 735 303 690 303 633 c 0
 303 548 261 503 97 327 c 1
 315 327 l 1
 314 319 l 1
 87 319 l 1
 87 326 l 1
 255 507 294 551 294 633 c 0
 294 687 261 728 199 728 c 0
 151 728 121 709 93 676 c 1
 86 680 l 1
 117 716 151 735 199 735 c 0
EndSplineSet
EndChar

StartChar: threesuperior
Encoding: 179 179 971
Width: 400
Flags: MW
HStem: 312.85 7.35001 534.06 7.14999 670.5 20G<92.4199 92.4199> 728.35 7.36
VStem: 299.56 8 311.14 7.99001
LayerCount: 2
Fore
SplineSet
201 735.71 m 0
 266.86 735.71 307.561 694.499 307.561 636.639 c 0xf8
 307.561 573.789 263.921 542.719 215.491 538.068 c 1
 272.991 535.288 319.131 500.858 319.131 430.929 c 0
 319.131 361.278 270.281 312.849 196.711 312.849 c 0
 146.711 312.849 112.641 328.709 80.6406 364.279 c 1
 86.4902 368.489 l 1
 118.49 333.35 150.49 320.199 196.49 320.199 c 0
 266.71 320.199 311.14 366.27 311.14 429.92 c 0xf4
 311.14 499.63 266.21 534.06 197.78 534.06 c 2
 174.71 534.06 l 1
 175.56 541.21 l 1
 198.489 541.21 l 2
 248.779 541.21 299.56 570.71 299.56 636.42 c 0
 299.56 690.92 261.989 728.35 200.779 728.35 c 0
 161.209 728.35 129.489 716 97.6396 685.64 c 1
 92.4199 690.5 l 1
 124.85 721.07 156.85 735.71 201 735.71 c 0
EndSplineSet
EndChar
StartChar: uni00B3
Encoding: 179 179 2105
Width: 400
Flags: MW
HStem: 313 7<174 232 174 233.5> 534 7<176 198 175 199> 670 20G<92 92> 728 8<181 231.5>
VStem: 300 8<605.5 663.5> 311 8<398 465>
LayerCount: 2
Back
Fore
SplineSet
201 736 m 0
 267 736 308 694 308 637 c 0xf8
 308 574 264 543 216 538 c 1
 273 535 319 501 319 431 c 0
 319 361 270 313 197 313 c 0
 147 313 113 329 81 364 c 1
 87 368 l 1
 119 333 151 320 197 320 c 0
 267 320 311 366 311 430 c 0xf4
 311 500 266 534 198 534 c 2
 175 534 l 1
 176 541 l 1
 199 541 l 2
 249 541 300 571 300 636 c 0
 300 691 262 728 201 728 c 0
 161 728 130 716 98 686 c 1
 92 690 l 1
 125 721 157 736 201 736 c 0
EndSplineSet
EndChar
StartChar: acute
Encoding: 180 180 2511
Width: 234
Flags: MW
HStem: 660 91
VStem: 30 173<666 742>
LayerCount: 2
Back
Fore
SplineSet
200 751 m 1
 203 742 l 1
 33 660 l 1
 30 666 l 1
 200 751 l 1
EndSplineSet
Substitution2: "Single Substitution lookup 41 subtable" acute.case
Substitution2: "'case' Case-Sensitive Forms lookup 28 subtable" acute.case
Substitution2: "'smcp' Lowercase to Small Capitals lookup 27 subtable" acute.sc
Substitution2: "'c2sc' Capitals to Small Capitals lookup 26 subtable" acute.sc
Substitution2: "'locl' Localized Forms in Latin lookup 7 subtable" acute.loclPLK
AlternateSubs2: "'aalt' Access All Alternates lookup 1 subtable" acute.loclPLK acute.sc acute.case
EndChar
StartChar: uni00B5
Encoding: 181 181 2262
Width: 581
GlyphClass: 2
Flags: MW
HStem: -191 21G<123 131 123 123> -9 7<220.5 299 220.5 300.5> 0 21G<479 479> 498 20G<123 131 131 131 443 451 451 451>
VStem: 123 8<-191 -59 85.5 136 136 518> 443 8<151 163 163 518>
LayerCount: 2
Back
Fore
SplineSet
479 0 m 1
 471 -1 l 1xbc
 456 43 446 85 444 139 c 1
 408 54 346 -9 255 -9 c 0
 184 -9 141 26 130 94 c 1
 131 28 131 -13 131 -59 c 2
 131 -191 l 1
 123 -191 l 1
 123 518 l 1
 131 518 l 1
 131 136 l 2
 131 35 186 -2 255 -2 c 0xdc
 343 -2 406 62 443 151 c 1
 443 518 l 1
 451 518 l 1
 451 163 l 2
 451 97 462 48 479 0 c 1
EndSplineSet
EndChar

StartChar: paragraph
Encoding: 182 182 1220
Width: 684
Flags: MW
HStem: -190.65 21G 672.85 7.36
VStem: 338 8 492.28 8
LayerCount: 2
Fore
SplineSet
500.28 681.21 m 1
 500.281 -190.651 l 1
 492.281 -191.932 l 1
 492.281 673.639 l 1
 346.001 672.849 l 1
 346.001 -190.651 l 1
 338.001 -191.932 l 1
 338.001 310.299 l 1
 180.831 311.659 125.711 397.85 125.711 495.35 c 0
 125.711 613 211.001 680.21 339.431 680.21 c 2
 500.28 681.21 l 1
EndSplineSet
EndChar

StartChar: periodcentered
Encoding: 183 183 980
Width: 133
Flags: MW
HStem: 316.42 23.65
VStem: 54.5 23.86
LayerCount: 2
Fore
SplineSet
66.4297 340.07 m 0
 73.6396 340.07 78.3594 334.92 78.3594 328.14 c 0
 78.3594 321.569 73.6396 316.419 66.4297 316.419 c 0
 59.4297 316.419 54.5 321.569 54.5 328.14 c 0
 54.5 334.92 59.4297 340.07 66.4297 340.07 c 0
EndSplineSet
EndChar
StartChar: cedilla
Encoding: 184 184 2527
Width: 196
Flags: MW
HStem: -205 7<79.5 109.5 79.5 111.5> -86 83<68 79>
VStem: 70.5 7 158 8<-161.5 -123>
LayerCount: 2
Back
Fore
SplineSet
79 -3 m 1
 76 -80 l 1
 132 -81 166 -98 166 -141 c 0
 166 -186 130 -205 93 -205 c 0
 64 -205 46 -198 30 -188 c 1
 34 -182 l 1
 50 -192 66 -198 93 -198 c 0
 126 -198 158 -182 158 -141 c 0
 158 -105 131 -87 68 -86 c 1
 73 -3 l 1
 79 -3 l 1
EndSplineSet
Substitution2: "Single Substitution lookup 41 subtable" cedilla.case
Substitution2: "'case' Case-Sensitive Forms lookup 28 subtable" cedilla.case
Substitution2: "'smcp' Lowercase to Small Capitals lookup 27 subtable" cedilla.sc
Substitution2: "'c2sc' Capitals to Small Capitals lookup 26 subtable" cedilla.sc
AlternateSubs2: "'aalt' Access All Alternates lookup 1 subtable" cedilla.sc cedilla.case
EndChar

StartChar: onesuperior
Encoding: 185 185 969
Width: 400
Flags: MW
HStem: 719.42 9.08
VStem: 249 7.78
LayerCount: 2
Fore
SplineSet
256.78 319.07 m 1
 249.001 319.069 l 1
 249.001 719.419 l 1
 133.351 649.569 l 1
 129.351 655.85 l 1
 250.28 728.5 l 1
 256.78 728.5 l 1
 256.78 319.07 l 1
EndSplineSet
EndChar
StartChar: uni00B9
Encoding: 185 185 2103
Width: 400
Flags: MW
HStem: 719 9<249 257>
VStem: 249 8<319 719 719 719>
LayerCount: 2
Back
Fore
SplineSet
257 728 m 1
 257 319 l 1
 249 319 l 1
 249 719 l 1
 134 650 l 1
 130 656 l 1
 251 728 l 1
 257 728 l 1
EndSplineSet
EndChar

StartChar: ordmasculine
Encoding: 186 186 416
Width: 500
GlyphClass: 2
Flags: MW
HStem: 0 7.78 277.57 7.57001 672.86 7.57001
VStem: 87.21 8.42 402.92 9
LayerCount: 2
Fore
SplineSet
250.35 680.43 m 0
 349.85 680.43 411.92 608.279 411.92 481.779 c 0
 411.92 351.779 348.64 277.569 248.569 277.569 c 0
 148.279 277.569 87.209 352.779 87.209 478.999 c 0
 87.209 607.779 152.069 680.43 250.35 680.43 c 0
250.569 672.859 m 0
 156.93 672.859 95.6309 604.649 95.6309 478.999 c 0
 95.6309 357.359 153.351 285.14 248.78 285.14 c 0
 344.21 285.14 402.92 355.359 402.92 481.789 c 0
 402.92 602.859 345.64 672.859 250.569 672.859 c 0
92.3506 7.78906 m 1
 406.78 7.78906 l 1
 406.78 0.00878906 l 1
 92.3506 0.00878906 l 1
 92.3506 7.78906 l 1
EndSplineSet
EndChar
StartChar: guillemotright
Encoding: 187 187 2176
Width: 516
Flags: MW
HStem: 80 417<103 103 103 274>
VStem: 240 9<288 288> 411 9<288 288>
LayerCount: 2
Back
Fore
SplineSet
274 497 m 1
 420 291 l 1
 420 285 l 1
 274 80 l 1
 268 84 l 1
 411 288 l 1
 268 493 l 1
 274 497 l 1
103 497 m 1
 249 291 l 1
 249 285 l 1
 103 80 l 1
 97 84 l 1
 240 288 l 1
 98 493 l 1
 103 497 l 1
EndSplineSet
Substitution2: "'case' Case-Sensitive Forms lookup 28 subtable" guillemotright.case
Substitution2: "'aalt' Access All Alternates lookup 0 subtable" guillemotright.case
EndChar
StartChar: onequarter
Encoding: 188 188 2060
Width: 878
Flags: MW
HStem: 0 21G<741 749 741 741> 118 8<554 741 546 546 749 809> 671 9<225 233> 713 20G<645 645> 716 20G<638 638>
VStem: 225 8<271 671 671 671> 546 8<118 126 126 126> 741 8<0 118 0 118>
LayerCount: 2
Back
Fore
SplineSet
638 736 m 1xed
 645 733 l 1xf7
 240 -67 l 1
 233 -64 l 1
 638 736 l 1xed
233 271 m 1
 225 271 l 1
 225 671 l 1
 110 602 l 1
 106 608 l 1
 227 680 l 1
 233 680 l 1
 233 271 l 1
809 126 m 1
 809 118 l 1
 749 118 l 1
 749 0 l 1
 741 0 l 1
 741 118 l 1
 546 118 l 1
 546 126 l 1
 681 417 l 1
 688 414 l 1
 554 126 l 1
 741 126 l 1
 742 259 l 1
 749 259 l 1
 749 126 l 1
 809 126 l 1
EndSplineSet
EndChar
StartChar: onehalf
Encoding: 189 189 2057
Width: 878
Flags: MW
HStem: 0 8<575 792> 409 7<653 708> 671 9<225 233> 713 20G<645 645> 716 20G<638 638>
VStem: 225 8<271 671 671 671> 565 10<0 8 7 8> 772 9<273 341>
LayerCount: 2
Back
Fore
SplineSet
638 736 m 1xed
 645 733 l 1xf7
 240 -67 l 1
 233 -64 l 1
 638 736 l 1xed
233 680 m 1
 233 271 l 1
 225 271 l 1
 225 671 l 1
 110 602 l 1
 106 608 l 1
 227 680 l 1
 233 680 l 1
677 416 m 0
 745 416 781 371 781 314 c 0
 781 229 739 184 575 8 c 1
 793 8 l 1
 792 0 l 1
 565 0 l 1
 565 7 l 1
 733 188 772 232 772 314 c 0
 772 368 739 409 677 409 c 0
 629 409 599 390 571 357 c 1
 564 361 l 1
 595 397 629 416 677 416 c 0
EndSplineSet
EndChar
StartChar: threequarters
Encoding: 190 190 2061
Width: 878
Flags: MW
HStem: 0 21G<741 749 741 741> 118 8<554 741 546 546 749 809> 265 7<174 232 174 233.5> 486 7<176 198 175 199> 680 8<181 231.5> 713 20G<645 645> 716 20G<638 638>
VStem: 300 8<557.5 615.5> 311 8<350 417> 546 8<118 126 126 126> 741 8<0 118 0 118>
LayerCount: 2
Back
Fore
SplineSet
638 736 m 1xfaa0
 645 733 l 1xfca0
 240 -67 l 1
 233 -64 l 1
 638 736 l 1xfaa0
319 383 m 0
 319 313 270 265 197 265 c 0
 147 265 113 281 81 316 c 1
 87 320 l 1
 119 285 151 272 197 272 c 0
 267 272 311 318 311 382 c 0xfaa0
 311 452 266 486 198 486 c 2
 175 486 l 1
 176 493 l 1
 199 493 l 2
 249 493 300 523 300 588 c 0
 300 643 262 680 201 680 c 0
 161 680 130 668 98 638 c 1
 92 642 l 1
 125 673 157 688 201 688 c 0
 267 688 308 646 308 589 c 0xfb20
 308 526 264 495 216 490 c 1
 273 487 319 453 319 383 c 0
809 126 m 1xfae0
 809 118 l 1
 749 118 l 1
 749 0 l 1
 741 0 l 1
 741 118 l 1
 546 118 l 1
 546 126 l 1
 681 417 l 1
 688 414 l 1
 554 126 l 1
 741 126 l 1
 742 259 l 1
 749 259 l 1
 749 126 l 1
 809 126 l 1xfae0
EndSplineSet
EndChar

StartChar: questiondown
Encoding: 191 191 990
Width: 446
Flags: MW
HStem: -193.49 7.56
VStem: 65.72 8.42999 250.29 7.78999
LayerCount: 2
Fore
SplineSet
253.86 430.43 m 0
 252.931 430.43 252.931 430.859 252.931 431.359 c 0
 252.931 431.64 252.931 432.069 253.86 432.069 c 0
 254.57 432.069 254.79 431.64 254.79 431.359 c 0
 254.79 430.859 254.57 430.43 253.86 430.43 c 0
211.71 -193.5 m 0
 126.28 -193.5 65.7188 -136.781 65.7188 -68.2109 c 0
 65.7188 76.6494 250.289 58.1494 250.289 213.789 c 2
 250.289 254.149 l 1
 258.079 254.149 l 1
 258.079 213.149 l 2
 258.079 52.9297 74.1494 73.2197 74.1494 -68.21 c 0
 74.1494 -133.86 130.999 -185.931 211.719 -185.931 c 0
 279.929 -185.931 328.999 -159.57 373.859 -106.79 c 1
 380.14 -112 l 1
 333.64 -166.29 281.43 -193.5 211.71 -193.5 c 0
EndSplineSet
Substitution2: "'case' Case-Sensitive Forms lookup 25 subtable" questiondown.case
Substitution2: "'aalt' Access All Alternates lookup 0 subtable" questiondown.case
EndChar

StartChar: Agrave
Encoding: 192 192 6
Width: 556
GlyphClass: 2
Flags: MW
HStem: 0 21G 210 7.78 660.43 20G
VStem: 32.86 490.72
AnchorPoint: "Anchor-11" 0 0 basechar 0
AnchorPoint: "Anchor-10" 146 680 basechar 0
AnchorPoint: "Anchor-9" 278 680 basechar 0
AnchorPoint: "Anchor-8" 534 0 basechar 0
LayerCount: 2
Fore
SplineSet
365.71 768.85 m 1
 195.859 839.351 l 1
 200.069 847.78 l 1
 368.43 774.92 l 1
 365.71 768.85 l 1
440.879 210.001 m 1
 114.77 210.001 l 1
 41.0791 0.000976562 l 1
 32.8594 0.000976562 l 1
 272.579 680.431 l 1
 282.289 680.431 l 1
 523.579 0.000976562 l 1
 514.929 0.000976562 l 1
 440.879 210.001 l 1
438.13 217.781 m 1
 277.43 673.501 l 1
 117.5 217.781 l 1
 438.13 217.781 l 1
EndSplineSet
Substitution2: "'c2sc' Capitals to Small Capitals lookup 23 subtable" agrave.sc
Substitution2: "'aalt' Access All Alternates lookup 0 subtable" agrave.sc
Position2: "'cpsp' Capital Spacing lookup 0 subtable" dx=5 dy=0 dh=10 dv=0
EndChar

StartChar: Aacute
Encoding: 193 193 2
Width: 556
GlyphClass: 2
Flags: MW
HStem: 0 21G<32.8584 41.0684 32.8584 32.8584 514.929 514.929 514.929 523.568> 210 7.78999 660.43 20G
VStem: 32.86 490.71
AnchorPoint: "Anchor-11" 0 0 basechar 0
AnchorPoint: "Anchor-10" 146 680 basechar 0
AnchorPoint: "Anchor-9" 278 680 basechar 0
AnchorPoint: "Anchor-8" 534 0 basechar 0
LayerCount: 2
Fore
SplineSet
200.93 768.86 m 1
 198.209 774.93 l 1
 366.569 847.79 l 1
 370.779 839.36 l 1
 200.93 768.86 l 1
440.869 210 m 1
 114.769 210 l 1
 41.0684 0 l 1
 32.8584 -0 l 1
 272.568 680.43 l 1
 282.288 680.43 l 1
 523.568 0 l 1
 514.929 0 l 1
 440.869 210 l 1
438.129 217.79 m 1
 277.429 673.5 l 1
 117.499 217.79 l 1
 438.129 217.79 l 1
EndSplineSet
Substitution2: "'c2sc' Capitals to Small Capitals lookup 23 subtable" aacute.sc
Substitution2: "'aalt' Access All Alternates lookup 0 subtable" aacute.sc
Position2: "'cpsp' Capital Spacing lookup 0 subtable" dx=5 dy=0 dh=10 dv=0
EndChar
StartChar: Acircumflex
Encoding: 194 194 11
Width: 556
GlyphClass: 2
Flags: MW
HStem: 0 21G<33 41 33 33 515 524 515 515> 210 8<118 438 118 441 115 438> 660 20G<273 282 282 282> 847 9<277 277>
VStem: 33 491<0 0>
AnchorPoint: "Anchor-14" 0 0 basechar 0
AnchorPoint: "Anchor-13" 351 706 basechar 0
AnchorPoint: "Anchor-12" 277 856 basechar 0
AnchorPoint: "Anchor-11" 534 0 basechar 0
AnchorPoint: "Anchor-10" 278 0 basechar 0
LayerCount: 2
Back
Fore
SplineSet
277 847 m 1
 169 769 l 1
 164 774 l 1
 275 856 l 1
 280 856 l 1
 392 774 l 1
 387 769 l 1
 277 847 l 1
515 0 m 1
 441 210 l 1
 115 210 l 1
 41 0 l 1
 33 0 l 1
 273 680 l 1
 282 680 l 1
 524 0 l 1
 515 0 l 1
118 218 m 1
 438 218 l 1
 277 674 l 1
 118 218 l 1
EndSplineSet
Substitution2: "'c2sc' Capitals to Small Capitals lookup 26 subtable" acircumflex.sc
Substitution2: "'aalt' Access All Alternates lookup 0 subtable" acircumflex.sc
Position2: "'cpsp' Capital Spacing lookup 0 subtable" dx=5 dy=0 dh=10 dv=0
EndChar

StartChar: Atilde
Encoding: 195 195 10
Width: 556
GlyphClass: 2
Flags: MW
HStem: 0 21G 210 7.78 660.43 20G 811.21 48
VStem: 32.86 490.72
AnchorPoint: "Anchor-11" 0 0 basechar 0
AnchorPoint: "Anchor-10" 146 680 basechar 0
AnchorPoint: "Anchor-9" 278 680 basechar 0
AnchorPoint: "Anchor-8" 534 0 basechar 0
LayerCount: 2
Fore
SplineSet
221.57 855 m 0
 193.141 855 179.431 844.211 157.07 819.211 c 1
 154.57 820.781 l 1
 176.36 846.501 193.07 859.211 221.57 859.211 c 0
 255.86 859.211 293.29 815.431 335.86 815.431 c 0
 361.36 815.431 377.141 826.431 398.36 854.501 c 1
 400.86 852.931 l 1
 380.431 823.28 362.28 811.21 336.5 811.21 c 0
 290.71 811.21 256.36 855 221.57 855 c 0
440.88 210.001 m 1
 114.771 210.001 l 1
 41.0801 0.000976562 l 1
 32.8604 0.000976562 l 1
 272.58 680.431 l 1
 282.29 680.431 l 1
 523.58 0.000976562 l 1
 514.93 0.000976562 l 1
 440.88 210.001 l 1
438.131 217.781 m 1
 277.431 673.501 l 1
 117.501 217.781 l 1
 438.131 217.781 l 1
EndSplineSet
Substitution2: "'c2sc' Capitals to Small Capitals lookup 23 subtable" atilde.sc
Substitution2: "'aalt' Access All Alternates lookup 0 subtable" atilde.sc
Position2: "'cpsp' Capital Spacing lookup 0 subtable" dx=5 dy=0 dh=10 dv=0
EndChar

StartChar: Aring
Encoding: 197 197 9
Width: 556
GlyphClass: 2
Flags: MW
HStem: 0 21G<32.8613 41.0811 32.8613 32.8613 514.931 514.931 514.931 523.581> 210 7.78 660.43 20G 777.78 135.79
VStem: 212.64 7.78999 340.71 7.78999
AnchorPoint: "Anchor-11" 0 0 basechar 0
AnchorPoint: "Anchor-10" 146 680 basechar 0
AnchorPoint: "Anchor-9" 278 680 basechar 0
AnchorPoint: "Anchor-8" 534 0 basechar 0
LayerCount: 2
Fore
SplineSet
280.57 777.78 m 0
 237.431 777.78 212.641 805.28 212.641 845.28 c 0
 212.641 886.07 239.001 913.57 280.571 913.57 c 0
 323.711 913.57 348.501 886.07 348.501 846.07 c 0
 348.501 805.28 322.141 777.78 280.57 777.78 c 0
280.57 906.851 m 0
 242.79 906.851 220.431 881.71 220.431 845.28 c 0
 220.431 808.061 242.001 784.49 280.571 784.49 c 0
 318.361 784.49 340.711 809.641 340.711 846.07 c 0
 340.711 883.28 319.141 906.851 280.57 906.851 c 0
440.881 210 m 1
 114.771 210 l 1
 41.0811 0 l 1
 32.8613 -0 l 1
 272.581 680.43 l 1
 282.291 680.43 l 1
 523.581 0 l 1
 514.931 0 l 1
 440.881 210 l 1
438.132 217.78 m 1
 277.432 673.5 l 1
 117.502 217.78 l 1
 438.132 217.78 l 1
EndSplineSet
Substitution2: "'c2sc' Capitals to Small Capitals lookup 23 subtable" aring.sc
Substitution2: "'aalt' Access All Alternates lookup 0 subtable" aring.sc
Position2: "'cpsp' Capital Spacing lookup 0 subtable" dx=5 dy=0 dh=10 dv=0
EndChar

StartChar: Ccedilla
Encoding: 199 199 17
Width: 532
GlyphClass: 2
Flags: MW
HStem: -205.02 7.36 -188.37 21G -9.22 8 -9.12 7.89999 682.63 7.78999
VStem: 82.85 8.42999 331.5 7.08 419.14 8.21001
AnchorPoint: "Anchor-11" 341 0 basechar 0
AnchorPoint: "Anchor-10" 0 0 basechar 0
AnchorPoint: "Anchor-9" 343 680 basechar 0
AnchorPoint: "Anchor-8" 0 0 basechar 0
LayerCount: 2
Fore
SplineSet
337.14 -79.6504 m 1x6f
 393.64 -81.29 427.352 -98.2285 427.352 -140.799 c 0
 427.352 -186.449 391.642 -205.02 354.642 -205.02 c 0
 324.991 -205.02 307.711 -198.369 291.491 -188.369 c 1
 295.062 -181.869 l 1
 311.212 -192.229 327.852 -197.659 354.642 -197.659 c 0
 387.422 -197.659 419.142 -182.439 419.142 -140.8 c 0
 419.142 -104.87 392.922 -86.9404 329.352 -85.9404 c 1
 333.651 -9.12012 l 1
 184.951 -5.12012 82.8516 117.31 82.8516 339.42 c 0
 82.8516 576.99 192.071 690.42 342.642 690.42 c 0
 416.852 690.42 460.281 665.06 497.211 632.989 c 1
 492.781 626.709 l 1
 455.211 658.779 413.711 682.629 343.071 682.629 c 0
 197.711 682.629 91.2812 573.489 91.2812 339.419 c 0
 91.2812 117.349 194.711 -1.22168 341.431 -1.22168 c 0xdf
 421.141 -1.22168 467.211 29.0586 501.141 57.5586 c 1
 506.001 51.0586 l 1
 471.431 21.709 422.36 -9.2207 341.21 -9.2207 c 2
 340.02 -9.2207 l 1
 337.14 -79.6504 l 1x6f
EndSplineSet
Substitution2: "'c2sc' Capitals to Small Capitals lookup 23 subtable" ccedilla.sc
Substitution2: "'aalt' Access All Alternates lookup 0 subtable" ccedilla.sc
Position2: "'cpsp' Capital Spacing lookup 0 subtable" dx=5 dy=0 dh=10 dv=0
EndChar

StartChar: Eacute
Encoding: 201 201 25
Width: 495
GlyphClass: 2
Flags: MW
HStem: 0 7.78999 356.79 7.57001 672.65 7.78
VStem: 127.86 8.21001
AnchorPoint: "Anchor-11" 284 0 basechar 0
AnchorPoint: "Anchor-10" 82 680 basechar 0
AnchorPoint: "Anchor-9" 285 680 basechar 0
AnchorPoint: "Anchor-8" 428 0 basechar 0
LayerCount: 2
Fore
SplineSet
377.43 839.36 m 1
 207.57 768.859 l 1
 204.86 774.93 l 1
 373.21 847.79 l 1
 377.43 839.36 l 1
436.721 672.649 m 1
 136.07 672.641 l 1
 136.07 364.36 l 1
 394.351 364.36 l 1
 394.351 356.79 l 1
 136.07 356.79 l 1
 136.07 7.79004 l 1
 446.71 7.79004 l 1
 446.71 0 l 1
 127.86 -0 l 1
 127.86 680.43 l 1
 437.57 680.43 l 1
 436.721 672.649 l 1
EndSplineSet
Substitution2: "'c2sc' Capitals to Small Capitals lookup 23 subtable" eacute.sc
Substitution2: "'aalt' Access All Alternates lookup 0 subtable" eacute.sc
Position2: "'cpsp' Capital Spacing lookup 0 subtable" dx=5 dy=0 dh=10 dv=0
EndChar
StartChar: Ecircumflex
Encoding: 202 202 72
Width: 495
GlyphClass: 2
Flags: MW
HStem: 0 8<136 447 136 447> 357 7<136 394 136 394> 673 7<136 437 136 136> 847 9<284 284>
VStem: 128 8<8 357 364 673>
AnchorPoint: "Anchor-14" 0 0 basechar 0
AnchorPoint: "Anchor-13" 358 706 basechar 0
AnchorPoint: "Anchor-12" 284 856 basechar 0
AnchorPoint: "Anchor-11" 428 0 basechar 0
AnchorPoint: "Anchor-10" 284 0 basechar 0
LayerCount: 2
Back
Fore
SplineSet
394 769 m 1
 284 847 l 1
 176 769 l 1
 171 774 l 1
 282 856 l 1
 287 856 l 1
 399 774 l 1
 394 769 l 1
438 680 m 1
 437 673 l 1
 136 673 l 1
 136 364 l 1
 394 364 l 1
 394 357 l 1
 136 357 l 1
 136 8 l 1
 447 8 l 1
 447 0 l 1
 128 0 l 1
 128 680 l 1
 438 680 l 1
EndSplineSet
Substitution2: "'c2sc' Capitals to Small Capitals lookup 26 subtable" ecircumflex.sc
Substitution2: "'aalt' Access All Alternates lookup 0 subtable" ecircumflex.sc
Position2: "'cpsp' Capital Spacing lookup 0 subtable" dx=5 dy=0 dh=10 dv=0
EndChar
StartChar: Edieresis
Encoding: 203 203 79
Width: 495
GlyphClass: 2
Flags: MW
HStem: 0 8<136 447 136 447> 357 7<136 394 136 394> 673 7<136 437 136 136> 803 20<204 210.5 358 364.5>
VStem: 128 8<8 357 364 673>
AnchorPoint: "Anchor-14" 0 0 basechar 0
AnchorPoint: "Anchor-13" 0 0 basechar 0
AnchorPoint: "Anchor-12" 287 823 basechar 0
AnchorPoint: "Anchor-11" 428 0 basechar 0
AnchorPoint: "Anchor-10" 284 0 basechar 0
LayerCount: 2
Back
Fore
SplineSet
207 823 m 0
 214 823 217 819 217 813 c 0
 217 808 214 803 207 803 c 0
 201 803 197 808 197 813 c 0
 197 819 201 823 207 823 c 0
361 823 m 0
 368 823 371 819 371 813 c 0
 371 808 368 803 361 803 c 0
 355 803 351 808 351 813 c 0
 351 819 355 823 361 823 c 0
438 680 m 1
 437 673 l 1
 136 673 l 1
 136 364 l 1
 394 364 l 1
 394 357 l 1
 136 357 l 1
 136 8 l 1
 447 8 l 1
 447 0 l 1
 128 0 l 1
 128 680 l 1
 438 680 l 1
EndSplineSet
Substitution2: "'c2sc' Capitals to Small Capitals lookup 26 subtable" edieresis.sc
Substitution2: "'aalt' Access All Alternates lookup 0 subtable" edieresis.sc
Position2: "'cpsp' Capital Spacing lookup 0 subtable" dx=5 dy=0 dh=10 dv=0
EndChar

StartChar: Igrave
Encoding: 204 204 50
Width: 264
GlyphClass: 2
Flags: MW
HStem: 0 21G<127.85 136.069 127.85 127.85> 660.43 20G
VStem: 127.85 8.22
AnchorPoint: "Anchor-11" 0 0 basechar 0
AnchorPoint: "Anchor-10" 82 680 basechar 0
AnchorPoint: "Anchor-9" 132 680 basechar 0
AnchorPoint: "Anchor-8" 146 0 basechar 0
LayerCount: 2
Fore
SplineSet
222.07 774.93 m 1
 219.35 768.86 l 1
 49.5 839.36 l 1
 53.71 847.79 l 1
 222.07 774.93 l 1
136.069 0 m 1
 127.85 -0 l 1
 127.85 680.43 l 1
 136.069 680.43 l 1
 136.069 0 l 1
EndSplineSet
Substitution2: "'c2sc' Capitals to Small Capitals lookup 23 subtable" igrave.sc
Substitution2: "'aalt' Access All Alternates lookup 0 subtable" igrave.sc
Position2: "'cpsp' Capital Spacing lookup 0 subtable" dx=5 dy=0 dh=10 dv=0
EndChar
StartChar: Iacute
Encoding: 205 205 120
Width: 264
GlyphClass: 2
Flags: MW
HStem: 0 21G<128 136 128 128> 660 20G<128 136 136 136>
VStem: 128 8<0 680 0 680>
AnchorPoint: "Anchor-14" 0 0 basechar 0
AnchorPoint: "Anchor-13" 0 0 basechar 0
AnchorPoint: "Anchor-12" 133 848 basechar 0
AnchorPoint: "Anchor-11" 146 0 basechar 0
AnchorPoint: "Anchor-10" 132 0 basechar 0
LayerCount: 2
Back
Fore
SplineSet
212 848 m 1
 217 839 l 1
 47 769 l 1
 44 775 l 1
 212 848 l 1
136 680 m 1
 136 0 l 1
 128 0 l 1
 128 680 l 1
 136 680 l 1
EndSplineSet
Substitution2: "'c2sc' Capitals to Small Capitals lookup 26 subtable" iacute.sc
Substitution2: "'aalt' Access All Alternates lookup 0 subtable" iacute.sc
Position2: "'cpsp' Capital Spacing lookup 0 subtable" dx=5 dy=0 dh=10 dv=0
EndChar

StartChar: Icircumflex
Encoding: 206 206 47
Width: 264
GlyphClass: 2
Flags: MW
HStem: 0 21G<127.851 136.07 127.851 127.851> 660.43 20G 847.14 8.64999
VStem: 127.85 8.22
AnchorPoint: "Anchor-11" 0 0 basechar 0
AnchorPoint: "Anchor-10" 82 680 basechar 0
AnchorPoint: "Anchor-9" 132 680 basechar 0
AnchorPoint: "Anchor-8" 146 0 basechar 0
LayerCount: 2
Fore
SplineSet
131.07 847.14 m 1
 22.5 768.93 l 1
 17.71 773.569 l 1
 128.57 855.789 l 1
 133.57 855.789 l 1
 245.78 773.569 l 1
 241 768.93 l 1
 131.07 847.14 l 1
136.07 -0 m 1
 127.851 -0 l 1
 127.851 680.43 l 1
 136.07 680.43 l 1
 136.07 -0 l 1
EndSplineSet
Substitution2: "'c2sc' Capitals to Small Capitals lookup 23 subtable" icircumflex.sc
Substitution2: "'aalt' Access All Alternates lookup 0 subtable" icircumflex.sc
Position2: "'cpsp' Capital Spacing lookup 0 subtable" dx=5 dy=0 dh=10 dv=0
EndChar
StartChar: Eth
Encoding: 208 208 56
Width: 610
GlyphClass: 2
Flags: MW
HStem: 0 8<131 238> 349 8<29 123 29 123 131 326> 673 7<131 232 131 131>
VStem: 123 8<8 349 8 349 8 349 357 673> 519 8<211 485>
AnchorPoint: "Anchor-14" 306 340 basechar 0
AnchorPoint: "Anchor-13" 0 0 basechar 0
AnchorPoint: "Anchor-12" 286 680 basechar 0
AnchorPoint: "Anchor-11" 0 0 basechar 0
AnchorPoint: "Anchor-10" 303 0 basechar 0
LayerCount: 2
Back
Fore
SplineSet
232 680 m 2
 377 680 527 626 527 348 c 0
 527 67 376 0 238 0 c 2
 123 0 l 1
 123 349 l 1
 29 349 l 1
 29 357 l 1
 123 357 l 1
 123 680 l 1
 232 680 l 2
239 8 m 2
 375 8 519 74 519 348 c 0
 519 622 372 673 232 673 c 2
 131 673 l 1
 131 357 l 1
 326 357 l 1
 326 349 l 1
 131 349 l 1
 131 8 l 1
 239 8 l 2
EndSplineSet
Substitution2: "'c2sc' Capitals to Small Capitals lookup 26 subtable" eth.sc
Substitution2: "'aalt' Access All Alternates lookup 0 subtable" eth.sc
Position2: "'cpsp' Capital Spacing lookup 0 subtable" dx=5 dy=0 dh=10 dv=0
EndChar
StartChar: Ntilde
Encoding: 209 209 175
Width: 656
GlyphClass: 2
Flags: MW
HStem: 0 9<521 521 521 528 518 521> 671 9<135 135> 810 7<368 402.5 368 403.5> 853 8<262.5 293.5>
VStem: 128 8<0 546 0 680> 520 8<157 680 0 680>
AnchorPoint: "Anchor-14" 0 0 basechar 0
AnchorPoint: "Anchor-13" 0 0 basechar 0
AnchorPoint: "Anchor-12" 335 861 basechar 0
AnchorPoint: "Anchor-11" 0 0 basechar 0
AnchorPoint: "Anchor-10" 323 0 basechar 0
LayerCount: 2
Back
Fore
SplineSet
389 810 m 0
 345 810 312 853 275 853 c 0
 250 853 235 843 214 818 c 1
 208 822 l 1
 231 848 248 861 275 861 c 0
 315 861 347 817 389 817 c 0
 416 817 431 828 452 855 c 1
 457 852 l 1
 436 822 418 810 389 810 c 0
528 680 m 1
 528 0 l 1
 518 0 l 1
 135 671 l 1
 136 645 136 608 136 546 c 2
 136 0 l 1
 128 0 l 1
 128 680 l 1
 139 680 l 1
 521 9 l 1
 521 50 520 105 520 157 c 2
 520 680 l 1
 528 680 l 1
EndSplineSet
Substitution2: "'c2sc' Capitals to Small Capitals lookup 26 subtable" ntilde.sc
Substitution2: "'aalt' Access All Alternates lookup 0 subtable" ntilde.sc
Position2: "'cpsp' Capital Spacing lookup 0 subtable" dx=5 dy=0 dh=10 dv=0
EndChar

StartChar: Oacute
Encoding: 211 211 72
Width: 688
GlyphClass: 2
Flags: MW
HStem: -9.22 7.78999 682.64 7.78999
VStem: 82.86 8.42 596.35 8.42999
AnchorPoint: "Anchor-11" 0 0 basechar 0
AnchorPoint: "Anchor-10" 102 680 basechar 0
AnchorPoint: "Anchor-9" 339 680 basechar 0
AnchorPoint: "Anchor-8" 0 0 basechar 0
LayerCount: 2
Fore
SplineSet
432 839.35 m 1
 262.141 768.859 l 1
 259.431 774.93 l 1
 427.78 847.779 l 1
 432 839.35 l 1
343.431 690.43 m 0
 504.431 690.43 604.78 564.709 604.78 339.999 c 0
 604.78 119.569 510.21 -9.2207 343.43 -9.2207 c 0
 184.21 -9.2207 82.8604 117.93 82.8604 338.21 c 0
 82.8604 558.71 187.57 690.43 343.431 690.43 c 0
343.431 682.639 m 0
 192.221 682.639 91.2803 554.779 91.2803 338.209 c 0
 91.2803 122.709 189.28 -1.43066 343.42 -1.43066 c 0
 505.57 -1.43066 596.351 123.499 596.351 339.999 c 0
 596.351 559.929 499.78 682.639 343.431 682.639 c 0
EndSplineSet
Substitution2: "'c2sc' Capitals to Small Capitals lookup 23 subtable" oacute.sc
Substitution2: "'locl' Localized Forms in Latin lookup 7 subtable" Oacute.loclPLK
AlternateSubs2: "'aalt' Access All Alternates lookup 1 subtable" Oacute.loclPLK oacute.sc
Position2: "'cpsp' Capital Spacing lookup 0 subtable" dx=5 dy=0 dh=10 dv=0
EndChar

StartChar: Ocircumflex
Encoding: 212 212 74
Width: 688
GlyphClass: 2
Flags: MW
HStem: -9.22 7.78 682.64 7.78 847.14 8.64
VStem: 82.86 8.42 596.35 8.42999
AnchorPoint: "Anchor-11" 0 0 basechar 0
AnchorPoint: "Anchor-10" 102 680 basechar 0
AnchorPoint: "Anchor-9" 339 680 basechar 0
AnchorPoint: "Anchor-8" 0 0 basechar 0
LayerCount: 2
Fore
SplineSet
338.64 847.14 m 1
 230.07 768.92 l 1
 225.29 773.57 l 1
 336.14 855.78 l 1
 341.14 855.78 l 1
 453.359 773.57 l 1
 448.569 768.92 l 1
 338.64 847.14 l 1
343.431 690.42 m 0
 504.431 690.42 604.78 564.71 604.78 339.99 c 0
 604.78 119.561 510.21 -9.21973 343.43 -9.21973 c 0
 184.21 -9.21973 82.8604 117.92 82.8604 338.21 c 0
 82.8604 558.71 187.57 690.42 343.431 690.42 c 0
343.431 682.64 m 0
 192.221 682.64 91.2803 554.781 91.2803 338.211 c 0
 91.2803 122.711 189.28 -1.43945 343.42 -1.43945 c 0
 505.57 -1.43945 596.351 123.49 596.351 339.99 c 0
 596.351 559.92 499.78 682.64 343.431 682.64 c 0
EndSplineSet
Substitution2: "'c2sc' Capitals to Small Capitals lookup 23 subtable" ocircumflex.sc
Substitution2: "'aalt' Access All Alternates lookup 0 subtable" ocircumflex.sc
Position2: "'cpsp' Capital Spacing lookup 0 subtable" dx=5 dy=0 dh=10 dv=0
EndChar
StartChar: Otilde
Encoding: 213 213 214
Width: 688
GlyphClass: 2
Flags: MW
HStem: -9 8<266 424.5 266 426.5> 683 7<267.5 421.5> 810 7<379 413.5 379 414.5> 853 8<273.5 304.5>
VStem: 83 8<230.5 446.5 230.5 448.5> 596 9<232 450>
AnchorPoint: "Anchor-14" 0 0 basechar 0
AnchorPoint: "Anchor-13" 521 680 basechar 0
AnchorPoint: "Anchor-12" 346 861 basechar 0
AnchorPoint: "Anchor-11" 424 0 basechar 0
AnchorPoint: "Anchor-10" 344 0 basechar 0
LayerCount: 2
Back
Fore
SplineSet
400 810 m 0
 356 810 323 853 286 853 c 0
 261 853 246 843 225 818 c 1
 219 822 l 1
 242 848 259 861 286 861 c 0
 326 861 358 817 400 817 c 0
 427 817 442 828 463 855 c 1
 468 852 l 1
 447 822 429 810 400 810 c 0
343 690 m 0
 504 690 605 565 605 340 c 0
 605 120 510 -9 343 -9 c 0
 184 -9 83 118 83 338 c 0
 83 559 188 690 343 690 c 0
343 683 m 0
 192 683 91 555 91 338 c 0
 91 123 189 -1 343 -1 c 0
 506 -1 596 124 596 340 c 0
 596 560 500 683 343 683 c 0
EndSplineSet
Substitution2: "'c2sc' Capitals to Small Capitals lookup 26 subtable" otilde.sc
Substitution2: "'aalt' Access All Alternates lookup 0 subtable" otilde.sc
Position2: "'cpsp' Capital Spacing lookup 0 subtable" dx=5 dy=0 dh=10 dv=0
EndChar

StartChar: Odieresis
Encoding: 214 214 75
Width: 688
GlyphClass: 2
Flags: MW
HStem: -9.22 7.78999 682.64 7.78999 803.07 20.14
VStem: 82.86 8.42 596.35 8.42999
AnchorPoint: "Anchor-11" 0 0 basechar 0
AnchorPoint: "Anchor-10" 102 680 basechar 0
AnchorPoint: "Anchor-9" 339 730 basechar 0
AnchorPoint: "Anchor-8" 0 0 basechar 0
LayerCount: 2
Fore
SplineSet
261.85 823.21 m 0
 268.42 823.21 272.14 818.5 272.14 813.14 c 0
 272.14 807.79 268.42 803.07 261.85 803.07 c 0
 255.5 803.07 251.78 807.79 251.78 813.14 c 0
 251.78 818.5 255.5 823.21 261.85 823.21 c 0
416 823.21 m 0
 422.35 823.21 426.069 818.5 426.069 813.14 c 0
 426.069 807.79 422.35 803.07 416 803.07 c 0
 409.43 803.07 405.71 807.79 405.71 813.14 c 0
 405.71 818.5 409.43 823.21 416 823.21 c 0
343.43 690.43 m 0
 504.43 690.43 604.779 564.709 604.779 339.999 c 0
 604.779 119.569 510.209 -9.2207 343.429 -9.2207 c 0
 184.209 -9.2207 82.8594 117.93 82.8594 338.21 c 0
 82.8594 558.71 187.569 690.43 343.43 690.43 c 0
343.43 682.639 m 0
 192.22 682.639 91.2793 554.779 91.2793 338.209 c 0
 91.2793 122.709 189.279 -1.43066 343.419 -1.43066 c 0
 505.569 -1.43066 596.35 123.499 596.35 339.999 c 0
 596.35 559.929 499.779 682.639 343.43 682.639 c 0
EndSplineSet
Substitution2: "'c2sc' Capitals to Small Capitals lookup 23 subtable" odieresis.sc
Substitution2: "'aalt' Access All Alternates lookup 0 subtable" odieresis.sc
Position2: "'cpsp' Capital Spacing lookup 0 subtable" dx=5 dy=0 dh=10 dv=0
EndChar
StartChar: multiply
Encoding: 215 215 2266
Width: 480
GlyphClass: 2
Flags: MW
HStem: 168 279<109 109 109 371>
VStem: 103 274<173 173 173 442>
LayerCount: 2
Back
Fore
SplineSet
371 447 m 1
 377 442 l 1
 246 308 l 1
 377 173 l 1
 371 168 l 1
 240 302 l 1
 109 168 l 1
 103 173 l 1
 234 308 l 1
 103 442 l 1
 109 447 l 1
 240 313 l 1
 371 447 l 1
EndSplineSet
Substitution2: "'onum' Oldstyle Figures lookup 25 subtable" multiply.osf
Substitution2: "'tnum' Tabular Numbers lookup 24 subtable" multiply.tf
AlternateSubs2: "'aalt' Access All Alternates lookup 1 subtable" multiply.tf multiply.osf
EndChar

StartChar: Oslash
Encoding: 216 216 79
Width: 688
GlyphClass: 2
Flags: MW
HStem: -9.22 7.78999 682.64 7.78999
VStem: 82.86 8.42999 596.36 8.42999
AnchorPoint: "Anchor-11" 0 0 basechar 0
AnchorPoint: "Anchor-10" 0 0 basechar 0
AnchorPoint: "Anchor-9" 335 688 basechar 0
AnchorPoint: "Anchor-8" 0 0 basechar 0
LayerCount: 2
Fore
SplineSet
443.92 671.01 m 1
 545.09 627.729 604.789 513.31 604.789 340 c 0
 604.789 119.57 510.219 -9.21973 343.429 -9.21973 c 0
 309.858 -9.21973 278.858 -3.56934 250.839 7.4209 c 1
 217.569 -105.359 l 1
 209.359 -102.649 l 1
 243.829 10.3105 l 1
 143.169 53.7803 82.8594 168.28 82.8594 338.21 c 0
 82.8594 558.71 187.569 690.43 343.43 690.43 c 0
 377.41 690.43 408.7 684.83 436.9 673.88 c 1
 470.641 790.43 l 1
 478.86 787.71 l 1
 443.92 671.01 l 1
91.2891 338.21 m 0
 91.2891 172.21 148.97 60.4307 246.27 17.8311 c 1
 435.31 666.131 l 1
 407.699 677.051 376.959 682.641 343.429 682.641 c 0
 192.219 682.641 91.2891 554.78 91.2891 338.21 c 0
343.43 -1.42969 m 0
 505.58 -1.42969 596.36 123.501 596.36 340.001 c 0
 596.36 509.351 539.57 621.061 441.7 663.48 c 1
 252.66 15.1602 l 1
 280.04 4.20996 310.43 -1.42969 343.43 -1.42969 c 0
EndSplineSet
Substitution2: "'c2sc' Capitals to Small Capitals lookup 23 subtable" oslash.sc
Substitution2: "'aalt' Access All Alternates lookup 0 subtable" oslash.sc
Position2: "'cpsp' Capital Spacing lookup 0 subtable" dx=5 dy=0 dh=10 dv=0
EndChar

StartChar: Ugrave
Encoding: 217 217 106
Width: 636
GlyphClass: 2
Flags: MW
HStem: -9.21001 7.78 660.43 20G
VStem: 117.85 8.22 509.85 8.22
AnchorPoint: "Anchor-11" 0 0 basechar 0
AnchorPoint: "Anchor-10" 0 0 basechar 0
AnchorPoint: "Anchor-9" 323 680 basechar 0
AnchorPoint: "Anchor-8" 399 0 basechar 0
LayerCount: 2
Fore
SplineSet
412.85 774.93 m 1
 410.141 768.86 l 1
 240.28 839.36 l 1
 244.5 847.79 l 1
 412.85 774.93 l 1
518.07 206.431 m 2
 518.07 82.5703 462.711 -9.20996 318.071 -9.20996 c 0
 171.421 -9.20996 117.851 82.5703 117.851 206.431 c 2
 117.851 680.431 l 1
 126.07 680.431 l 1
 126.07 207.07 l 2
 126.07 86.79 177.5 -1.42969 318.07 -1.42969 c 0
 458.07 -1.42969 509.851 87.4307 509.851 207.07 c 2
 509.851 680.431 l 1
 518.07 680.431 l 1
 518.07 206.431 l 2
EndSplineSet
Substitution2: "'c2sc' Capitals to Small Capitals lookup 23 subtable" ugrave.sc
Substitution2: "'aalt' Access All Alternates lookup 0 subtable" ugrave.sc
Position2: "'cpsp' Capital Spacing lookup 0 subtable" dx=5 dy=0 dh=10 dv=0
EndChar

StartChar: Uacute
Encoding: 218 218 102
Width: 636
GlyphClass: 2
Flags: MW
HStem: -9.21001 7.78999 660.43 20G
VStem: 117.86 8.21001 509.86 8.21001
AnchorPoint: "Anchor-11" 0 0 basechar 0
AnchorPoint: "Anchor-10" 0 0 basechar 0
AnchorPoint: "Anchor-9" 323 680 basechar 0
AnchorPoint: "Anchor-8" 399 0 basechar 0
LayerCount: 2
Fore
SplineSet
415.21 839.36 m 1
 245.359 768.859 l 1
 242.64 774.93 l 1
 411 847.79 l 1
 415.21 839.36 l 1
518.069 206.43 m 2
 518.069 82.5801 462.72 -9.20996 318.069 -9.20996 c 0
 171.43 -9.20996 117.859 82.5801 117.859 206.43 c 2
 117.859 680.43 l 1
 126.069 680.43 l 1
 126.069 207.08 l 2
 126.069 86.79 177.499 -1.41992 318.069 -1.41992 c 0
 458.069 -1.41992 509.859 87.4297 509.859 207.08 c 2
 509.859 680.43 l 1
 518.069 680.43 l 1
 518.069 206.43 l 2
EndSplineSet
Substitution2: "'c2sc' Capitals to Small Capitals lookup 23 subtable" uacute.sc
Substitution2: "'aalt' Access All Alternates lookup 0 subtable" uacute.sc
Position2: "'cpsp' Capital Spacing lookup 0 subtable" dx=5 dy=0 dh=10 dv=0
EndChar
StartChar: Ucircumflex
Encoding: 219 219 267
Width: 636
GlyphClass: 2
Flags: MW
HStem: -9 8<248 388 248 390.5> 660 20G<118 126 126 126 510 518 518 518> 847 9<317 317>
VStem: 118 8<206 207 207 680> 510 8<207 680>
AnchorPoint: "Anchor-14" 0 0 basechar 0
AnchorPoint: "Anchor-13" 391 706 basechar 0
AnchorPoint: "Anchor-12" 317 856 basechar 0
AnchorPoint: "Anchor-11" 399 0 basechar 0
AnchorPoint: "Anchor-10" 318 0 basechar 0
LayerCount: 2
Back
Fore
SplineSet
427 769 m 1
 317 847 l 1
 209 769 l 1
 204 774 l 1
 315 856 l 1
 320 856 l 1
 432 774 l 1
 427 769 l 1
518 680 m 1
 518 206 l 2
 518 83 463 -9 318 -9 c 0
 172 -9 118 83 118 206 c 2
 118 680 l 1
 126 680 l 1
 126 207 l 2
 126 87 178 -1 318 -1 c 0
 458 -1 510 87 510 207 c 2
 510 680 l 1
 518 680 l 1
EndSplineSet
Substitution2: "'c2sc' Capitals to Small Capitals lookup 26 subtable" ucircumflex.sc
Substitution2: "'aalt' Access All Alternates lookup 0 subtable" ucircumflex.sc
Position2: "'cpsp' Capital Spacing lookup 0 subtable" dx=5 dy=0 dh=10 dv=0
EndChar
StartChar: Udieresis
Encoding: 220 220 269
Width: 636
GlyphClass: 2
Flags: MW
HStem: -9 8<248 388 248 390.5> 660 20G<118 126 126 126 510 518 518 518> 803 20<237 243.5 391 397.5>
VStem: 118 8<206 207 207 680> 510 8<207 680>
AnchorPoint: "Anchor-14" 0 0 basechar 0
AnchorPoint: "Anchor-13" 528 680 basechar 0
AnchorPoint: "Anchor-12" 320 823 basechar 0
AnchorPoint: "Anchor-11" 399 0 basechar 0
AnchorPoint: "Anchor-10" 318 0 basechar 0
LayerCount: 2
Back
Fore
SplineSet
240 823 m 0
 247 823 250 819 250 813 c 0
 250 808 247 803 240 803 c 0
 234 803 230 808 230 813 c 0
 230 819 234 823 240 823 c 0
394 823 m 0
 401 823 404 819 404 813 c 0
 404 808 401 803 394 803 c 0
 388 803 384 808 384 813 c 0
 384 819 388 823 394 823 c 0
518 680 m 1
 518 206 l 2
 518 83 463 -9 318 -9 c 0
 172 -9 118 83 118 206 c 2
 118 680 l 1
 126 680 l 1
 126 207 l 2
 126 87 178 -1 318 -1 c 0
 458 -1 510 87 510 207 c 2
 510 680 l 1
 518 680 l 1
EndSplineSet
Substitution2: "'c2sc' Capitals to Small Capitals lookup 26 subtable" udieresis.sc
Substitution2: "'aalt' Access All Alternates lookup 0 subtable" udieresis.sc
Position2: "'cpsp' Capital Spacing lookup 0 subtable" dx=5 dy=0 dh=10 dv=0
EndChar
StartChar: Yacute
Encoding: 221 221 303
Width: 484
GlyphClass: 2
Flags: MW
HStem: 0 21G<238 247 238 238> 660 20G<24 33 33 33 451 460 460 460>
VStem: 238 9<0 271 0 271>
AnchorPoint: "Anchor-14" 0 0 basechar 0
AnchorPoint: "Anchor-13" 0 0 basechar 0
AnchorPoint: "Anchor-12" 243 848 basechar 0
AnchorPoint: "Anchor-11" 0 0 basechar 0
AnchorPoint: "Anchor-10" 243 0 basechar 0
LayerCount: 2
Back
Fore
SplineSet
322 848 m 1
 327 839 l 1
 157 769 l 1
 154 775 l 1
 322 848 l 1
460 680 m 1
 247 271 l 1
 247 0 l 1
 238 0 l 1
 238 271 l 1
 24 680 l 1
 33 680 l 1
 243 278 l 1
 451 680 l 1
 460 680 l 1
EndSplineSet
Substitution2: "'c2sc' Capitals to Small Capitals lookup 26 subtable" yacute.sc
Substitution2: "'aalt' Access All Alternates lookup 0 subtable" yacute.sc
Position2: "'cpsp' Capital Spacing lookup 0 subtable" dx=5 dy=0 dh=10 dv=0
EndChar
StartChar: Thorn
Encoding: 222 222 222
Width: 554
GlyphClass: 2
Flags: MW
HStem: 0 21G<128 136 128 128> 152 8<136 251 136 252> 544 7<136 255 136 255> 660 20G<128 136 136 136>
VStem: 128 8<0 152 160 544 551 680> 483 8<281.5 420.5>
LayerCount: 2
Back
Fore
SplineSet
255 551 m 2
 413 551 491 493 491 352 c 0
 491 207 398 152 251 152 c 2
 136 152 l 1
 136 0 l 1
 128 0 l 1
 128 680 l 1
 136 680 l 1
 136 551 l 1
 255 551 l 2
252 160 m 2
 392 160 483 211 483 352 c 0
 483 489 408 544 255 544 c 2
 136 544 l 1
 136 160 l 1
 252 160 l 2
EndSplineSet
Substitution2: "'c2sc' Capitals to Small Capitals lookup 26 subtable" thorn.sc
Substitution2: "'aalt' Access All Alternates lookup 0 subtable" thorn.sc
Position2: "'cpsp' Capital Spacing lookup 0 subtable" dx=5 dy=0 dh=10 dv=0
EndChar
StartChar: germandbls
Encoding: 223 223 634
Width: 571
GlyphClass: 2
Flags: MW
HStem: -10 8<348 410 348 413.5> 0 21G<123 131 123 123> 727 7<243.5 332.5>
VStem: 123 8<0 540 0 541 0 603> 304 8<374 455 374 457> 424 8<560 644.5> 500 8<100 234.5>
LayerCount: 2
Back
Fore
SplineSet
290 734 m 0
 378 734 432 682 432 612 c 0
 432 505 312 489 312 421 c 0
 312 327 508 328 508 144 c 0
 508 54 457 -10 370 -10 c 0
 326 -10 299 1 278 13 c 1
 282 19 l 1
 302 7 327 -2 369 -2 c 0xbe
 451 -2 500 56 500 144 c 0
 500 325 304 320 304 421 c 0
 304 493 424 508 424 612 c 0
 424 677 375 727 290 727 c 0
 197 727 131 661 131 540 c 2
 131 0 l 1
 123 0 l 1x7e
 123 541 l 2
 123 665 193 734 290 734 c 0
EndSplineSet
Substitution2: "'smcp' Lowercase to Small Capitals lookup 27 subtable" germandbls.sc
Substitution2: "'aalt' Access All Alternates lookup 0 subtable" germandbls.sc
EndChar

StartChar: agrave
Encoding: 224 224 139
Width: 525
GlyphClass: 2
Flags: MW
HStem: -9.22 7.57001 297.71 7.57001 520.07 7.57001
VStem: 68.95 8.42999 391.52 7.99001
AnchorPoint: "Anchor-11" 0 0 basechar 0
AnchorPoint: "Anchor-10" 0 0 basechar 0
AnchorPoint: "Anchor-9" 251 518 basechar 0
AnchorPoint: "Anchor-8" 458 -9 basechar 0
LayerCount: 2
Fore
SplineSet
339.72 659.64 m 1
 169.509 742.07 l 1
 173.289 750.5 l 1
 342.859 665.71 l 1
 339.72 659.64 l 1
399.509 110 m 2
 399.509 38.0703 410.369 9.62988 450.589 -3.15039 c 1
 448.299 -9.2207 l 1
 406.089 4.30957 392.648 32.3096 392.368 100.439 c 1
 356.729 29.3496 303.498 -9.2207 220.658 -9.2207 c 0
 123.229 -9.2207 68.9482 54.9297 68.9482 144.779 c 0
 68.9482 247.069 146.229 305.279 269.229 305.279 c 2
 391.519 305.279 l 1
 391.519 371.35 l 2
 391.519 464.069 356.368 520.069 254.438 520.069 c 0
 208.438 520.069 162.438 508.85 108.509 486.5 c 1
 105.799 493.64 l 1
 160.148 516.21 207.148 527.64 254.438 527.64 c 0
 360.148 527.64 399.509 469.71 399.509 372 c 2
 399.509 110 l 2
220.659 -1.65039 m 0
 305.839 -1.65039 356.039 39.29 391.52 111.67 c 1
 391.52 297.71 l 1
 270.52 297.71 l 2
 150.88 297.71 77.3799 242.5 77.3799 144.78 c 0
 77.3799 58.5 128.729 -1.65039 220.659 -1.65039 c 0
EndSplineSet
Substitution2: "'smcp' Lowercase to Small Capitals lookup 24 subtable" agrave.sc
Substitution2: "'aalt' Access All Alternates lookup 0 subtable" agrave.sc
EndChar

StartChar: aacute
Encoding: 225 225 135
Width: 525
GlyphClass: 2
Flags: MW
HStem: -9.21001 7.57001 297.72 7.57001 520.07 7.58
VStem: 68.94 8.42999 391.51 7.99001
AnchorPoint: "Anchor-11" 0 0 basechar 0
AnchorPoint: "Anchor-10" 0 0 basechar 0
AnchorPoint: "Anchor-9" 251 518 basechar 0
AnchorPoint: "Anchor-8" 458 -9 basechar 0
LayerCount: 2
Fore
SplineSet
161.57 659.64 m 1
 158.43 665.719 l 1
 328 750.499 l 1
 331.79 742.069 l 1
 161.57 659.64 l 1
399.5 109.999 m 2
 399.5 38.0693 410.368 9.6377 450.578 -3.15234 c 1
 448.298 -9.22266 l 1
 406.078 4.31738 392.638 32.3076 392.368 100.447 c 1
 356.729 29.3477 303.488 -9.21191 220.658 -9.21191 c 0
 123.229 -9.21191 68.9385 54.9277 68.9385 144.788 c 0
 68.9385 247.068 146.229 305.288 269.229 305.288 c 2
 391.509 305.288 l 1
 391.509 371.358 l 2
 391.509 464.068 356.369 520.068 254.439 520.068 c 0
 208.439 520.068 162.439 508.858 108.51 486.498 c 1
 105.79 493.648 l 1
 160.15 516.219 207.15 527.648 254.431 527.648 c 0
 360.15 527.648 399.5 469.719 399.5 371.999 c 2
 399.5 109.999 l 2
220.658 -1.64258 m 0
 305.828 -1.64258 356.028 39.2871 391.509 111.667 c 1
 391.509 297.717 l 1
 270.519 297.717 l 2
 150.868 297.717 77.3682 242.497 77.3682 144.787 c 0
 77.3682 58.4971 128.729 -1.64258 220.658 -1.64258 c 0
EndSplineSet
Substitution2: "'smcp' Lowercase to Small Capitals lookup 24 subtable" aacute.sc
Substitution2: "'aalt' Access All Alternates lookup 0 subtable" aacute.sc
EndChar

StartChar: acircumflex
Encoding: 226 226 137
Width: 525
GlyphClass: 2
Flags: MW
HStem: -9.22 7.57001 297.71 7.57001 520.07 7.57001 741.5 8.64
VStem: 68.94 8.42999 391.51 7.99001
AnchorPoint: "Anchor-11" 0 0 basechar 0
AnchorPoint: "Anchor-10" 0 0 basechar 0
AnchorPoint: "Anchor-9" 251 518 basechar 0
AnchorPoint: "Anchor-8" 458 -9 basechar 0
LayerCount: 2
Fore
SplineSet
145.14 658.07 m 1
 140.359 662.71 l 1
 252.569 750.14 l 1
 257.569 750.14 l 1
 368.43 662.71 l 1
 363.64 658.07 l 1
 255.069 741.5 l 1
 145.14 658.07 l 1
399.499 110 m 2
 399.499 38.0703 410.359 9.62988 450.579 -3.15039 c 1
 448.289 -9.2207 l 1
 406.079 4.30957 392.639 32.3096 392.358 100.439 c 1
 356.719 29.3496 303.488 -9.2207 220.648 -9.2207 c 0
 123.219 -9.2207 68.9385 54.9297 68.9385 144.779 c 0
 68.9385 247.069 146.219 305.279 269.219 305.279 c 2
 391.509 305.279 l 1
 391.509 371.35 l 2
 391.509 464.069 356.358 520.069 254.429 520.069 c 0
 208.429 520.069 162.429 508.85 108.499 486.5 c 1
 105.789 493.64 l 1
 160.139 516.21 207.139 527.64 254.429 527.64 c 0
 360.139 527.64 399.499 469.71 399.499 372 c 2
 399.499 110 l 2
220.649 -1.65039 m 0
 305.829 -1.65039 356.029 39.29 391.51 111.67 c 1
 391.51 297.71 l 1
 270.51 297.71 l 2
 150.87 297.71 77.3701 242.5 77.3701 144.78 c 0
 77.3701 58.5 128.72 -1.65039 220.649 -1.65039 c 0
EndSplineSet
Substitution2: "'smcp' Lowercase to Small Capitals lookup 24 subtable" acircumflex.sc
Substitution2: "'aalt' Access All Alternates lookup 0 subtable" acircumflex.sc
EndChar

StartChar: atilde
Encoding: 227 227 143
Width: 525
GlyphClass: 2
Flags: MW
HStem: -9.22 7.57001 297.71 7.57001 520.07 7.57001 669.43 20G 708.5 20G 713.21 20G
VStem: 68.94 8.42999 391.51 7.99001
AnchorPoint: "Anchor-11" 0 0 basechar 0
AnchorPoint: "Anchor-10" 0 0 basechar 0
AnchorPoint: "Anchor-9" 251 518 basechar 0
AnchorPoint: "Anchor-8" 458 -9 basechar 0
LayerCount: 2
Fore
SplineSet
197 729 m 0xfb
 168.57 729 154.86 718.211 132.5 693.211 c 1
 130 694.781 l 1
 151.79 720.501 168.5 733.211 197 733.211 c 0xf7
 231.29 733.211 268.72 689.431 311.29 689.431 c 0
 336.79 689.431 352.57 700.431 373.79 728.501 c 1
 376.29 726.931 l 1
 355.86 697.28 337.71 685.21 311.93 685.21 c 0
 266.14 685.21 231.79 729 197 729 c 0xfb
399.5 110.001 m 2xf7
 399.5 38.0713 410.36 9.63086 450.58 -3.14941 c 1
 448.29 -9.21973 l 1
 406.08 4.31055 392.64 32.3105 392.359 100.44 c 1
 356.72 29.3506 303.489 -9.21973 220.649 -9.21973 c 0
 123.22 -9.21973 68.9395 54.9307 68.9395 144.78 c 0
 68.9395 247.07 146.22 305.28 269.22 305.28 c 2
 391.51 305.28 l 1
 391.51 371.351 l 2
 391.51 464.07 356.359 520.07 254.43 520.07 c 0
 208.43 520.07 162.43 508.851 108.5 486.501 c 1
 105.79 493.641 l 1
 160.14 516.211 207.14 527.641 254.43 527.641 c 0
 360.14 527.641 399.5 469.711 399.5 372.001 c 2
 399.5 110.001 l 2xf7
220.65 -1.64941 m 0
 305.83 -1.64941 356.03 39.291 391.511 111.671 c 1
 391.511 297.711 l 1
 270.511 297.711 l 2
 150.871 297.711 77.3711 242.501 77.3711 144.781 c 0
 77.3711 58.501 128.721 -1.64941 220.65 -1.64941 c 0
EndSplineSet
Substitution2: "'smcp' Lowercase to Small Capitals lookup 24 subtable" atilde.sc
Substitution2: "'aalt' Access All Alternates lookup 0 subtable" atilde.sc
EndChar

StartChar: aring
Encoding: 229 229 142
Width: 525
GlyphClass: 2
Flags: MW
HStem: -9.22 7.57001 297.71 7.57001 520.06 7.58 651.78 135.79
VStem: 68.94 8.42999 183.36 7.78999 311.43 7.78 391.51 7.99001
AnchorPoint: "Anchor-11" 0 0 basechar 0
AnchorPoint: "Anchor-10" 0 0 basechar 0
AnchorPoint: "Anchor-9" 251 518 basechar 0
AnchorPoint: "Anchor-8" 458 -9 basechar 0
LayerCount: 2
Fore
SplineSet
251.29 651.78 m 0
 208.14 651.78 183.359 679.28 183.359 719.28 c 0
 183.359 760.07 209.709 787.57 251.279 787.57 c 0
 294.43 787.57 319.21 760.07 319.21 720.07 c 0
 319.21 679.28 292.86 651.78 251.29 651.78 c 0
251.29 780.851 m 0
 213.5 780.851 191.149 755.71 191.149 719.28 c 0
 191.149 682.061 212.72 658.49 251.29 658.49 c 0
 289.07 658.49 311.431 683.641 311.431 720.07 c 0
 311.431 757.28 289.86 780.851 251.29 780.851 c 0
399.499 109.989 m 2
 399.499 38.0596 410.359 9.62793 450.579 -3.16211 c 1
 448.289 -9.23242 l 1
 406.079 4.30762 392.639 32.2979 392.358 100.438 c 1
 356.719 29.3379 303.488 -9.22168 220.648 -9.22168 c 0
 123.219 -9.22168 68.9385 54.918 68.9385 144.778 c 0
 68.9385 247.059 146.219 305.278 269.219 305.278 c 2
 391.509 305.278 l 1
 391.509 371.349 l 2
 391.509 464.059 356.358 520.059 254.429 520.059 c 0
 208.429 520.059 162.429 508.849 108.499 486.488 c 1
 105.789 493.639 l 1
 160.139 516.209 207.139 527.639 254.429 527.639 c 0
 360.139 527.639 399.499 469.709 399.499 371.989 c 2
 399.499 109.989 l 2
220.649 -1.65234 m 0
 305.829 -1.65234 356.029 39.2773 391.51 111.657 c 1
 391.51 297.707 l 1
 270.51 297.707 l 2
 150.87 297.707 77.3701 242.487 77.3701 144.777 c 0
 77.3701 58.4873 128.72 -1.65234 220.649 -1.65234 c 0
EndSplineSet
Substitution2: "'smcp' Lowercase to Small Capitals lookup 24 subtable" aring.sc
Substitution2: "'aalt' Access All Alternates lookup 0 subtable" aring.sc
EndChar

StartChar: ccedilla
Encoding: 231 231 150
Width: 468
GlyphClass: 2
Flags: MW
HStem: -205.8 7.36 -189.15 21G -9.22 7.58 -9.10001 7.46001 520.07 7.57001
VStem: 77.85 8.42999 272.02 7.08 359.63 8.22
AnchorPoint: "Anchor-11" 285 -1 basechar 0
AnchorPoint: "Anchor-10" 0 0 basechar 0
AnchorPoint: "Anchor-9" 272 518 basechar 0
AnchorPoint: "Anchor-8" 0 0 basechar 0
LayerCount: 2
Fore
SplineSet
277.64 -80.4297 m 1x6f
 334.14 -82.0693 367.848 -99.0078 367.848 -141.578 c 0
 367.848 -187.229 332.128 -205.799 295.128 -205.799 c 0
 265.488 -205.799 248.198 -199.148 231.988 -189.148 c 1
 235.559 -182.648 l 1
 251.698 -193.009 268.349 -198.438 295.129 -198.438 c 0
 327.919 -198.438 359.629 -183.219 359.629 -141.579 c 0
 359.629 -105.649 333.419 -87.7197 269.849 -86.7197 c 1
 274.188 -9.09961 l 1
 159.868 -5.33984 77.8486 89.6406 77.8486 256.211 c 0
 77.8486 426.001 155.999 527.641 282.429 527.641 c 0
 336.068 527.641 376.068 511.07 412.358 477.641 c 1
 407.139 472.36 l 1
 372.789 504.29 333.639 520.07 282.639 520.07 c 0
 162.709 520.07 86.2793 422.931 86.2793 256.211 c 0
 86.2793 90.1406 168.779 -1.63965 280.85 -1.63965 c 0xdf
 338.35 -1.63965 378.35 18.71 411.569 49.5 c 1
 416.779 44 l 1
 382.93 12.5703 341.43 -9.21973 280.56 -9.21973 c 1
 277.64 -80.4297 l 1x6f
EndSplineSet
Substitution2: "'smcp' Lowercase to Small Capitals lookup 24 subtable" ccedilla.sc
Substitution2: "'aalt' Access All Alternates lookup 0 subtable" ccedilla.sc
EndChar

StartChar: egrave
Encoding: 232 232 164
Width: 528
GlyphClass: 2
Flags: MW
HStem: -9.22 7.58 250.28 7.14999 520.07 7.57001
VStem: 77.86 8.23 447.36 8
AnchorPoint: "Anchor-11" 278 0 basechar 0
AnchorPoint: "Anchor-10" 0 0 basechar 0
AnchorPoint: "Anchor-9" 276 518 basechar 0
AnchorPoint: "Anchor-8" 366 4 basechar 0
LayerCount: 2
Fore
SplineSet
364 659.64 m 1
 193.789 742.061 l 1
 197.569 750.49 l 1
 367.14 665.71 l 1
 364 659.64 l 1
455.359 286.921 m 0
 455.359 272.701 455.141 263.21 454.141 250.28 c 1
 86.0908 250.28 l 1
 87.751 85.8799 164.051 -1.63965 277.281 -1.63965 c 0
 341.432 -1.63965 383.361 19.1406 428.361 56.7109 c 1
 432.791 50.4307 l 1
 387.571 13.001 344.291 -9.21875 277.291 -9.21875 c 0
 156.141 -9.21875 77.8604 85.6416 77.8604 253.642 c 0
 77.8604 425.991 154.71 527.642 274.93 527.642 c 0
 399.43 527.642 455.359 425.491 455.359 286.921 c 0
446.57 257.43 m 1
 447.36 268.93 447.36 276.069 447.36 289.279 c 0
 447.36 420.709 395 520.069 275.36 520.069 c 0
 162.771 520.069 87.2002 426.26 86.0898 257.43 c 1
 446.57 257.43 l 1
EndSplineSet
Substitution2: "'smcp' Lowercase to Small Capitals lookup 24 subtable" egrave.sc
Substitution2: "'aalt' Access All Alternates lookup 0 subtable" egrave.sc
EndChar

StartChar: eacute
Encoding: 233 233 158
Width: 528
GlyphClass: 2
Flags: MW
HStem: -9.21001 7.57001 250.29 7.14 520.07 7.57001
VStem: 77.86 8.23 447.36 8
AnchorPoint: "Anchor-11" 278 0 basechar 0
AnchorPoint: "Anchor-10" 0 0 basechar 0
AnchorPoint: "Anchor-9" 276 518 basechar 0
AnchorPoint: "Anchor-8" 366 4 basechar 0
LayerCount: 2
Fore
SplineSet
185.86 659.64 m 1
 182.72 665.709 l 1
 352.29 750.499 l 1
 356.07 742.069 l 1
 185.86 659.64 l 1
455.359 286.929 m 0
 455.359 272.719 455.149 263.218 454.149 250.288 c 1
 86.0996 250.288 l 1
 87.75 85.8779 164.06 -1.6416 277.29 -1.6416 c 0
 341.43 -1.6416 383.359 19.1484 428.359 56.7188 c 1
 432.789 50.4287 l 1
 387.579 12.999 344.289 -9.21094 277.289 -9.21094 c 0
 156.149 -9.21094 77.8594 85.6387 77.8594 253.639 c 0
 77.8594 425.999 154.72 527.639 274.93 527.639 c 0
 399.43 527.639 455.359 425.499 455.359 286.929 c 0
446.579 257.428 m 1
 447.359 268.928 447.359 276.068 447.359 289.288 c 0
 447.359 420.718 395.01 520.067 275.359 520.067 c 0
 162.77 520.067 87.1992 426.258 86.0889 257.428 c 1
 446.579 257.428 l 1
EndSplineSet
Substitution2: "'smcp' Lowercase to Small Capitals lookup 24 subtable" eacute.sc
Substitution2: "'aalt' Access All Alternates lookup 0 subtable" eacute.sc
EndChar
StartChar: edieresis
Encoding: 235 235 422
Width: 528
GlyphClass: 2
Flags: MW
HStem: -9 7<220.5 309 220.5 310.5> 250 7<86 447 86 454 86 447> 520 8<219 335> 677 20<195 201.5 349 355.5>
VStem: 78 8<250 250 250 257 250 340> 198 154<677 677 697 697> 447 8<280 289 289 355>
AnchorPoint: "Anchor-14" 0 0 basechar 0
AnchorPoint: "Anchor-13" 0 0 basechar 0
AnchorPoint: "Anchor-12" 278 697 basechar 0
AnchorPoint: "Anchor-11" 366 4 basechar 0
AnchorPoint: "Anchor-10" 278 0 basechar 0
LayerCount: 2
Back
Fore
SplineSet
198 677 m 0
 192 677 188 682 188 687 c 0
 188 693 192 697 198 697 c 0
 205 697 208 693 208 687 c 0
 208 682 205 677 198 677 c 0
352 677 m 0
 346 677 342 682 342 687 c 0
 342 693 346 697 352 697 c 0
 359 697 362 693 362 687 c 0
 362 682 359 677 352 677 c 0
455 287 m 0
 455 273 455 263 454 250 c 1
 86 250 l 1
 88 86 164 -2 277 -2 c 0
 341 -2 383 19 428 57 c 1
 433 50 l 1
 388 13 344 -9 277 -9 c 0
 156 -9 78 86 78 254 c 0
 78 426 155 528 275 528 c 0
 399 528 455 426 455 287 c 0
447 257 m 1
 447 289 l 2
 447 421 395 520 275 520 c 0
 163 520 87 426 86 257 c 1
 447 257 l 1
EndSplineSet
Substitution2: "'smcp' Lowercase to Small Capitals lookup 27 subtable" edieresis.sc
Substitution2: "'aalt' Access All Alternates lookup 0 subtable" edieresis.sc
EndChar

StartChar: igrave
Encoding: 236 236 183
Width: 254
GlyphClass: 2
Flags: MW
HStem: 0 21G 497.64 20G
VStem: 122.86 8
AnchorPoint: "Anchor-11" 0 0 basechar 0
AnchorPoint: "Anchor-10" 0 0 basechar 0
AnchorPoint: "Anchor-9" 127 518 basechar 0
AnchorPoint: "Anchor-8" 141 0 basechar 0
LayerCount: 2
Fore
SplineSet
218.43 665.71 m 1
 215.289 659.641 l 1
 45.0693 742.07 l 1
 48.8594 750.5 l 1
 218.43 665.71 l 1
130.859 0.000976562 m 1
 122.859 0.000976562 l 1
 122.859 517.641 l 1
 130.859 517.641 l 1
 130.859 0.000976562 l 1
EndSplineSet
Substitution2: "'smcp' Lowercase to Small Capitals lookup 24 subtable" igrave.sc
Substitution2: "'aalt' Access All Alternates lookup 0 subtable" igrave.sc
EndChar

StartChar: iacute
Encoding: 237 237 178
Width: 254
GlyphClass: 2
Flags: MW
HStem: 0 21G<122.858 130.858 122.858 122.858> 497.64 20G
VStem: 122.86 8
AnchorPoint: "Anchor-11" 0 0 basechar 0
AnchorPoint: "Anchor-10" 0 0 basechar 0
AnchorPoint: "Anchor-9" 127 518 basechar 0
AnchorPoint: "Anchor-8" 141 0 basechar 0
LayerCount: 2
Fore
SplineSet
207.35 742.07 m 1
 37.1387 659.64 l 1
 33.999 665.71 l 1
 203.569 750.5 l 1
 207.35 742.07 l 1
130.858 -0 m 1
 122.858 -0 l 1
 122.858 517.64 l 1
 130.858 517.64 l 1
 130.858 -0 l 1
EndSplineSet
Substitution2: "'smcp' Lowercase to Small Capitals lookup 24 subtable" iacute.sc
Substitution2: "'aalt' Access All Alternates lookup 0 subtable" iacute.sc
EndChar

StartChar: icircumflex
Encoding: 238 238 180
Width: 254
GlyphClass: 2
Flags: MW
HStem: 0 21G<122.859 130.859 122.859 122.859> 497.64 20G 741.5 8.64
VStem: 122.86 8
AnchorPoint: "Anchor-11" 0 0 basechar 0
AnchorPoint: "Anchor-10" 0 0 basechar 0
AnchorPoint: "Anchor-9" 127 518 basechar 0
AnchorPoint: "Anchor-8" 141 0 basechar 0
LayerCount: 2
Fore
SplineSet
15.9297 662.71 m 1
 128.14 750.14 l 1
 133.14 750.14 l 1
 244 662.71 l 1
 239.21 658.07 l 1
 130.64 741.5 l 1
 20.71 658.07 l 1
 15.9297 662.71 l 1
130.859 -0 m 1
 122.859 -0 l 1
 122.859 517.64 l 1
 130.859 517.64 l 1
 130.859 -0 l 1
EndSplineSet
Substitution2: "'smcp' Lowercase to Small Capitals lookup 24 subtable" icircumflex.sc
Substitution2: "'aalt' Access All Alternates lookup 0 subtable" icircumflex.sc
EndChar

StartChar: idieresis
Encoding: 239 239 181
Width: 254
GlyphClass: 2
Flags: MW
HStem: 0 21G<122.86 130.86 122.86 122.86> 497.64 20G 677.07 20.14
VStem: 122.86 8
AnchorPoint: "Anchor-11" 0 0 basechar 0
AnchorPoint: "Anchor-10" 0 0 basechar 0
AnchorPoint: "Anchor-9" 127 604 basechar 0
AnchorPoint: "Anchor-8" 141 0 basechar 0
LayerCount: 2
Fore
SplineSet
49.2803 697.21 m 0
 55.8506 697.21 59.5703 692.5 59.5703 687.14 c 0
 59.5703 681.79 55.8506 677.07 49.2803 677.07 c 0
 42.9307 677.07 39.2109 681.79 39.2109 687.14 c 0
 39.2109 692.5 42.9307 697.21 49.2803 697.21 c 0
203.431 697.21 m 0
 209.78 697.21 213.5 692.5 213.5 687.14 c 0
 213.5 681.79 209.78 677.07 203.431 677.07 c 0
 196.86 677.07 193.141 681.79 193.141 687.14 c 0
 193.141 692.5 196.86 697.21 203.431 697.21 c 0
130.86 -0 m 1
 122.86 -0 l 1
 122.86 517.64 l 1
 130.86 517.64 l 1
 130.86 -0 l 1
EndSplineSet
Substitution2: "'smcp' Lowercase to Small Capitals lookup 24 subtable" idieresis.sc
Substitution2: "'aalt' Access All Alternates lookup 0 subtable" idieresis.sc
EndChar
StartChar: eth
Encoding: 240 240 392
Width: 543
GlyphClass: 2
Flags: MW
HStem: -9 7<209 324.5 209 326.5> 451 7<205 300> 715 20G<151 151 365 365>
VStem: 78 8<159 289 159 290> 450 8<316 334 334 334>
AnchorPoint: "Anchor-14" 0 0 basechar 0
AnchorPoint: "Anchor-13" 0 0 basechar 0
AnchorPoint: "Anchor-12" 287 729 basechar 0
AnchorPoint: "Anchor-11" 0 0 basechar 0
AnchorPoint: "Anchor-10" 268 0 basechar 0
LayerCount: 2
Back
Fore
SplineSet
301 669 m 1
 402 595 458 485 458 316 c 0
 458 91 388 -9 265 -9 c 0
 147 -9 78 87 78 229 c 0
 78 351 144 458 260 458 c 0
 341 458 402 412 449 344 c 1
 444 489 392 592 296 663 c 1
 209 573 l 1
 202 576 l 1
 290 667 l 1
 250 695 198 717 150 728 c 1
 151 735 l 1
 200 724 252 703 295 673 c 1
 359 740 l 1
 365 735 l 1
 301 669 l 1
265 -2 m 0
 384 -2 450 97 450 316 c 2
 450 334 l 1
 401 404 340 451 260 451 c 0
 150 451 86 350 86 228 c 0
 86 90 153 -2 265 -2 c 0
EndSplineSet
Substitution2: "'smcp' Lowercase to Small Capitals lookup 27 subtable" eth.sc
Substitution2: "'aalt' Access All Alternates lookup 0 subtable" eth.sc
EndChar
StartChar: ntilde
Encoding: 241 241 552
Width: 580
GlyphClass: 2
Flags: MW
HStem: 0 21G<123 131 123 123 455 463 455 455> 498 20G<123 130 130 130> 520 8<284 372> 684 7<333 367.5 333 368.5> 727 8<227.5 258.5>
VStem: 123 7.5 455 8<0 368 0 416.5>
AnchorPoint: "Anchor-14" 0 0 basechar 0
AnchorPoint: "Anchor-13" 0 0 basechar 0
AnchorPoint: "Anchor-12" 296 694 basechar 0
AnchorPoint: "Anchor-11" 0 0 basechar 0
AnchorPoint: "Anchor-10" 287 0 basechar 0
LayerCount: 2
Back
Fore
SplineSet
240 727 m 0
 215 727 200 717 179 692 c 1
 173 696 l 1
 196 722 213 735 240 735 c 0
 280 735 312 691 354 691 c 0
 381 691 396 702 417 729 c 1
 422 726 l 1
 401 696 383 684 354 684 c 0
 310 684 277 727 240 727 c 0
327 528 m 0
 422 528 463 468 463 368 c 2
 463 0 l 1
 455 0 l 1
 455 368 l 2
 455 465 417 520 327 520 c 0xbe
 241 520 179 469 131 386 c 1
 131 0 l 1
 123 0 l 1
 123 518 l 1
 130 518 l 1xde
 131 398 l 1
 178 478 241 528 327 528 c 0
EndSplineSet
Substitution2: "'smcp' Lowercase to Small Capitals lookup 27 subtable" ntilde.sc
Substitution2: "'aalt' Access All Alternates lookup 0 subtable" ntilde.sc
EndChar

StartChar: ograve
Encoding: 242 242 213
Width: 559
GlyphClass: 2
Flags: MW
HStem: -9.22 7.57001 520.07 7.57001
VStem: 77.86 8.21001 473.36 8.21001
AnchorPoint: "Anchor-11" 0 0 basechar 0
AnchorPoint: "Anchor-10" 0 0 basechar 0
AnchorPoint: "Anchor-9" 280 518 basechar 0
AnchorPoint: "Anchor-8" 0 0 basechar 0
LayerCount: 2
Fore
SplineSet
371.78 665.71 m 1
 368.64 659.641 l 1
 198.43 742.07 l 1
 202.21 750.5 l 1
 371.78 665.71 l 1
281 527.641 m 0
 404.5 527.641 481.57 430.49 481.57 261.99 c 0
 481.57 88.9902 403.29 -9.21973 279.22 -9.21973 c 0
 153.93 -9.21973 77.8594 90.9902 77.8594 258.21 c 0
 77.8594 430.99 158.72 527.641 281 527.641 c 0
281 520.07 m 0
 163.35 520.07 86.0713 426.86 86.0713 258.21 c 0
 86.0713 95.5703 158.781 -1.64941 279.211 -1.64941 c 0
 398.641 -1.64941 473.36 93.5703 473.36 262 c 0
 473.36 425.07 400.07 520.07 281 520.07 c 0
EndSplineSet
Substitution2: "'smcp' Lowercase to Small Capitals lookup 24 subtable" ograve.sc
Substitution2: "'aalt' Access All Alternates lookup 0 subtable" ograve.sc
EndChar

StartChar: oacute
Encoding: 243 243 209
Width: 559
GlyphClass: 2
Flags: MW
HStem: -9.21001 7.57001 520.08 7.57001
VStem: 77.86 8.21001 473.36 8.21001
AnchorPoint: "Anchor-11" 0 0 basechar 0
AnchorPoint: "Anchor-10" 0 0 basechar 0
AnchorPoint: "Anchor-9" 280 518 basechar 0
AnchorPoint: "Anchor-8" 0 0 basechar 0
LayerCount: 2
Fore
SplineSet
360.71 742.07 m 1
 190.499 659.649 l 1
 187.359 665.72 l 1
 356.93 750.5 l 1
 360.71 742.07 l 1
280.999 527.649 m 0
 404.499 527.649 481.569 430.499 481.569 261.999 c 0
 481.569 88.999 403.289 -9.21094 279.219 -9.21094 c 0
 153.929 -9.21094 77.8584 90.999 77.8584 258.219 c 0
 77.8584 430.999 158.719 527.649 280.999 527.649 c 0
280.999 520.079 m 0
 163.349 520.079 86.0703 426.869 86.0703 258.219 c 0
 86.0703 95.5791 158.78 -1.64062 279.21 -1.64062 c 0
 398.64 -1.64062 473.359 93.5791 473.359 262.009 c 0
 473.359 425.079 400.069 520.079 280.999 520.079 c 0
EndSplineSet
Substitution2: "'smcp' Lowercase to Small Capitals lookup 24 subtable" oacute.sc
Substitution2: "'locl' Localized Forms in Latin lookup 7 subtable" oacute.loclPLK
AlternateSubs2: "'aalt' Access All Alternates lookup 1 subtable" oacute.loclPLK oacute.sc
EndChar

StartChar: ocircumflex
Encoding: 244 244 211
Width: 559
GlyphClass: 2
Flags: MW
HStem: -9.22 7.58 520.08 7.56 741.5 8.64
VStem: 77.86 8.2 473.35 8.22
AnchorPoint: "Anchor-11" 0 0 basechar 0
AnchorPoint: "Anchor-10" 0 0 basechar 0
AnchorPoint: "Anchor-9" 280 518 basechar 0
AnchorPoint: "Anchor-8" 0 0 basechar 0
LayerCount: 2
Fore
SplineSet
169.28 662.71 m 1
 281.501 750.14 l 1
 286.501 750.14 l 1
 397.351 662.71 l 1
 392.57 658.07 l 1
 284 741.5 l 1
 174.07 658.07 l 1
 169.28 662.71 l 1
281.001 527.64 m 0
 404.501 527.64 481.572 430.5 481.572 262 c 0
 481.572 89 403.282 -9.21973 279.212 -9.21973 c 0
 153.932 -9.21973 77.8613 91 77.8613 258.21 c 0
 77.8613 431 158.711 527.64 281.001 527.64 c 0
281.002 520.069 m 0
 163.362 520.069 86.0635 426.859 86.0635 258.22 c 0
 86.0635 95.5693 158.783 -1.64062 279.213 -1.64062 c 0
 398.643 -1.64062 473.353 93.5693 473.353 261.999 c 0
 473.353 425.069 400.072 520.069 281.002 520.069 c 0
EndSplineSet
Substitution2: "'smcp' Lowercase to Small Capitals lookup 24 subtable" ocircumflex.sc
Substitution2: "'aalt' Access All Alternates lookup 0 subtable" ocircumflex.sc
EndChar
StartChar: otilde
Encoding: 245 245 591
Width: 559
GlyphClass: 2
Flags: MW
HStem: -9 7<219 339 219 341> 520 8<222 340.5> 684 7<317 351.5 317 352.5> 727 8<211.5 242.5>
VStem: 78 8<177 342.5 177 344.5> 473 9<178 343.5>
AnchorPoint: "Anchor-14" 0 0 basechar 0
AnchorPoint: "Anchor-13" 436 518 basechar 0
AnchorPoint: "Anchor-12" 280 694 basechar 0
AnchorPoint: "Anchor-11" 350 0 basechar 0
AnchorPoint: "Anchor-10" 280 0 basechar 0
LayerCount: 2
Back
Fore
SplineSet
338 684 m 0
 294 684 261 727 224 727 c 0
 199 727 184 717 163 692 c 1
 157 696 l 1
 180 722 197 735 224 735 c 0
 264 735 296 691 338 691 c 0
 365 691 380 702 401 729 c 1
 406 726 l 1
 385 696 367 684 338 684 c 0
281 528 m 0
 405 528 482 431 482 262 c 0
 482 89 403 -9 279 -9 c 0
 154 -9 78 91 78 258 c 0
 78 431 159 528 281 528 c 0
281 520 m 0
 163 520 86 427 86 258 c 0
 86 96 159 -2 279 -2 c 0
 399 -2 473 94 473 262 c 0
 473 425 400 520 281 520 c 0
EndSplineSet
Substitution2: "'smcp' Lowercase to Small Capitals lookup 27 subtable" otilde.sc
Substitution2: "'aalt' Access All Alternates lookup 0 subtable" otilde.sc
EndChar

StartChar: odieresis
Encoding: 246 246 212
Width: 559
GlyphClass: 2
Flags: MW
HStem: -9.22 7.58 520.08 7.56 677.07 20.14
VStem: 77.86 8.21001 473.36 8.21001
AnchorPoint: "Anchor-11" 0 0 basechar 0
AnchorPoint: "Anchor-10" 0 0 basechar 0
AnchorPoint: "Anchor-9" 280 604 basechar 0
AnchorPoint: "Anchor-8" 0 0 basechar 0
LayerCount: 2
Fore
SplineSet
202.64 697.21 m 0
 209.21 697.21 212.93 692.5 212.93 687.14 c 0
 212.93 681.79 209.21 677.07 202.64 677.07 c 0
 196.29 677.07 192.57 681.79 192.57 687.14 c 0
 192.57 692.5 196.29 697.21 202.64 697.21 c 0
356.79 697.21 m 0
 363.14 697.21 366.859 692.5 366.859 687.14 c 0
 366.859 681.79 363.14 677.07 356.79 677.07 c 0
 350.22 677.07 346.5 681.79 346.5 687.14 c 0
 346.5 692.5 350.22 697.21 356.79 697.21 c 0
281 527.64 m 0
 404.5 527.64 481.57 430.5 481.57 262 c 0
 481.57 89 403.29 -9.21973 279.22 -9.21973 c 0
 153.93 -9.21973 77.8594 91 77.8594 258.21 c 0
 77.8594 431 158.72 527.64 281 527.64 c 0
281 520.069 m 0
 163.35 520.069 86.0713 426.859 86.0713 258.22 c 0
 86.0713 95.5693 158.781 -1.64062 279.211 -1.64062 c 0
 398.641 -1.64062 473.36 93.5693 473.36 261.999 c 0
 473.36 425.069 400.07 520.069 281 520.069 c 0
EndSplineSet
Substitution2: "'smcp' Lowercase to Small Capitals lookup 24 subtable" odieresis.sc
Substitution2: "'aalt' Access All Alternates lookup 0 subtable" odieresis.sc
EndChar
StartChar: divide
Encoding: 247 247 2244
Width: 480
GlyphClass: 2
Flags: MW
HStem: 118 24<236.5 243.5> 327 8<83 397 83 397> 520 24<236.5 243.5>
VStem: 83 314<327 335 327 335>
LayerCount: 2
Back
Fore
SplineSet
240 544 m 0
 247 544 252 538 252 532 c 0
 252 525 247 520 240 520 c 0
 233 520 228 525 228 532 c 0
 228 538 233 544 240 544 c 0
83 327 m 1
 83 335 l 1
 397 335 l 1
 397 327 l 1
 83 327 l 1
240 142 m 0
 247 142 252 137 252 130 c 0
 252 123 247 118 240 118 c 0
 233 118 228 123 228 130 c 0
 228 137 233 142 240 142 c 0
EndSplineSet
Substitution2: "'onum' Oldstyle Figures lookup 25 subtable" divide.osf
Substitution2: "'tnum' Tabular Numbers lookup 24 subtable" divide.tf
AlternateSubs2: "'aalt' Access All Alternates lookup 1 subtable" divide.tf divide.osf
EndChar

StartChar: oslash
Encoding: 248 248 216
Width: 559
GlyphClass: 2
Flags: MW
HStem: -9.21001 7.58 520.08 7.57001
VStem: 77.86 8.2 473.35 8.21001
AnchorPoint: "Anchor-11" 0 0 basechar 0
AnchorPoint: "Anchor-10" 0 0 basechar 0
AnchorPoint: "Anchor-9" 280 518 basechar 0
AnchorPoint: "Anchor-8" 0 0 basechar 0
LayerCount: 2
Fore
SplineSet
365.83 509.16 m 1
 438.76 473.521 481.562 387.58 481.562 262 c 0
 481.562 89 403.282 -9.20996 279.212 -9.20996 c 0
 250.312 -9.20996 224.031 -3.87988 200.701 6.37012 c 1
 159.921 -113.93 l 1
 152.571 -112.21 l 1
 193.621 9.67969 l 1
 120.161 46.0898 77.8613 133.52 77.8613 258.22 c 0
 77.8613 431 158.711 527.65 281.001 527.65 c 0
 309.511 527.65 335.551 522.471 358.73 512.431 c 1
 398.5 632.57 l 1
 405.85 630.86 l 1
 365.83 509.16 l 1
86.0625 258.22 m 0
 86.0625 137.3 126.251 52.5498 196.361 17.0195 c 1
 356.682 504.829 l 1
 334.191 514.879 308.842 520.079 280.992 520.079 c 0
 163.353 520.079 86.0625 426.859 86.0625 258.22 c 0
279.211 -1.63086 m 0
 398.641 -1.63086 473.351 93.5898 473.351 262.02 c 0
 473.351 383.319 432.801 466.959 363.011 501.839 c 1
 202.69 13.999 l 1
 225.36 3.71875 250.971 -1.63086 279.211 -1.63086 c 0
EndSplineSet
Substitution2: "'smcp' Lowercase to Small Capitals lookup 24 subtable" oslash.sc
Substitution2: "'aalt' Access All Alternates lookup 0 subtable" oslash.sc
EndChar

StartChar: ugrave
Encoding: 249 249 244
Width: 575
GlyphClass: 2
Flags: MW
HStem: -9.22 7.57001 0 21G<445.429 445.429> 497.64 20G
VStem: 117.86 8 444.57 8
AnchorPoint: "Anchor-11" 0 0 basechar 0
AnchorPoint: "Anchor-10" 0 0 basechar 0
AnchorPoint: "Anchor-9" 289 518 basechar 0
AnchorPoint: "Anchor-8" 463 0 basechar 0
LayerCount: 2
Fore
SplineSet
380.71 665.71 m 1
 377.569 659.641 l 1
 207.359 742.07 l 1
 211.14 750.5 l 1
 380.71 665.71 l 1
452.569 0.000976562 m 1x78
 445.429 0 l 1x78
 445.219 113 l 1
 405.148 40.21 346.358 -9.21973 260.358 -9.21973 c 0
 171.858 -9.21973 117.858 46 117.858 149.78 c 2
 117.858 517.641 l 1
 125.858 517.641 l 1
 125.858 150.211 l 2
 125.858 50.3506 176.929 -1.64941 261.219 -1.64941 c 0xb8
 346.289 -1.64941 403.789 49.9209 444.569 123.851 c 1
 444.569 517.641 l 1
 452.569 517.641 l 1
 452.569 0.000976562 l 1x78
EndSplineSet
Substitution2: "'smcp' Lowercase to Small Capitals lookup 24 subtable" ugrave.sc
Substitution2: "'aalt' Access All Alternates lookup 0 subtable" ugrave.sc
EndChar
StartChar: uacute
Encoding: 250 250 662
Width: 575
GlyphClass: 2
Flags: MW
HStem: -9 7<219 303> 0 21G<445 453 445 445> 498 20G<118 126 126 126 445 453 453 453>
VStem: 118 8<150 518> 445 8<0 113 113 113 124 518 0 518>
AnchorPoint: "Anchor-14" 0 0 basechar 0
AnchorPoint: "Anchor-13" 463 518 basechar 0
AnchorPoint: "Anchor-12" 289 751 basechar 0
AnchorPoint: "Anchor-11" 463 0 basechar 0
AnchorPoint: "Anchor-10" 289 0 basechar 0
LayerCount: 2
Back
Fore
SplineSet
366 751 m 1
 369 742 l 1
 199 660 l 1
 196 666 l 1
 366 751 l 1
453 518 m 1
 453 0 l 1
 445 0 l 1x78
 445 113 l 1
 405 40 346 -9 260 -9 c 0
 172 -9 118 46 118 150 c 2
 118 518 l 1
 126 518 l 1
 126 150 l 2
 126 50 177 -2 261 -2 c 0
 346 -2 404 50 445 124 c 1
 445 518 l 1
 453 518 l 1
EndSplineSet
Substitution2: "'smcp' Lowercase to Small Capitals lookup 27 subtable" uacute.sc
Substitution2: "'aalt' Access All Alternates lookup 0 subtable" uacute.sc
EndChar
StartChar: ucircumflex
Encoding: 251 251 666
Width: 575
GlyphClass: 2
Flags: MW
HStem: -9 7<219 303> 0 21G<445 453 445 445> 498 20G<118 126 126 126 445 453 453 453> 742 8<290 290>
VStem: 118 8<150 518> 445 8<0 113 113 113 124 518 0 518>
AnchorPoint: "Anchor-14" 0 0 basechar 0
AnchorPoint: "Anchor-13" 463 518 basechar 0
AnchorPoint: "Anchor-12" 291 750 basechar 0
AnchorPoint: "Anchor-11" 463 0 basechar 0
AnchorPoint: "Anchor-10" 289 0 basechar 0
LayerCount: 2
Back
Fore
SplineSet
180 658 m 1
 175 663 l 1
 287 750 l 1
 292 750 l 1
 403 663 l 1
 398 658 l 1
 290 742 l 1
 180 658 l 1
453 518 m 1
 453 0 l 1
 445 0 l 1x7c
 445 113 l 1
 405 40 346 -9 260 -9 c 0
 172 -9 118 46 118 150 c 2
 118 518 l 1
 126 518 l 1
 126 150 l 2
 126 50 177 -2 261 -2 c 0
 346 -2 404 50 445 124 c 1
 445 518 l 1
 453 518 l 1
EndSplineSet
Substitution2: "'smcp' Lowercase to Small Capitals lookup 27 subtable" ucircumflex.sc
Substitution2: "'aalt' Access All Alternates lookup 0 subtable" ucircumflex.sc
EndChar

StartChar: udieresis
Encoding: 252 252 243
Width: 575
GlyphClass: 2
Flags: MW
HStem: -9.22 7.57001 0 21G<452.57 452.57> 497.64 20G 677.07 20.14
VStem: 117.86 8 444.57 8
AnchorPoint: "Anchor-11" 0 0 basechar 0
AnchorPoint: "Anchor-10" 0 0 basechar 0
AnchorPoint: "Anchor-9" 289 604 basechar 0
AnchorPoint: "Anchor-8" 463 0 basechar 0
LayerCount: 2
Fore
SplineSet
211.57 697.21 m 0
 218.141 697.21 221.851 692.5 221.851 687.14 c 0
 221.851 681.79 218.141 677.07 211.57 677.07 c 0
 205.21 677.07 201.5 681.79 201.5 687.14 c 0
 201.5 692.5 205.21 697.21 211.57 697.21 c 0
365.71 697.21 m 0
 372.07 697.21 375.78 692.5 375.78 687.14 c 0
 375.78 681.79 372.07 677.07 365.71 677.07 c 0
 359.14 677.07 355.43 681.79 355.43 687.14 c 0
 355.43 692.5 359.14 697.21 365.71 697.21 c 0
452.57 -0 m 1x7c
 445.43 -0.000976562 l 1x7c
 445.21 112.999 l 1
 405.14 40.209 346.359 -9.2207 260.359 -9.2207 c 0
 171.859 -9.2207 117.859 45.999 117.859 149.779 c 2
 117.859 517.64 l 1
 125.859 517.64 l 1
 125.859 150.21 l 2
 125.859 50.3496 176.93 -1.65039 261.21 -1.65039 c 0xbc
 346.28 -1.65039 403.78 49.9199 444.57 123.85 c 1
 444.57 517.64 l 1
 452.57 517.64 l 1
 452.57 -0 l 1x7c
EndSplineSet
Substitution2: "'smcp' Lowercase to Small Capitals lookup 24 subtable" udieresis.sc
Substitution2: "'aalt' Access All Alternates lookup 0 subtable" udieresis.sc
EndChar

StartChar: yacute
Encoding: 253 253 258
Width: 437
GlyphClass: 2
Flags: MW
HStem: -190.71 21G 0 21G 497.65 20G
VStem: 27.86 381.28
AnchorPoint: "Anchor-11" 0 0 basechar 0
AnchorPoint: "Anchor-10" 0 0 basechar 0
AnchorPoint: "Anchor-9" 217 518 basechar 0
AnchorPoint: "Anchor-8" 0 0 basechar 0
LayerCount: 2
Fore
SplineSet
297.28 742.07 m 1
 127.069 659.649 l 1
 123.93 665.72 l 1
 293.5 750.5 l 1
 297.28 742.07 l 1
230.069 -0.420898 m 2
 190.859 -113.071 166.07 -160.28 60.3604 -190.71 c 1
 59.5 -184 l 1
 161.93 -153.78 183.93 -109.431 222.5 -0.000976562 c 1
 218.36 -0.000976562 l 1
 27.8604 517.649 l 1
 36.5 517.649 l 1
 224.43 4.92969 l 1
 400.29 517.649 l 1
 409.14 517.649 l 1
 230.069 -0.420898 l 2
EndSplineSet
Substitution2: "'smcp' Lowercase to Small Capitals lookup 24 subtable" yacute.sc
Substitution2: "'aalt' Access All Alternates lookup 0 subtable" yacute.sc
EndChar
StartChar: thorn
Encoding: 254 254 602
Width: 568
GlyphClass: 2
Flags: MW
HStem: -191 21G<131 131> -9 7<264 359 264 362> 520 8<267 362.5> 712 20G<131 131>
VStem: 123 8<-191 93 103 416 426 731 731 731> 477 8<181.5 346>
LayerCount: 2
Back
Fore
SplineSet
307 528 m 0
 422 528 485 432 485 264 c 0
 485 95 422 -9 302 -9 c 0
 224 -9 169 34 131 93 c 1
 131 -191 l 1
 123 -192 l 1
 123 731 l 1
 131 732 l 1
 131 426 l 1
 172 484 226 528 307 528 c 0
302 -2 m 0
 416 -2 477 99 477 264 c 0
 477 428 418 520 307 520 c 0
 227 520 176 479 131 416 c 1
 131 103 l 1
 172 40 226 -2 302 -2 c 0
EndSplineSet
Substitution2: "'smcp' Lowercase to Small Capitals lookup 27 subtable" thorn.sc
Substitution2: "'aalt' Access All Alternates lookup 0 subtable" thorn.sc
EndChar
StartChar: ydieresis
Encoding: 255 255 706
Width: 437
GlyphClass: 2
Flags: MW
HStem: -191 21G<60 60> 0 21G<218 223 218 218 230 230> 498 20G<28 37 37 37 400 409 409 409> 677 20<138 144.5 292 298.5>
VStem: 28 381<518 518>
AnchorPoint: "Anchor-14" 0 0 basechar 0
AnchorPoint: "Anchor-13" 0 0 basechar 0
AnchorPoint: "Anchor-12" 221 697 basechar 0
AnchorPoint: "Anchor-11" 0 0 basechar 0
AnchorPoint: "Anchor-10" 226 -189 basechar 0
LayerCount: 2
Back
Fore
SplineSet
141 697 m 0
 148 697 151 693 151 687 c 0
 151 682 148 677 141 677 c 0
 135 677 131 682 131 687 c 0
 131 693 135 697 141 697 c 0
295 697 m 0
 302 697 305 693 305 687 c 0
 305 682 302 677 295 677 c 0
 289 677 285 682 285 687 c 0
 285 693 289 697 295 697 c 0
409 518 m 1
 230 0 l 2
 191 -113 166 -160 60 -191 c 1
 60 -184 l 1
 162 -154 184 -109 223 0 c 1
 218 0 l 1
 28 518 l 1
 37 518 l 1
 224 5 l 1
 400 518 l 1
 409 518 l 1
EndSplineSet
Substitution2: "'smcp' Lowercase to Small Capitals lookup 27 subtable" ydieresis.sc
Substitution2: "'aalt' Access All Alternates lookup 0 subtable" ydieresis.sc
EndChar

StartChar: Amacron
Encoding: 256 256 7
Width: 556
GlyphClass: 2
Flags: MW
HStem: 0 21G<32.8604 41.0703 32.8604 32.8604 514.931 514.931 514.931 523.57> 210 7.78 660.43 20G 813.71 7.78999
VStem: 32.86 490.71
AnchorPoint: "Anchor-11" 0 0 basechar 0
AnchorPoint: "Anchor-10" 146 680 basechar 0
AnchorPoint: "Anchor-9" 278 680 basechar 0
AnchorPoint: "Anchor-8" 534 0 basechar 0
LayerCount: 2
Fore
SplineSet
375.78 813.71 m 1
 180.641 813.71 l 1
 180.641 821.5 l 1
 375.78 821.5 l 1
 375.78 813.71 l 1
440.871 210 m 1
 114.771 210 l 1
 41.0703 0 l 1
 32.8604 -0 l 1
 272.57 680.43 l 1
 282.29 680.43 l 1
 523.57 0 l 1
 514.931 0 l 1
 440.871 210 l 1
438.131 217.78 m 1
 277.431 673.5 l 1
 117.501 217.78 l 1
 438.131 217.78 l 1
EndSplineSet
Substitution2: "'c2sc' Capitals to Small Capitals lookup 23 subtable" amacron.sc
Substitution2: "'aalt' Access All Alternates lookup 0 subtable" amacron.sc
Position2: "'cpsp' Capital Spacing lookup 0 subtable" dx=5 dy=0 dh=10 dv=0
EndChar
StartChar: Abreve
Encoding: 258 258 4
Width: 556
GlyphClass: 2
Flags: MW
HStem: 0 21G<33 41 33 33 515 524 515 515> 210 8<118 438 118 441 115 438> 660 20G<273 282 282 282> 773 8<255 302.5 255 307>
VStem: 33 491<0 0>
AnchorPoint: "Anchor-14" 0 0 basechar 0
AnchorPoint: "Anchor-13" 0 0 basechar 0
AnchorPoint: "Anchor-12" 281 840 basechar 0
AnchorPoint: "Anchor-11" 534 0 basechar 0
AnchorPoint: "Anchor-10" 278 0 basechar 0
LayerCount: 2
Back
Fore
SplineSet
279 773 m 0
 223 773 190 806 179 838 c 1
 185 840 l 1
 198 806 231 781 279 781 c 0
 326 781 359 806 372 840 c 1
 378 838 l 1
 368 806 335 773 279 773 c 0
515 0 m 1
 441 210 l 1
 115 210 l 1
 41 0 l 1
 33 0 l 1
 273 680 l 1
 282 680 l 1
 524 0 l 1
 515 0 l 1
118 218 m 1
 438 218 l 1
 277 674 l 1
 118 218 l 1
EndSplineSet
Substitution2: "'c2sc' Capitals to Small Capitals lookup 26 subtable" abreve.sc
Substitution2: "'aalt' Access All Alternates lookup 0 subtable" abreve.sc
Position2: "'cpsp' Capital Spacing lookup 0 subtable" dx=5 dy=0 dh=10 dv=0
EndChar

StartChar: Aogonek
Encoding: 260 260 8
Width: 556
GlyphClass: 2
Flags: MW
HStem: -196.57 8 0 21G<32.8506 41.0703 32.8506 32.8506 523.561 523.561 523.561 523.57> 210 7.78 660.43 20G
VStem: 382.92 8.64999
AnchorPoint: "Anchor-11" 0 0 basechar 0
AnchorPoint: "Anchor-10" 146 680 basechar 0
AnchorPoint: "Anchor-9" 278 680 basechar 0
AnchorPoint: "Anchor-8" 534 0 basechar 0
LayerCount: 2
Fore
SplineSet
391.57 -120.22 m 0
 391.57 -165 421.062 -188.57 465.701 -188.57 c 0
 483.701 -188.57 496.921 -186.57 518.701 -181 c 1
 518.062 -189 l 1
 496.491 -194.57 483.841 -196.57 464.841 -196.57 c 0
 414.491 -196.57 382.921 -169 382.921 -120.43 c 0
 382.921 -59.79 448.331 -23.2998 514.131 2.23047 c 1
 440.871 210 l 1
 114.761 210 l 1
 41.0703 0 l 1
 32.8506 -0 l 1
 272.57 680.43 l 1
 282.28 680.43 l 1
 523.57 0 l 1
 523.561 0 l 1
 463.061 -23.4297 391.57 -58.7197 391.57 -120.22 c 0
438.121 217.78 m 1
 277.421 673.5 l 1
 117.491 217.78 l 1
 438.121 217.78 l 1
EndSplineSet
Substitution2: "'c2sc' Capitals to Small Capitals lookup 23 subtable" aogonek.sc
Substitution2: "'aalt' Access All Alternates lookup 0 subtable" aogonek.sc
Position2: "'cpsp' Capital Spacing lookup 0 subtable" dx=5 dy=0 dh=10 dv=0
EndChar
StartChar: aogonek
Encoding: 261 261 362
Width: 525
GlyphClass: 2
Flags: MW
HStem: -206 8<367.5 399 367.5 399.5> -9 7<175 262> -6 21G -3 21G<451 451> 298 7<269 271 271 392> 520 8<231 305>
VStem: 69 8<102 194 102 196> 308 8<-151.5 -129 -151.5 -99> 392 8<112 298 298 298 305 371 371 372>
AnchorPoint: "Anchor-14" 0 0 basechar 0
AnchorPoint: "Anchor-13" 0 0 basechar 0
AnchorPoint: "Anchor-12" 251 518 basechar 0
AnchorPoint: "Anchor-11" 458 -9 basechar 0
AnchorPoint: "Anchor-10" 251 0 basechar 0
LayerCount: 2
Back
Fore
SplineSet
316 -129 m 1xcf80
 316 -174 345 -198 390 -198 c 0
 408 -198 422 -196 443 -190 c 1
 443 -198 l 1
 421 -204 409 -206 390 -206 c 0
 339 -206 308 -178 308 -129 c 0
 308 -69 373 -32 440 -6 c 1xaf80
 404 9 393 37 392 100 c 1
 357 29 303 -9 221 -9 c 0xcf80
 123 -9 69 55 69 145 c 0
 69 247 146 305 269 305 c 2
 392 305 l 1
 392 371 l 2
 392 464 356 520 254 520 c 0
 208 520 162 509 109 487 c 1
 106 494 l 1
 160 516 207 528 254 528 c 0
 360 528 400 470 400 372 c 2
 400 110 l 2
 400 38 410 10 451 -3 c 1
 448 -9 l 1x9f80
 316 -129 l 1xcf80
221 -2 m 0
 306 -2 356 39 392 112 c 1
 392 298 l 1
 271 298 l 2
 151 298 77 243 77 145 c 0
 77 59 129 -2 221 -2 c 0
EndSplineSet
Substitution2: "'smcp' Lowercase to Small Capitals lookup 27 subtable" aogonek.sc
Substitution2: "'aalt' Access All Alternates lookup 0 subtable" aogonek.sc
EndChar

StartChar: Cacute
Encoding: 262 262 15
Width: 532
GlyphClass: 2
Flags: MW
HStem: -9.21001 8 682.64 7.78999
VStem: 82.86 8.42
AnchorPoint: "Anchor-11" 341 0 basechar 0
AnchorPoint: "Anchor-10" 0 0 basechar 0
AnchorPoint: "Anchor-9" 343 680 basechar 0
AnchorPoint: "Anchor-8" 0 0 basechar 0
LayerCount: 2
Fore
SplineSet
435.35 839.35 m 1
 265.499 768.859 l 1
 262.779 774.93 l 1
 431.14 847.779 l 1
 435.35 839.35 l 1
342.639 690.43 m 0
 416.849 690.43 460.28 665.069 497.21 632.999 c 1
 492.78 626.719 l 1
 455.21 658.789 413.71 682.639 343.07 682.639 c 0
 197.71 682.639 91.2803 573.499 91.2803 339.429 c 0
 91.2803 117.358 194.71 -1.21191 341.43 -1.21191 c 0
 421.14 -1.21191 467.21 29.0684 501.14 57.5684 c 1
 506 51.0684 l 1
 471.43 21.7188 422.359 -9.21094 341.209 -9.21094 c 0
 188.429 -9.21094 82.8584 113.569 82.8584 339.43 c 0
 82.8584 577 192.068 690.43 342.639 690.43 c 0
EndSplineSet
Substitution2: "'c2sc' Capitals to Small Capitals lookup 23 subtable" cacute.sc
Substitution2: "'locl' Localized Forms in Latin lookup 7 subtable" Cacute.loclPLK
AlternateSubs2: "'aalt' Access All Alternates lookup 1 subtable" Cacute.loclPLK cacute.sc
Position2: "'cpsp' Capital Spacing lookup 0 subtable" dx=5 dy=0 dh=10 dv=0
EndChar
StartChar: cacute
Encoding: 263 263 381
Width: 468
GlyphClass: 2
Flags: MW
HStem: -9 7<225 309.5 225 311> 520 8<223 308.5>
VStem: 78 8<173 339.5 173 341>
AnchorPoint: "Anchor-14" 0 0 basechar 0
AnchorPoint: "Anchor-13" 0 0 basechar 0
AnchorPoint: "Anchor-12" 272 751 basechar 0
AnchorPoint: "Anchor-11" 0 0 basechar 0
AnchorPoint: "Anchor-10" 285 -1 basechar 0
LayerCount: 2
Back
Fore
SplineSet
349 751 m 1
 352 742 l 1
 182 660 l 1
 179 666 l 1
 349 751 l 1
282 528 m 0
 336 528 376 511 412 478 c 1
 407 472 l 1
 373 504 334 520 283 520 c 0
 163 520 86 423 86 256 c 0
 86 90 169 -2 281 -2 c 0
 338 -2 378 19 411 49 c 1
 417 44 l 1
 383 13 341 -9 281 -9 c 0
 163 -9 78 86 78 256 c 0
 78 426 156 528 282 528 c 0
EndSplineSet
Substitution2: "'smcp' Lowercase to Small Capitals lookup 27 subtable" cacute.sc
Substitution2: "'locl' Localized Forms in Latin lookup 7 subtable" cacute.loclPLK
AlternateSubs2: "'aalt' Access All Alternates lookup 1 subtable" cacute.loclPLK cacute.sc
EndChar

StartChar: Ccircumflex
Encoding: 264 264 18
Width: 532
GlyphClass: 2
Flags: MW
HStem: -9.22 8 682.64 7.78 847.14 8.64
VStem: 82.86 8.42
AnchorPoint: "Anchor-11" 341 0 basechar 0
AnchorPoint: "Anchor-10" 0 0 basechar 0
AnchorPoint: "Anchor-9" 343 680 basechar 0
AnchorPoint: "Anchor-8" 0 0 basechar 0
LayerCount: 2
Fore
SplineSet
342 847.14 m 1
 233.43 768.92 l 1
 228.64 773.57 l 1
 339.5 855.78 l 1
 344.5 855.78 l 1
 456.71 773.57 l 1
 451.93 768.92 l 1
 342 847.14 l 1
342.64 690.42 m 0
 416.85 690.42 460.281 665.071 497.211 633.001 c 1
 492.781 626.711 l 1
 455.211 658.781 413.711 682.642 343.071 682.642 c 0
 197.711 682.642 91.2812 573.491 91.2812 339.421 c 0
 91.2812 117.351 194.711 -1.21973 341.431 -1.21973 c 0
 421.141 -1.21973 467.211 29.0703 501.141 57.5703 c 1
 506.001 51.0703 l 1
 471.431 21.71 422.36 -9.21973 341.21 -9.21973 c 0
 188.43 -9.21973 82.8594 113.57 82.8594 339.42 c 0
 82.8594 576.99 192.069 690.42 342.64 690.42 c 0
EndSplineSet
Substitution2: "'c2sc' Capitals to Small Capitals lookup 23 subtable" ccircumflex.sc
Substitution2: "'aalt' Access All Alternates lookup 0 subtable" ccircumflex.sc
Position2: "'cpsp' Capital Spacing lookup 0 subtable" dx=5 dy=0 dh=10 dv=0
EndChar
StartChar: ccircumflex
Encoding: 265 265 385
Width: 468
GlyphClass: 2
Flags: MW
HStem: -9 7<225 309.5 225 311> 520 8<223 308.5> 742 8<273 273>
VStem: 78 8<173 339.5 173 341>
AnchorPoint: "Anchor-14" 0 0 basechar 0
AnchorPoint: "Anchor-13" 0 0 basechar 0
AnchorPoint: "Anchor-12" 274 750 basechar 0
AnchorPoint: "Anchor-11" 0 0 basechar 0
AnchorPoint: "Anchor-10" 285 -1 basechar 0
LayerCount: 2
Back
Fore
SplineSet
163 658 m 1
 158 663 l 1
 270 750 l 1
 275 750 l 1
 386 663 l 1
 381 658 l 1
 273 742 l 1
 163 658 l 1
282 528 m 0
 336 528 376 511 412 478 c 1
 407 472 l 1
 373 504 334 520 283 520 c 0
 163 520 86 423 86 256 c 0
 86 90 169 -2 281 -2 c 0
 338 -2 378 19 411 49 c 1
 417 44 l 1
 383 13 341 -9 281 -9 c 0
 163 -9 78 86 78 256 c 0
 78 426 156 528 282 528 c 0
EndSplineSet
Substitution2: "'smcp' Lowercase to Small Capitals lookup 27 subtable" ccircumflex.sc
Substitution2: "'aalt' Access All Alternates lookup 0 subtable" ccircumflex.sc
EndChar
StartChar: Cdotaccent
Encoding: 266 266 49
Width: 532
GlyphClass: 2
Flags: MW
HStem: -9 8<268 381 268 381.5> 683 7<270.5 378.5> 817 20<340 346.5>
VStem: 83 8<228 456.5 228 458>
AnchorPoint: "Anchor-14" 324 342 basechar 0
AnchorPoint: "Anchor-13" 0 0 basechar 0
AnchorPoint: "Anchor-12" 345 837 basechar 0
AnchorPoint: "Anchor-11" 0 0 basechar 0
AnchorPoint: "Anchor-10" 341 0 basechar 0
LayerCount: 2
Back
Fore
SplineSet
343 837 m 0
 350 837 354 832 354 827 c 0
 354 822 350 817 343 817 c 0
 337 817 333 822 333 827 c 0
 333 832 337 837 343 837 c 0
343 690 m 0
 417 690 460 665 497 633 c 1
 493 627 l 1
 455 659 414 683 343 683 c 0
 198 683 91 574 91 339 c 0
 91 117 195 -1 341 -1 c 0
 421 -1 467 29 501 58 c 1
 506 51 l 1
 471 22 422 -9 341 -9 c 0
 188 -9 83 114 83 339 c 0
 83 577 192 690 343 690 c 0
EndSplineSet
Substitution2: "'c2sc' Capitals to Small Capitals lookup 26 subtable" cdotaccent.sc
Substitution2: "'aalt' Access All Alternates lookup 0 subtable" cdotaccent.sc
Position2: "'cpsp' Capital Spacing lookup 0 subtable" dx=5 dy=0 dh=10 dv=0
EndChar
StartChar: cdotaccent
Encoding: 267 267 387
Width: 468
GlyphClass: 2
Flags: MW
HStem: -9 7<225 309.5 225 311> 520 8<223 308.5> 691 20<269 275.5>
VStem: 78 8<173 339.5 173 341>
AnchorPoint: "Anchor-14" 0 0 basechar 0
AnchorPoint: "Anchor-13" 0 0 basechar 0
AnchorPoint: "Anchor-12" 272 693 basechar 0
AnchorPoint: "Anchor-11" 0 0 basechar 0
AnchorPoint: "Anchor-10" 285 -1 basechar 0
LayerCount: 2
Back
Fore
SplineSet
272 711 m 0
 279 711 283 706 283 701 c 0
 283 696 279 691 272 691 c 0
 266 691 262 696 262 701 c 0
 262 706 266 711 272 711 c 0
282 528 m 0
 336 528 376 511 412 478 c 1
 407 472 l 1
 373 504 334 520 283 520 c 0
 163 520 86 423 86 256 c 0
 86 90 169 -2 281 -2 c 0
 338 -2 378 19 411 49 c 1
 417 44 l 1
 383 13 341 -9 281 -9 c 0
 163 -9 78 86 78 256 c 0
 78 426 156 528 282 528 c 0
EndSplineSet
Substitution2: "'smcp' Lowercase to Small Capitals lookup 27 subtable" cdotaccent.sc
Substitution2: "'aalt' Access All Alternates lookup 0 subtable" cdotaccent.sc
EndChar

StartChar: Ccaron
Encoding: 268 268 16
Width: 532
GlyphClass: 2
Flags: MW
HStem: -9.21001 8 682.64 7.78999 763.5 8.64
VStem: 82.85 8.42999
AnchorPoint: "Anchor-11" 341 0 basechar 0
AnchorPoint: "Anchor-10" 0 0 basechar 0
AnchorPoint: "Anchor-9" 343 680 basechar 0
AnchorPoint: "Anchor-8" 0 0 basechar 0
LayerCount: 2
Fore
SplineSet
460.14 845.71 m 1
 347.919 763.5 l 1
 342.919 763.5 l 1
 232.069 845.71 l 1
 236.85 850.36 l 1
 345.42 772.141 l 1
 455.35 850.36 l 1
 460.14 845.71 l 1
342.639 690.43 m 0
 416.858 690.43 460.28 665.069 497.21 632.999 c 1
 492.78 626.719 l 1
 455.21 658.789 413.71 682.639 343.06 682.639 c 0
 197.71 682.639 91.2803 573.499 91.2803 339.429 c 0
 91.2803 117.358 194.71 -1.21191 341.42 -1.21191 c 0
 421.14 -1.21191 467.21 29.0684 501.14 57.5684 c 1
 505.989 51.0684 l 1
 471.419 21.7188 422.349 -9.21094 341.209 -9.21094 c 0
 188.419 -9.21094 82.8486 113.569 82.8486 339.43 c 0
 82.8486 577 192.068 690.43 342.639 690.43 c 0
EndSplineSet
Substitution2: "'c2sc' Capitals to Small Capitals lookup 23 subtable" ccaron.sc
Substitution2: "'aalt' Access All Alternates lookup 0 subtable" ccaron.sc
Position2: "'cpsp' Capital Spacing lookup 0 subtable" dx=5 dy=0 dh=10 dv=0
EndChar
StartChar: ccaron
Encoding: 269 269 383
Width: 468
GlyphClass: 2
Flags: MW
HStem: -9 7<225 309.5 225 311> 520 8<223 308.5> 646 9<271 271 271 274 269 271> 713 20G<158 158 386 386> 718 20G<163 163 381 381>
VStem: 78 8<173 339.5 173 341>
AnchorPoint: "Anchor-14" 0 0 basechar 0
AnchorPoint: "Anchor-13" 0 0 basechar 0
AnchorPoint: "Anchor-12" 274 738 basechar 0
AnchorPoint: "Anchor-11" 0 0 basechar 0
AnchorPoint: "Anchor-10" 285 -1 basechar 0
LayerCount: 2
Back
Fore
SplineSet
381 738 m 1xec
 386 733 l 1xf4
 274 646 l 1
 269 646 l 1
 158 733 l 1
 163 738 l 1
 271 655 l 1
 381 738 l 1xec
282 528 m 0
 336 528 376 511 412 478 c 1
 407 472 l 1
 373 504 334 520 283 520 c 0
 163 520 86 423 86 256 c 0
 86 90 169 -2 281 -2 c 0
 338 -2 378 19 411 49 c 1
 417 44 l 1
 383 13 341 -9 281 -9 c 0
 163 -9 78 86 78 256 c 0
 78 426 156 528 282 528 c 0
EndSplineSet
Substitution2: "'smcp' Lowercase to Small Capitals lookup 27 subtable" ccaron.sc
Substitution2: "'aalt' Access All Alternates lookup 0 subtable" ccaron.sc
EndChar

StartChar: Dcaron
Encoding: 270 270 22
Width: 615
GlyphClass: 2
Flags: MW
HStem: 0 7.78999 672.64 7.78999 763.5 8.64
VStem: 127.86 8.2 523.64 8.42999
AnchorPoint: "Anchor-11" 0 0 basechar 0
AnchorPoint: "Anchor-10" 0 0 basechar 0
AnchorPoint: "Anchor-9" 291 680 basechar 0
AnchorPoint: "Anchor-8" 0 0 basechar 0
LayerCount: 2
Fore
SplineSet
408.07 845.71 m 1
 295.85 763.5 l 1
 290.85 763.5 l 1
 180 845.71 l 1
 184.78 850.36 l 1
 293.351 772.141 l 1
 403.28 850.36 l 1
 408.07 845.71 l 1
237.21 680.43 m 2
 381.64 680.43 532.07 626.21 532.07 348 c 0
 532.07 67.2803 381.29 0 243.36 0 c 2
 127.86 -0 l 1
 127.86 680.43 l 1
 237.21 680.43 l 2
136.071 672.64 m 1
 136.062 7.78906 l 1
 243.562 7.78906 l 2
 379.991 7.78906 523.642 74.4287 523.642 347.999 c 0
 523.642 621.859 376.571 672.64 236.571 672.64 c 2
 136.071 672.64 l 1
EndSplineSet
Substitution2: "'c2sc' Capitals to Small Capitals lookup 23 subtable" dcaron.sc
Substitution2: "'aalt' Access All Alternates lookup 0 subtable" dcaron.sc
Position2: "'cpsp' Capital Spacing lookup 0 subtable" dx=5 dy=0 dh=10 dv=0
EndChar
StartChar: dcaron
Encoding: 271 271 394
Width: 573
GlyphClass: 2
Flags: MW
HStem: -9 7<217 316 217 316.5> 0 21G<443 450 443 443> 520 8<221.5 322> 711 20G<450 450 549 558 558 558> 712 20G<442 442>
VStem: 83 8<175 335.5 175 337> 442 8<97 97 110 420 420 420 431 731 0 732 0 732>
AnchorPoint: "Anchor-14" 290 259 basechar 0
AnchorPoint: "Anchor-13" 496 729 basechar 0
AnchorPoint: "Anchor-12" 280 729 basechar 0
AnchorPoint: "Anchor-11" 0 0 basechar 0
AnchorPoint: "Anchor-10" 290 0 basechar 0
LayerCount: 2
Back
Fore
SplineSet
442 431 m 1xae
 442 732 l 1
 450 731 l 1
 450 0 l 1
 443 0 l 1x6e
 442 97 l 1
 409 38 361 -9 272 -9 c 0
 158 -9 83 88 83 257 c 0
 83 417 155 528 281 528 c 0
 365 528 417 477 442 431 c 1xae
549 731 m 1xb6
 558 731 l 1
 536 591 l 1
 530 592 l 1
 549 731 l 1xb6
272 -2 m 0
 360 -2 407 45 442 110 c 1
 442 420 l 1
 414 470 363 520 281 520 c 0
 162 520 91 414 91 257 c 0
 91 93 162 -2 272 -2 c 0
EndSplineSet
Substitution2: "'smcp' Lowercase to Small Capitals lookup 27 subtable" dcaron.sc
Substitution2: "'aalt' Access All Alternates lookup 0 subtable" dcaron.sc
EndChar

StartChar: Dcroat
Encoding: 272 272 23
Width: 609
GlyphClass: 2
Flags: MW
HStem: 0 7.78 349.21 7.57001 672.64 7.78999
VStem: 122.29 8.21001 518.07 8.42999
AnchorPoint: "Anchor-11" 0 0 basechar 0
AnchorPoint: "Anchor-10" 0 0 basechar 0
AnchorPoint: "Anchor-9" 285 680 basechar 0
AnchorPoint: "Anchor-8" 0 0 basechar 0
LayerCount: 2
Fore
SplineSet
231.64 680.43 m 2
 376.069 680.43 526.5 626.209 526.5 347.999 c 0
 526.5 67.2793 375.72 -0.000976562 237.79 -0.000976562 c 2
 122.29 -0.000976562 l 1
 122.29 349.209 l 1
 28.9297 349.209 l 1
 28.9297 356.779 l 1
 122.29 356.779 l 1
 122.29 680.43 l 1
 231.64 680.43 l 2
238.001 7.77832 m 2
 374.431 7.77832 518.071 74.4287 518.071 347.999 c 0
 518.071 621.849 371.001 672.639 231.001 672.639 c 2
 130.501 672.639 l 1
 130.501 356.778 l 1
 325.211 356.778 l 1
 325.211 349.208 l 1
 130.501 349.208 l 1
 130.501 7.77832 l 1
 238.001 7.77832 l 2
EndSplineSet
Substitution2: "'c2sc' Capitals to Small Capitals lookup 23 subtable" dcroat.sc
Substitution2: "'aalt' Access All Alternates lookup 0 subtable" dcroat.sc
Position2: "'cpsp' Capital Spacing lookup 0 subtable" dx=5 dy=0 dh=10 dv=0
EndChar

StartChar: dcroat
Encoding: 273 273 156
Width: 578
GlyphClass: 2
Flags: MW
HStem: -9.22 7.57001 0 21G<442.639 449.778 442.639 442.639> 520.07 7.57001 635.21 7.35001 635.21 7.36 635.21 96.5
VStem: 82.85 8.22 441.78 8
LayerCount: 2
Fore
SplineSet
524.78 635.21 m 1xb3
 449.778 635.21 l 1
 449.778 0 l 1
 442.639 0 l 1x73
 441.809 97.1504 l 1
 408.599 38.4307 361.238 -9.21973 271.929 -9.21973 c 0
 157.499 -9.21973 82.8486 87.6406 82.8486 257.211 c 0
 82.8486 417.421 154.919 527.641 280.569 527.641 c 0
 364.97 527.641 416.54 477.44 441.78 430.851 c 1
 441.78 635.211 l 1
 264.57 635.211 l 1
 263.71 642.561 l 1
 441.78 642.561 l 1xb3
 441.78 731.711 l 1
 449.78 730.851 l 1xa7
 449.78 642.57 l 1xab
 524.78 642.57 l 1
 524.78 635.21 l 1xb3
272.139 -1.63965 m 0xab
 359.879 -1.63965 406.568 44.8418 441.778 110.021 c 1
 441.778 419.871 l 1
 414.318 470.231 363.148 520.071 280.778 520.071 c 0
 162.278 520.071 90.8486 414.361 91.0684 257.211 c 0
 91.2783 92.6406 162.139 -1.63965 272.139 -1.63965 c 0xab
EndSplineSet
Substitution2: "'smcp' Lowercase to Small Capitals lookup 24 subtable" dcroat.sc
Substitution2: "'aalt' Access All Alternates lookup 0 subtable" dcroat.sc
EndChar
StartChar: Ebreve
Encoding: 276 276 69
Width: 495
GlyphClass: 2
Flags: MW
HStem: 0 8<136 447 136 447> 357 7<136 394 136 394> 673 7<136 437 136 136> 773 8<261 308.5 261 313>
VStem: 128 8<8 357 364 673>
AnchorPoint: "Anchor-14" 0 0 basechar 0
AnchorPoint: "Anchor-13" 0 0 basechar 0
AnchorPoint: "Anchor-12" 287 840 basechar 0
AnchorPoint: "Anchor-11" 428 0 basechar 0
AnchorPoint: "Anchor-10" 284 0 basechar 0
LayerCount: 2
Back
Fore
SplineSet
285 773 m 0
 229 773 196 806 185 838 c 1
 191 840 l 1
 204 806 237 781 285 781 c 0
 332 781 365 806 378 840 c 1
 384 838 l 1
 374 806 341 773 285 773 c 0
438 680 m 1
 437 673 l 1
 136 673 l 1
 136 364 l 1
 394 364 l 1
 394 357 l 1
 136 357 l 1
 136 8 l 1
 447 8 l 1
 447 0 l 1
 128 0 l 1
 128 680 l 1
 438 680 l 1
EndSplineSet
Substitution2: "'c2sc' Capitals to Small Capitals lookup 26 subtable" ebreve.sc
Substitution2: "'aalt' Access All Alternates lookup 0 subtable" ebreve.sc
Position2: "'cpsp' Capital Spacing lookup 0 subtable" dx=5 dy=0 dh=10 dv=0
EndChar

StartChar: ebreve
Encoding: 277 277 159
Width: 528
GlyphClass: 2
Flags: MW
HStem: -9.21001 7.57001 250.29 7.14 520.07 7.57001 720.71 20G
VStem: 77.85 8.23 447.35 8
AnchorPoint: "Anchor-11" 278 0 basechar 0
AnchorPoint: "Anchor-10" 0 0 basechar 0
AnchorPoint: "Anchor-9" 276 518 basechar 0
AnchorPoint: "Anchor-8" 366 4 basechar 0
LayerCount: 2
Fore
SplineSet
275.57 666.5 m 0
 225 666.5 189.631 694.28 177.491 740.431 c 1
 180.631 740.711 l 1
 191.851 701.431 222.28 671.141 275.561 671.141 c 0
 328.851 671.141 359.28 701.431 370.49 740.711 c 1
 373.641 740.431 l 1
 361.49 694.28 326.141 666.5 275.57 666.5 c 0
455.352 286.93 m 0
 455.352 272.72 455.133 263.219 454.133 250.289 c 1
 86.083 250.289 l 1
 87.7432 85.8789 164.043 -1.64062 277.273 -1.64062 c 0
 341.424 -1.64062 383.354 19.1494 428.354 56.7197 c 1
 432.783 50.4297 l 1
 387.563 13 344.283 -9.20996 277.283 -9.20996 c 0
 156.133 -9.20996 77.8525 85.6396 77.8525 253.64 c 0
 77.8525 426 154.702 527.64 274.922 527.64 c 0
 399.422 527.64 455.352 425.5 455.352 286.93 c 0
446.562 257.429 m 1
 447.353 268.929 447.353 276.069 447.353 289.289 c 0
 447.353 420.719 394.992 520.068 275.353 520.068 c 0
 162.763 520.068 87.1924 426.259 86.082 257.429 c 1
 446.562 257.429 l 1
EndSplineSet
Substitution2: "'smcp' Lowercase to Small Capitals lookup 24 subtable" ebreve.sc
Substitution2: "'aalt' Access All Alternates lookup 0 subtable" ebreve.sc
EndChar
StartChar: Edotaccent
Encoding: 278 278 80
Width: 495
GlyphClass: 2
Flags: MW
HStem: 0 8<136 447 136 447> 357 7<136 394 136 394> 673 7<136 437 136 136> 817 20<282 288.5>
VStem: 128 8<8 357 364 673>
AnchorPoint: "Anchor-14" 0 0 basechar 0
AnchorPoint: "Anchor-13" 0 0 basechar 0
AnchorPoint: "Anchor-12" 287 837 basechar 0
AnchorPoint: "Anchor-11" 428 0 basechar 0
AnchorPoint: "Anchor-10" 284 0 basechar 0
LayerCount: 2
Back
Fore
SplineSet
285 837 m 0
 292 837 296 832 296 827 c 0
 296 822 292 817 285 817 c 0
 279 817 275 822 275 827 c 0
 275 832 279 837 285 837 c 0
438 680 m 1
 437 673 l 1
 136 673 l 1
 136 364 l 1
 394 364 l 1
 394 357 l 1
 136 357 l 1
 136 8 l 1
 447 8 l 1
 447 0 l 1
 128 0 l 1
 128 680 l 1
 438 680 l 1
EndSplineSet
Substitution2: "'c2sc' Capitals to Small Capitals lookup 26 subtable" edotaccent.sc
Substitution2: "'aalt' Access All Alternates lookup 0 subtable" edotaccent.sc
Position2: "'cpsp' Capital Spacing lookup 0 subtable" dx=5 dy=0 dh=10 dv=0
EndChar
StartChar: edotaccent
Encoding: 279 279 423
Width: 528
GlyphClass: 2
Flags: MW
HStem: -9 7<220.5 309 220.5 310.5> 250 7<86 447 86 454 86 447> 520 8<219 335> 691 20<272 278.5>
VStem: 78 8<250 250 250 257 250 340> 447 8<280 289 289 355>
AnchorPoint: "Anchor-14" 0 0 basechar 0
AnchorPoint: "Anchor-13" 0 0 basechar 0
AnchorPoint: "Anchor-12" 275 693 basechar 0
AnchorPoint: "Anchor-11" 366 4 basechar 0
AnchorPoint: "Anchor-10" 278 0 basechar 0
LayerCount: 2
Back
Fore
SplineSet
275 691 m 0
 269 691 265 696 265 701 c 0
 265 706 269 711 275 711 c 0
 282 711 286 706 286 701 c 0
 286 696 282 691 275 691 c 0
455 287 m 0
 455 273 455 263 454 250 c 1
 86 250 l 1
 88 86 164 -2 277 -2 c 0
 341 -2 383 19 428 57 c 1
 433 50 l 1
 388 13 344 -9 277 -9 c 0
 156 -9 78 86 78 254 c 0
 78 426 155 528 275 528 c 0
 399 528 455 426 455 287 c 0
447 257 m 1
 447 289 l 2
 447 421 395 520 275 520 c 0
 163 520 87 426 86 257 c 1
 447 257 l 1
EndSplineSet
Substitution2: "'smcp' Lowercase to Small Capitals lookup 27 subtable" edotaccent.sc
Substitution2: "'aalt' Access All Alternates lookup 0 subtable" edotaccent.sc
EndChar

StartChar: Eogonek
Encoding: 280 280 33
Width: 495
GlyphClass: 2
Flags: MW
HStem: -196.58 8 0 7.78 0 7.78999 356.78 7.57001 672.64 7.78
VStem: 127.85 8.22 277.14 8.64
AnchorPoint: "Anchor-11" 284 0 basechar 0
AnchorPoint: "Anchor-10" 82 680 basechar 0
AnchorPoint: "Anchor-9" 285 680 basechar 0
AnchorPoint: "Anchor-8" 428 0 basechar 0
LayerCount: 2
Fore
SplineSet
417.78 0 m 1xde
 357.28 -23.4297 285.78 -58.7188 285.78 -120.219 c 0
 285.78 -165.009 315.28 -188.579 359.92 -188.579 c 0
 377.92 -188.579 391.14 -186.579 412.92 -181.009 c 1
 412.28 -189.009 l 1
 390.71 -194.579 378.06 -196.579 359.06 -196.579 c 0
 308.71 -196.579 277.14 -169.009 277.14 -120.438 c 0
 277.14 -61.5488 338.83 -25.4287 402.66 -0.00878906 c 1
 127.851 -0.00878906 l 1
 127.851 680.421 l 1
 437.57 680.421 l 1
 436.71 672.641 l 1
 136.07 672.641 l 1
 136.07 364.351 l 1
 394.351 364.351 l 1
 394.351 356.78 l 1
 136.07 356.78 l 1
 136.07 7.78027 l 1xbe
 446.71 7.78027 l 1
 446.71 0 l 1
 417.78 0 l 1xde
EndSplineSet
Substitution2: "'c2sc' Capitals to Small Capitals lookup 23 subtable" eogonek.sc
Substitution2: "'aalt' Access All Alternates lookup 0 subtable" eogonek.sc
Position2: "'cpsp' Capital Spacing lookup 0 subtable" dx=5 dy=0 dh=10 dv=0
EndChar

StartChar: eogonek
Encoding: 281 281 166
Width: 528
GlyphClass: 2
Flags: MW
HStem: -192.36 8 -9.21001 7.57001 250.28 7.14999 520.07 7.57001
VStem: 77.86 8.23 215.72 8.64 447.36 8
AnchorPoint: "Anchor-11" 278 0 basechar 0
AnchorPoint: "Anchor-10" 0 0 basechar 0
AnchorPoint: "Anchor-9" 276 518 basechar 0
AnchorPoint: "Anchor-8" 366 4 basechar 0
LayerCount: 2
Fore
SplineSet
455.36 286.93 m 0
 455.36 272.71 455.142 263.208 454.142 250.278 c 1
 86.0918 250.278 l 1
 87.752 85.8779 164.052 -1.6416 277.282 -1.6416 c 0
 341.433 -1.6416 383.362 19.1387 428.362 56.709 c 1
 432.792 50.4287 l 1
 406.032 28.2686 379.942 11.4482 349.212 1.4082 c 1
 290.372 -22.0215 224.362 -56.9111 224.362 -116.001 c 0
 224.362 -160.791 253.862 -184.361 298.502 -184.361 c 0
 316.502 -184.361 329.722 -182.361 351.502 -176.791 c 1
 350.862 -184.791 l 1
 329.292 -190.361 316.642 -192.361 297.642 -192.361 c 0
 247.292 -192.361 215.722 -164.791 215.722 -116.221 c 0
 215.722 -64.5205 263.252 -30.3809 318.892 -5.9707 c 1
 306.012 -8.11035 292.242 -9.20996 277.292 -9.20996 c 0
 156.142 -9.20996 77.8613 85.6396 77.8613 253.64 c 0
 77.8613 426 154.711 527.64 274.931 527.64 c 0
 399.431 527.64 455.36 425.5 455.36 286.93 c 0
446.571 257.428 m 1
 447.361 268.928 447.362 276.067 447.362 289.277 c 0
 447.362 420.707 395.002 520.067 275.362 520.067 c 0
 162.772 520.067 87.2021 426.258 86.0918 257.428 c 1
 446.571 257.428 l 1
EndSplineSet
Substitution2: "'smcp' Lowercase to Small Capitals lookup 24 subtable" eogonek.sc
Substitution2: "'aalt' Access All Alternates lookup 0 subtable" eogonek.sc
EndChar
StartChar: Ecaron
Encoding: 282 282 70
Width: 495
GlyphClass: 2
Flags: MW
HStem: 0 8<136 447 136 447> 357 7<136 394 136 394> 673 7<136 437 136 136> 764 8<284 284 284 287 282 284>
VStem: 128 8<8 357 364 673>
AnchorPoint: "Anchor-14" 0 0 basechar 0
AnchorPoint: "Anchor-13" 0 0 basechar 0
AnchorPoint: "Anchor-12" 287 850 basechar 0
AnchorPoint: "Anchor-11" 428 0 basechar 0
AnchorPoint: "Anchor-10" 284 0 basechar 0
LayerCount: 2
Back
Fore
SplineSet
394 850 m 1
 399 846 l 1
 287 764 l 1
 282 764 l 1
 171 846 l 1
 176 850 l 1
 284 772 l 1
 394 850 l 1
438 680 m 1
 437 673 l 1
 136 673 l 1
 136 364 l 1
 394 364 l 1
 394 357 l 1
 136 357 l 1
 136 8 l 1
 447 8 l 1
 447 0 l 1
 128 0 l 1
 128 680 l 1
 438 680 l 1
EndSplineSet
Substitution2: "'c2sc' Capitals to Small Capitals lookup 26 subtable" ecaron.sc
Substitution2: "'aalt' Access All Alternates lookup 0 subtable" ecaron.sc
Position2: "'cpsp' Capital Spacing lookup 0 subtable" dx=5 dy=0 dh=10 dv=0
EndChar

StartChar: ecaron
Encoding: 283 283 160
Width: 528
GlyphClass: 2
Flags: MW
HStem: -9.21001 7.57001 250.29 7.14 520.07 7.57001 646.5 8.64 713.93 20G 718.57 20G
VStem: 77.86 8.23 447.36 8
AnchorPoint: "Anchor-11" 278 0 basechar 0
AnchorPoint: "Anchor-10" 0 0 basechar 0
AnchorPoint: "Anchor-9" 276 518 basechar 0
AnchorPoint: "Anchor-8" 366 4 basechar 0
LayerCount: 2
Fore
SplineSet
275.71 646.5 m 1xf7
 164.859 733.93 l 1
 169.64 738.569 l 1xf7
 278.21 655.14 l 1
 388.14 738.569 l 1
 392.93 733.93 l 1xfb
 280.71 646.5 l 1
 275.71 646.5 l 1xf7
455.359 286.93 m 0
 455.359 272.72 455.141 263.219 454.141 250.289 c 1
 86.0908 250.289 l 1
 87.751 85.8789 164.051 -1.64062 277.281 -1.64062 c 0
 341.432 -1.64062 383.361 19.1494 428.361 56.7197 c 1
 432.791 50.4297 l 1
 387.571 13 344.291 -9.20996 277.291 -9.20996 c 0
 156.141 -9.20996 77.8604 85.6396 77.8604 253.64 c 0
 77.8604 426 154.71 527.64 274.93 527.64 c 0
 399.43 527.64 455.359 425.5 455.359 286.93 c 0
446.57 257.429 m 1
 447.36 268.929 447.36 276.069 447.36 289.289 c 0
 447.36 420.719 395 520.068 275.36 520.068 c 0
 162.771 520.068 87.2002 426.259 86.0898 257.429 c 1
 446.57 257.429 l 1
EndSplineSet
Substitution2: "'smcp' Lowercase to Small Capitals lookup 24 subtable" ecaron.sc
Substitution2: "'aalt' Access All Alternates lookup 0 subtable" ecaron.sc
EndChar

StartChar: Gcircumflex
Encoding: 284 284 37
Width: 601
GlyphClass: 2
Flags: MW
HStem: -9.22 7.78999 337.85 7.78999 682.64 7.78 847.14 8.64
VStem: 82.86 8.42999 514.86 8.22
AnchorPoint: "Anchor-11" 338 0 basechar 0
AnchorPoint: "Anchor-10" 0 0 basechar 0
AnchorPoint: "Anchor-9" 340 680 basechar 0
AnchorPoint: "Anchor-8" 0 0 basechar 0
LayerCount: 2
Fore
SplineSet
338.79 847.14 m 1
 230.22 768.92 l 1
 225.43 773.57 l 1
 336.29 855.78 l 1
 341.29 855.78 l 1
 453.5 773.57 l 1
 448.72 768.92 l 1
 338.79 847.14 l 1
344.069 690.42 m 0
 408.649 690.42 455.858 671.211 504.929 634.141 c 1
 500.079 628.07 l 1
 452.859 664.28 405.51 682.641 344.08 682.641 c 0
 221.22 682.641 91.29 578.711 91.29 344.991 c 0
 91.29 117.921 193.65 -1.42871 353 -1.42871 c 0
 422.72 -1.42871 475.359 20.4209 514.859 43.8506 c 1
 514.859 337.851 l 1
 365.579 337.851 l 1
 364.719 345.641 l 1
 523.079 345.641 l 1
 523.079 39.6406 l 1
 479.429 13.4902 421.499 -9.21973 352.999 -9.21973 c 0
 189.789 -9.21973 82.8594 112.92 82.8594 344.99 c 0
 82.8594 582.21 216.569 690.42 344.069 690.42 c 0
EndSplineSet
Substitution2: "'c2sc' Capitals to Small Capitals lookup 23 subtable" gcircumflex.sc
Substitution2: "'aalt' Access All Alternates lookup 0 subtable" gcircumflex.sc
Position2: "'cpsp' Capital Spacing lookup 0 subtable" dx=5 dy=0 dh=10 dv=0
EndChar

StartChar: gcircumflex
Encoding: 285 285 170
Width: 487
GlyphClass: 2
Flags: MW
HStem: -193.5 7.57001 50.78 7.57001 192.93 7.34 520.28 7.36 741.49 8.64999
VStem: 51.78 8 72.21 8.22 103 8.21001 411.65 8.21001 445.71 8.22
AnchorPoint: "Anchor-11" 193 0 basechar 0
AnchorPoint: "Anchor-10" 0 0 basechar 0
AnchorPoint: "Anchor-9" 246 518 basechar 0
AnchorPoint: "Anchor-8" 0 0 basechar 0
LayerCount: 2
Fore
SplineSet
135.5 662.71 m 1
 247.71 750.14 l 1
 252.71 750.14 l 1
 363.57 662.71 l 1
 358.78 658.06 l 1
 250.21 741.489 l 1
 140.28 658.06 l 1
 135.5 662.71 l 1
464.57 537.279 m 1
 431.641 527.709 383.358 521.139 285.929 520.948 c 1
 374.329 506.269 419.859 443.288 419.859 355.998 c 0xfa80
 419.859 252.638 351.859 192.928 247.709 192.928 c 0
 217.079 192.928 189.959 200.058 166.109 210.918 c 1
 134.239 191.588 111.209 163.728 111.209 128.418 c 0
 111.209 85.3477 144.859 58.3477 217.209 58.3477 c 2
 307.139 58.3477 l 2
 400.858 58.3477 453.929 11.498 453.929 -58.3623 c 0
 453.929 -145.572 388.709 -193.502 251.779 -193.502 c 0
 112.64 -193.502 51.7793 -158.222 51.7793 -59.3613 c 1
 59.7793 -59.3613 l 1
 60.209 -153.581 117.209 -185.931 251.779 -185.931 c 0
 383.709 -185.931 445.709 -141.15 445.709 -58.79 c 0
 445.709 8.49023 393.999 50.7803 306.709 50.7803 c 2
 216.779 50.7803 l 2
 141.279 50.7803 102.999 80.9199 102.999 127.35 c 0xffc0
 102.999 166.46 128.339 193.72 159.299 213.979 c 1
 107.459 240.869 72.209 286.339 72.209 357.419 c 0
 72.209 460.209 141.989 527.639 241.64 527.639 c 0
 395.92 527.419 423.35 534.849 462.42 545.919 c 1
 464.57 537.279 l 1
241.858 520.279 m 0
 142.578 520.279 80.4287 452.419 80.4287 357.419 c 0
 80.4287 252.989 164.858 200.27 247.719 200.27 c 0
 346.648 200.27 411.648 255.989 411.648 355.989 c 0
 411.648 472.629 332.429 520.279 241.858 520.279 c 0
EndSplineSet
Substitution2: "'smcp' Lowercase to Small Capitals lookup 24 subtable" gcircumflex.sc
Substitution2: "'aalt' Access All Alternates lookup 0 subtable" gcircumflex.sc
EndChar

StartChar: Gbreve
Encoding: 286 286 36
Width: 601
GlyphClass: 2
Flags: MW
HStem: -9.22 7.78999 337.86 7.78 682.64 7.78999 682.64 96.72
VStem: 82.85 8.42999 514.85 8.22
AnchorPoint: "Anchor-11" 338 0 basechar 0
AnchorPoint: "Anchor-10" 0 0 basechar 0
AnchorPoint: "Anchor-9" 340 680 basechar 0
AnchorPoint: "Anchor-8" 0 0 basechar 0
LayerCount: 2
Fore
SplineSet
339.57 774.71 m 0xdc
 288.99 774.71 253.642 802.5 241.491 838.64 c 1
 244.642 838.93 l 1
 255.852 808.859 286.281 779.359 339.571 779.359 c 0
 392.852 779.359 423.281 808.859 434.501 838.93 c 1
 437.641 838.64 l 1
 425.501 802.5 390.141 774.71 339.57 774.71 c 0xdc
344.062 690.43 m 0xec
 408.642 690.43 455.851 671.21 504.921 634.14 c 1
 500.071 628.069 l 1
 452.852 664.289 405.502 682.639 344.072 682.639 c 0
 221.212 682.639 91.2822 578.709 91.2822 344.999 c 0
 91.2822 117.929 193.643 -1.43164 352.992 -1.43164 c 0
 422.712 -1.43164 475.352 20.4287 514.852 43.8584 c 1
 514.852 337.858 l 1
 365.571 337.858 l 1
 364.711 345.639 l 1
 523.071 345.639 l 1
 523.071 39.6387 l 1
 479.421 13.499 421.491 -9.2207 352.991 -9.2207 c 0
 189.781 -9.2207 82.8516 112.93 82.8516 345 c 0
 82.8516 582.21 216.562 690.43 344.062 690.43 c 0xec
EndSplineSet
Substitution2: "'c2sc' Capitals to Small Capitals lookup 23 subtable" gbreve.sc
Substitution2: "'aalt' Access All Alternates lookup 0 subtable" gbreve.sc
Position2: "'cpsp' Capital Spacing lookup 0 subtable" dx=5 dy=0 dh=10 dv=0
EndChar

StartChar: gbreve
Encoding: 287 287 169
Width: 487
GlyphClass: 2
Flags: MW
HStem: -193.5 7.57001 50.78 7.57001 192.93 7.34 520.28 7.36 520.95 150.19 720.71 20G
VStem: 51.78 8 72.21 8.22 103 8.21001 411.65 8.21001 445.71 8.22
AnchorPoint: "Anchor-11" 193 0 basechar 0
AnchorPoint: "Anchor-10" 0 0 basechar 0
AnchorPoint: "Anchor-9" 246 518 basechar 0
AnchorPoint: "Anchor-8" 0 0 basechar 0
LayerCount: 2
Fore
SplineSet
246.43 666.49 m 0xf540
 195.859 666.49 160.49 694.28 148.351 740.42 c 1
 151.49 740.71 l 1
 162.71 701.42 193.14 671.14 246.42 671.14 c 0xed40
 299.71 671.14 330.14 701.42 341.35 740.71 c 1
 344.5 740.42 l 1
 332.35 694.28 297 666.49 246.43 666.49 c 0xf540
464.571 537.28 m 1
 431.642 527.71 383.359 521.14 285.93 520.949 c 1
 374.33 506.27 419.86 443.289 419.86 355.999 c 0xed40
 419.86 252.639 351.86 192.929 247.71 192.929 c 0
 217.08 192.929 189.96 200.059 166.11 210.919 c 1
 134.24 191.589 111.21 163.729 111.21 128.419 c 0
 111.21 85.3486 144.86 58.3486 217.21 58.3486 c 2
 307.14 58.3486 l 2
 400.859 58.3486 453.93 11.499 453.93 -58.3613 c 0
 453.93 -145.571 388.71 -193.501 251.78 -193.501 c 0
 112.641 -193.501 51.7803 -158.221 51.7803 -59.3604 c 1
 59.7803 -59.3604 l 1
 60.21 -153.58 117.21 -185.93 251.78 -185.93 c 0
 383.71 -185.93 445.71 -141.149 445.71 -58.7891 c 0
 445.71 8.49121 394 50.7812 306.71 50.7812 c 2
 216.78 50.7812 l 2
 141.28 50.7812 103 80.9209 103 127.351 c 0xf7e0
 103 166.461 128.34 193.721 159.3 213.98 c 1
 107.46 240.87 72.21 286.34 72.21 357.42 c 0
 72.21 460.21 141.99 527.64 241.641 527.64 c 0
 395.921 527.42 423.351 534.85 462.421 545.92 c 1
 464.571 537.28 l 1
241.859 520.28 m 0
 142.579 520.28 80.4297 452.42 80.4297 357.42 c 0
 80.4297 252.99 164.859 200.271 247.72 200.271 c 0
 346.649 200.271 411.649 255.99 411.649 355.99 c 0
 411.649 472.63 332.43 520.28 241.859 520.28 c 0
EndSplineSet
Substitution2: "'smcp' Lowercase to Small Capitals lookup 24 subtable" gbreve.sc
Substitution2: "'aalt' Access All Alternates lookup 0 subtable" gbreve.sc
EndChar

StartChar: Gdotaccent
Encoding: 288 288 39
Width: 601
GlyphClass: 2
Flags: MW
HStem: -9.22 7.78999 337.85 7.78999 682.64 7.78 817.2 20.15
VStem: 82.85 8.44 514.86 8.21001
AnchorPoint: "Anchor-11" 338 0 basechar 0
AnchorPoint: "Anchor-10" 0 0 basechar 0
AnchorPoint: "Anchor-9" 340 680 basechar 0
AnchorPoint: "Anchor-8" 0 0 basechar 0
LayerCount: 2
Fore
SplineSet
339.57 837.35 m 0
 346.36 837.35 349.86 832.42 349.86 827.28 c 0
 349.86 822.13 346.36 817.2 339.57 817.2 c 0
 333 817.2 329.29 822.13 329.29 827.28 c 0
 329.29 832.42 333 837.35 339.57 837.35 c 0
344.07 690.42 m 0
 408.641 690.42 455.858 671.211 504.929 634.141 c 1
 500.068 628.07 l 1
 452.858 664.28 405.498 682.641 344.068 682.641 c 0
 221.219 682.641 91.2891 578.711 91.2891 344.991 c 0
 91.2891 117.921 193.639 -1.42871 352.999 -1.42871 c 0
 422.709 -1.42871 475.359 20.4209 514.859 43.8506 c 1
 514.859 337.851 l 1
 365.569 337.851 l 1
 364.72 345.641 l 1
 523.069 345.641 l 1
 523.069 39.6406 l 1
 479.43 13.4902 421.5 -9.21973 353 -9.21973 c 0
 189.78 -9.21973 82.8506 112.92 82.8506 344.99 c 0
 82.8506 582.21 216.57 690.42 344.07 690.42 c 0
EndSplineSet
Substitution2: "'c2sc' Capitals to Small Capitals lookup 23 subtable" gdotaccent.sc
Substitution2: "'aalt' Access All Alternates lookup 0 subtable" gdotaccent.sc
Position2: "'cpsp' Capital Spacing lookup 0 subtable" dx=5 dy=0 dh=10 dv=0
EndChar

StartChar: gdotaccent
Encoding: 289 289 172
Width: 487
GlyphClass: 2
Flags: MW
HStem: -193.5 7.57001 50.78 7.58 192.93 7.35001 520.28 7.36 691.2 20.15
VStem: 51.79 8 72.21 8.23 103 8.22 411.65 8.21001 445.72 8.21001
AnchorPoint: "Anchor-11" 193 0 basechar 0
AnchorPoint: "Anchor-10" 0 0 basechar 0
AnchorPoint: "Anchor-9" 246 518 basechar 0
AnchorPoint: "Anchor-8" 0 0 basechar 0
LayerCount: 2
Fore
SplineSet
246.43 711.35 m 0
 253.21 711.35 256.71 706.42 256.71 701.28 c 0
 256.71 696.13 253.21 691.2 246.43 691.2 c 0
 239.859 691.2 236.14 696.13 236.14 701.28 c 0
 236.14 706.42 239.859 711.35 246.43 711.35 c 0
464.569 537.279 m 1
 431.64 527.709 383.369 521.14 285.939 520.96 c 1
 374.329 506.28 419.859 443.3 419.859 356 c 0xfa80
 419.859 252.65 351.859 192.931 247.72 192.931 c 0
 217.09 192.931 189.96 200.07 166.11 210.92 c 1
 134.25 191.6 111.22 163.739 111.22 128.43 c 0
 111.22 85.3594 144.859 58.3594 217.22 58.3594 c 2
 307.149 58.3594 l 2
 400.859 58.3594 453.93 11.499 453.93 -58.3506 c 0
 453.93 -145.57 388.72 -193.5 251.79 -193.5 c 0
 112.64 -193.5 51.79 -158.21 51.79 -59.3604 c 1
 59.79 -59.3604 l 1
 60.2197 -153.57 117.22 -185.931 251.79 -185.931 c 0
 383.72 -185.931 445.72 -141.141 445.72 -58.791 c 0
 445.72 8.49902 394 50.7793 306.72 50.7793 c 2
 216.79 50.7793 l 2
 141.29 50.7793 103 80.9297 103 127.359 c 0xffc0
 103 166.47 128.34 193.72 159.3 213.979 c 1
 107.46 240.88 72.21 286.35 72.21 357.43 c 0
 72.21 460.21 142 527.64 241.64 527.64 c 0
 395.93 527.43 423.359 534.859 462.43 545.93 c 1
 464.569 537.279 l 1
241.869 520.28 m 0
 142.579 520.28 80.4404 452.42 80.4404 357.42 c 0
 80.4404 252.99 164.87 200.28 247.72 200.28 c 0
 346.649 200.28 411.649 255.99 411.649 355.99 c 0
 411.649 472.641 332.439 520.28 241.869 520.28 c 0
EndSplineSet
Substitution2: "'smcp' Lowercase to Small Capitals lookup 24 subtable" gdotaccent.sc
Substitution2: "'aalt' Access All Alternates lookup 0 subtable" gdotaccent.sc
EndChar

StartChar: gcommaaccent
Encoding: 291 291 171
Width: 487
GlyphClass: 2
Flags: MW
HStem: -193.51 7.57001 50.77 7.58 192.92 7.35001 520.27 7.36
VStem: 51.79 8 72.21 8.23 103 8.22 228.57 21.79 411.65 8.21001 445.72 8.21001
AnchorPoint: "Anchor-11" 193 0 basechar 0
AnchorPoint: "Anchor-10" 0 0 basechar 0
AnchorPoint: "Anchor-9" 246 518 basechar 0
AnchorPoint: "Anchor-8" 0 0 basechar 0
LayerCount: 2
Fore
SplineSet
239.57 621.21 m 0
 232.5 621.21 228.569 625.771 228.569 631.771 c 0
 228.569 636.771 229.64 639.701 233.43 650.271 c 1
 261.43 762.201 l 1
 266.71 762.201 l 1
 241.36 642.131 l 1
 247.931 641.061 250.36 637.561 250.36 631.78 c 0
 250.36 625.78 246.21 621.21 239.57 621.21 c 0
464.569 537.271 m 1
 431.64 527.701 383.369 521.132 285.939 520.952 c 1
 374.329 506.272 419.859 443.292 419.859 355.992 c 0xf580
 419.859 252.643 351.859 192.923 247.72 192.923 c 0
 217.09 192.923 189.96 200.062 166.11 210.912 c 1
 134.25 191.592 111.22 163.731 111.22 128.422 c 0
 111.22 85.3516 144.859 58.3516 217.22 58.3516 c 2
 307.149 58.3516 l 2
 400.859 58.3516 453.93 11.4912 453.93 -58.3584 c 0
 453.93 -145.578 388.72 -193.508 251.79 -193.508 c 0
 112.64 -193.508 51.79 -158.218 51.79 -59.3682 c 1
 59.79 -59.3682 l 1
 60.2197 -153.578 117.22 -185.938 251.79 -185.938 c 0
 383.72 -185.938 445.72 -141.148 445.72 -58.7988 c 0
 445.72 8.49121 394 50.7715 306.72 50.7715 c 2
 216.79 50.7715 l 2
 141.29 50.7715 103 80.9219 103 127.352 c 0xffc0
 103 166.462 128.34 193.712 159.3 213.972 c 1
 107.46 240.872 72.21 286.342 72.21 357.422 c 0
 72.21 460.202 142 527.632 241.64 527.632 c 0
 395.93 527.422 423.359 534.852 462.43 545.922 c 1
 464.569 537.271 l 1
241.869 520.272 m 0
 142.579 520.272 80.4404 452.412 80.4404 357.412 c 0
 80.4404 252.982 164.87 200.272 247.72 200.272 c 0
 346.649 200.272 411.649 255.982 411.649 355.982 c 0
 411.649 472.633 332.439 520.272 241.869 520.272 c 0
EndSplineSet
Substitution2: "'smcp' Lowercase to Small Capitals lookup 24 subtable" gcommaaccent.sc
Substitution2: "'aalt' Access All Alternates lookup 0 subtable" gcommaaccent.sc
EndChar

StartChar: Hcircumflex
Encoding: 292 292 42
Width: 656
GlyphClass: 2
Flags: MW
HStem: 0 21G 356.78 7.78999 660.43 20G 847.14 8.64999
VStem: 127.86 8.21001 519.64 8.22
AnchorPoint: "Anchor-11" 0 0 basechar 0
AnchorPoint: "Anchor-10" 82 680 basechar 0
AnchorPoint: "Anchor-9" 327 680 basechar 0
AnchorPoint: "Anchor-8" 0 0 basechar 0
LayerCount: 2
Fore
SplineSet
325.86 847.14 m 1
 217.29 768.93 l 1
 212.5 773.569 l 1
 323.36 855.789 l 1
 328.36 855.789 l 1
 440.57 773.569 l 1
 435.79 768.93 l 1
 325.86 847.14 l 1
519.64 356.779 m 1
 136.069 356.779 l 1
 136.069 -0.000976562 l 1
 127.859 -0.000976562 l 1
 127.859 680.429 l 1
 136.069 680.429 l 1
 136.069 364.568 l 1
 519.64 364.568 l 1
 519.64 680.429 l 1
 527.859 680.429 l 1
 527.859 -0.000976562 l 1
 519.64 -0.000976562 l 1
 519.64 356.779 l 1
EndSplineSet
Substitution2: "'c2sc' Capitals to Small Capitals lookup 23 subtable" hcircumflex.sc
Substitution2: "'aalt' Access All Alternates lookup 0 subtable" hcircumflex.sc
Position2: "'cpsp' Capital Spacing lookup 0 subtable" dx=5 dy=0 dh=10 dv=0
EndChar
StartChar: hcircumflex
Encoding: 293 293 472
Width: 580
GlyphClass: 2
Flags: MW
HStem: 0 21G<123 131 123 123 455 463 455 455> 520 8<284 371.5> 712 20G<131 131> 895 9<293 293>
VStem: 123 8<0 386 398 731 731 731> 455 8<0 368 0 415.5>
AnchorPoint: "Anchor-14" 294 260 basechar 0
AnchorPoint: "Anchor-13" 367 754 basechar 0
AnchorPoint: "Anchor-12" 293 904 basechar 0
AnchorPoint: "Anchor-11" 0 0 basechar 0
AnchorPoint: "Anchor-10" 293 0 basechar 0
LayerCount: 2
Back
Fore
SplineSet
293 895 m 1
 185 817 l 1
 180 822 l 1
 291 904 l 1
 296 904 l 1
 408 822 l 1
 403 817 l 1
 293 895 l 1
327 528 m 0
 421 528 463 466 463 368 c 2
 463 0 l 1
 455 0 l 1
 455 368 l 2
 455 463 416 520 327 520 c 0
 241 520 179 469 131 386 c 1
 131 0 l 1
 123 0 l 1
 123 731 l 1
 131 732 l 1
 131 398 l 1
 179 478 241 528 327 528 c 0
EndSplineSet
Substitution2: "'smcp' Lowercase to Small Capitals lookup 27 subtable" hcircumflex.sc
Substitution2: "'aalt' Access All Alternates lookup 0 subtable" hcircumflex.sc
EndChar
StartChar: Hbar
Encoding: 294 294 110
Width: 667
GlyphClass: 2
Flags: MW
HStem: 0 21G<134 142 134 134 526 534 526 526> 357 8<142 526 142 526> 524 7<79 134 79 134 142 526 534 588> 524 156<79 142 79 142 134 142 134 526>
VStem: 134 8<0 357 365 524 531 680> 526 8<0 357 357 357 365 524 0 524 531 680>
AnchorPoint: "Anchor-14" 333 340 basechar 0
AnchorPoint: "Anchor-13" 0 0 basechar 0
AnchorPoint: "Anchor-12" 333 680 basechar 0
AnchorPoint: "Anchor-11" 0 0 basechar 0
AnchorPoint: "Anchor-10" 334 0 basechar 0
LayerCount: 2
Back
Fore
SplineSet
588 531 m 1xec
 588 524 l 1
 534 524 l 1
 534 0 l 1
 526 0 l 1
 526 357 l 1
 142 357 l 1
 142 0 l 1
 134 0 l 1
 134 524 l 1
 79 524 l 1
 79 531 l 1
 134 531 l 1xec
 134 680 l 1
 142 680 l 1xdc
 142 531 l 1
 526 531 l 1xec
 526 680 l 1
 534 680 l 1xdc
 534 531 l 1
 588 531 l 1xec
526 365 m 1
 526 524 l 1
 142 524 l 1
 142 365 l 1
 526 365 l 1
EndSplineSet
Substitution2: "'c2sc' Capitals to Small Capitals lookup 26 subtable" hbar.sc
Substitution2: "'aalt' Access All Alternates lookup 0 subtable" hbar.sc
Position2: "'cpsp' Capital Spacing lookup 0 subtable" dx=5 dy=0 dh=10 dv=0
EndChar
StartChar: Itilde
Encoding: 296 296 136
Width: 264
GlyphClass: 2
Flags: MW
HStem: 0 21G<128 136 128 128> 660 20G<128 136 136 136> 810 7<167 201.5 167 202.5> 853 8<61.5 92.5>
VStem: 128 8<0 680 0 680>
AnchorPoint: "Anchor-14" 0 0 basechar 0
AnchorPoint: "Anchor-13" 0 0 basechar 0
AnchorPoint: "Anchor-12" 134 861 basechar 0
AnchorPoint: "Anchor-11" 146 0 basechar 0
AnchorPoint: "Anchor-10" 132 0 basechar 0
LayerCount: 2
Back
Fore
SplineSet
188 810 m 0
 144 810 111 853 74 853 c 0
 49 853 34 843 13 818 c 1
 7 822 l 1
 30 848 47 861 74 861 c 0
 114 861 146 817 188 817 c 0
 215 817 230 828 251 855 c 1
 256 852 l 1
 235 822 217 810 188 810 c 0
136 680 m 1
 136 0 l 1
 128 0 l 1
 128 680 l 1
 136 680 l 1
EndSplineSet
Substitution2: "'c2sc' Capitals to Small Capitals lookup 26 subtable" itilde.sc
Substitution2: "'aalt' Access All Alternates lookup 0 subtable" itilde.sc
Position2: "'cpsp' Capital Spacing lookup 0 subtable" dx=5 dy=0 dh=10 dv=0
EndChar
StartChar: itilde
Encoding: 297 297 497
Width: 254
GlyphClass: 2
Flags: MW
HStem: 0 21G<123 131 123 123> 498 20G<123 131 131 131> 684 7<164 198.5 164 199.5> 727 8<58.5 89.5>
VStem: 123 8<0 518 0 518>
AnchorPoint: "Anchor-14" 0 0 basechar 0
AnchorPoint: "Anchor-13" 0 0 basechar 0
AnchorPoint: "Anchor-12" 127 694 basechar 0
AnchorPoint: "Anchor-11" 141 0 basechar 0
AnchorPoint: "Anchor-10" 127 0 basechar 0
LayerCount: 2
Back
Fore
SplineSet
185 684 m 0
 141 684 108 727 71 727 c 0
 46 727 31 717 10 692 c 1
 4 696 l 1
 27 722 44 735 71 735 c 0
 111 735 143 691 185 691 c 0
 212 691 227 702 248 729 c 1
 253 726 l 1
 232 696 214 684 185 684 c 0
131 518 m 1
 131 0 l 1
 123 0 l 1
 123 518 l 1
 131 518 l 1
EndSplineSet
Substitution2: "'smcp' Lowercase to Small Capitals lookup 27 subtable" itilde.sc
Substitution2: "'aalt' Access All Alternates lookup 0 subtable" itilde.sc
EndChar
